AnekDevanagari-ExpandedExtraBold.ufo
<glyph name="quotedbl" format="2">
  <advance width="1025"/>
  <unicode hex="0022"/>
  <outline>
    <contour>
      <point x="456" y="1314" type="line"/>
      <point x="68" y="1314" type="line"/>
      <point x="108" y="758" type="line"/>
      <point x="411" y="758" type="line"/>
    </contour>
    <contour>
      <point x="957" y="1314" type="line"/>
      <point x="569" y="1314" type="line"/>
      <point x="609" y="758" type="line"/>
      <point x="912" y="758" type="line"/>
    </contour>
  </outline>
</glyph>
<glyph name="asterisk" format="2">
  <advance width="951"/>
  <unicode hex="002A"/>
  <outline>
    <contour>
      <point x="472" y="714" type="line"/>
      <point x="479" y="714" type="line"/>
      <point x="625" y="495" type="line"/>
      <point x="862" y="666" type="line"/>
      <point x="668" y="833" type="line"/>
      <point x="670" y="840" type="line"/>
      <point x="919" y="872" type="line"/>
      <point x="844" y="1146" type="line"/>
      <point x="598" y="1032" type="line"/>
      <point x="593" y="1036" type="line"/>
      <point x="630" y="1278" type="line"/>
      <point x="321" y="1278" type="line"/>
      <point x="358" y="1036" type="line"/>
      <point x="353" y="1032" type="line"/>
      <point x="107" y="1146" type="line"/>
      <point x="32" y="872" type="line"/>
      <point x="282" y="840" type="line"/>
      <point x="283" y="833" type="line"/>
      <point x="89" y="666" type="line"/>
      <point x="328" y="495" type="line"/>
    </contour>
  </outline>
</glyph>
<glyph name="plus" format="2">
  <advance width="1322"/>
  <unicode hex="002B"/>
  <outline>
    <contour>
      <point x="825" y="1129" type="line"/>
      <point x="497" y="1129" type="line"/>
      <point x="497" y="69" type="line"/>
      <point x="825" y="69" type="line"/>
    </contour>
    <contour>
      <point x="1207" y="448" type="line"/>
      <point x="1207" y="750" type="line"/>
      <point x="115" y="750" type="line"/>
      <point x="115" y="448" type="line"/>
    </contour>
  </outline>
</glyph>
<glyph name="period" format="2">
  <advance width="614"/>
  <unicode hex="002E"/>
  <outline>
    <contour>
      <point x="307" y="-34" type="curve" smooth="yes"/>
      <point x="456" y="-34"/>
      <point x="524" y="39"/>
      <point x="524" y="157" type="curve" smooth="yes"/>
      <point x="524" y="162" type="line" smooth="yes"/>
      <point x="524" y="281"/>
      <point x="456" y="356"/>
      <point x="307" y="356" type="curve" smooth="yes"/>
      <point x="157" y="356"/>
      <point x="90" y="281"/>
      <point x="90" y="162" type="curve" smooth="yes"/>
      <point x="90" y="157" type="line" smooth="yes"/>
      <point x="90" y="39"/>
      <point x="157" y="-34"/>
    </contour>
  </outline>
</glyph>
<glyph name="nine" format="2">
  <advance width="1526"/>
  <unicode hex="0039"/>
  <outline>
    <contour>
      <point x="738" y="1311" type="curve" smooth="yes"/>
      <point x="315" y="1311"/>
      <point x="80" y="1148"/>
      <point x="80" y="856" type="curve" smooth="yes"/>
      <point x="80" y="836" type="line" smooth="yes"/>
      <point x="80" y="591"/>
      <point x="266" y="443"/>
      <point x="573" y="443" type="curve" smooth="yes"/>
      <point x="837" y="443"/>
      <point x="981" y="525"/>
      <point x="1032" y="668" type="curve"/>
      <point x="1112" y="668" type="line"/>
      <point x="1039" y="817" type="line"/>
      <point x="968" y="753"/>
      <point x="843" y="719"/>
      <point x="726" y="719" type="curve" smooth="yes"/>
      <point x="561" y="719"/>
      <point x="487" y="766"/>
      <point x="487" y="851" type="curve" smooth="yes"/>
      <point x="487" y="858" type="line" smooth="yes"/>
      <point x="487" y="936"/>
      <point x="566" y="988"/>
      <point x="730" y="988" type="curve" smooth="yes"/>
      <point x="948" y="988"/>
      <point x="1041" y="894"/>
      <point x="1041" y="648" type="curve" smooth="yes"/>
      <point x="1041" y="636" type="line" smooth="yes"/>
      <point x="1041" y="379"/>
      <point x="902" y="279"/>
      <point x="560" y="279" type="curve" smooth="yes"/>
      <point x="411" y="279"/>
      <point x="266" y="312"/>
      <point x="151" y="359" type="curve"/>
      <point x="195" y="22" type="line"/>
      <point x="303" y="-17"/>
      <point x="459" y="-44"/>
      <point x="639" y="-44" type="curve" smooth="yes"/>
      <point x="1155" y="-44"/>
      <point x="1442" y="201"/>
      <point x="1442" y="623" type="curve" smooth="yes"/>
      <point x="1442" y="639" type="line" smooth="yes"/>
      <point x="1442" y="1070"/>
      <point x="1209" y="1311"/>
    </contour>
  </outline>
</glyph>
<glyph name="equal" format="2">
  <advance width="1342"/>
  <unicode hex="003D"/>
  <outline>
    <contour>
      <point x="1217" y="219" type="line"/>
      <point x="1217" y="521" type="line"/>
      <point x="125" y="521" type="line"/>
      <point x="125" y="219" type="line"/>
    </contour>
    <contour>
      <point x="1217" y="679" type="line"/>
      <point x="1217" y="981" type="line"/>
      <point x="125" y="981" type="line"/>
      <point x="125" y="679" type="line"/>
    </contour>
  </outline>
</glyph>
<glyph name="greater" format="2">
  <advance width="1322"/>
  <unicode hex="003E"/>
  <outline>
    <contour>
      <point x="954" y="581" type="line"/>
      <point x="115" y="451" type="line"/>
      <point x="115" y="117" type="line"/>
      <point x="1207" y="340" type="line"/>
      <point x="1207" y="842" type="line"/>
      <point x="115" y="1061" type="line"/>
      <point x="115" y="729" type="line"/>
      <point x="954" y="604" type="line"/>
    </contour>
  </outline>
</glyph>
<glyph name="C" format="2">
  <advance width="1460"/>
  <unicode hex="0043"/>
  <anchor x="800" y="0" name="bottom"/>
  <anchor x="800" y="1278" name="top"/>
  <outline>
    <contour>
      <point x="861" y="-45" type="curve" smooth="yes"/>
      <point x="1063" y="-45"/>
      <point x="1224" y="-4"/>
      <point x="1344" y="55" type="curve"/>
      <point x="1378" y="393" type="line"/>
      <point x="1251" y="342"/>
      <point x="1109" y="297"/>
      <point x="936" y="297" type="curve" smooth="yes"/>
      <point x="633" y="297"/>
      <point x="510" y="427"/>
      <point x="510" y="637" type="curve" smooth="yes"/>
      <point x="510" y="653" type="line" smooth="yes"/>
      <point x="510" y="859"/>
      <point x="636" y="988"/>
      <point x="914" y="988" type="curve" smooth="yes"/>
      <point x="1098" y="988"/>
      <point x="1239" y="943"/>
      <point x="1366" y="890" type="curve"/>
      <point x="1332" y="1221" type="line"/>
      <point x="1208" y="1283"/>
      <point x="1050" y="1322"/>
      <point x="852" y="1322" type="curve" smooth="yes"/>
      <point x="338" y="1322"/>
      <point x="82" y="1069"/>
      <point x="82" y="651" type="curve" smooth="yes"/>
      <point x="82" y="635" type="line" smooth="yes"/>
      <point x="82" y="207"/>
      <point x="342" y="-45"/>
    </contour>
  </outline>
</glyph>
<glyph name="bracketleft" format="2">
  <advance width="771"/>
  <unicode hex="005B"/>
  <outline>
    <contour>
      <point x="707" y="-265" type="line"/>
      <point x="707" y="2" type="line"/>
      <point x="490" y="2" type="line"/>
      <point x="490" y="1082" type="line"/>
      <point x="707" y="1082" type="line"/>
      <point x="707" y="1349" type="line"/>
      <point x="134" y="1349" type="line"/>
      <point x="134" y="-265" type="line"/>
    </contour>
  </outline>
</glyph>
<glyph name="g" format="2">
  <advance width="1338"/>
  <unicode hex="0067"/>
  <anchor x="669" y="-338" name="bottom"/>
  <anchor x="669" y="963" name="top"/>
  <outline>
    <contour>
      <point x="691" y="329" type="curve" smooth="yes"/>
      <point x="1075" y="329"/>
      <point x="1250" y="400"/>
      <point x="1250" y="571" type="curve" smooth="yes"/>
      <point x="1250" y="580" type="line" smooth="yes"/>
      <point x="1250" y="688"/>
      <point x="1184" y="744"/>
      <point x="1035" y="762" type="curve"/>
      <point x="1035" y="776" type="line"/>
      <point x="1328" y="774" type="line"/>
      <point x="1328" y="1027" type="line"/>
      <point x="566" y="988" type="line" smooth="yes"/>
      <point x="236" y="971"/>
      <point x="61" y="886"/>
      <point x="61" y="662" type="curve" smooth="yes"/>
      <point x="61" y="657" type="line" smooth="yes"/>
      <point x="61" y="451"/>
      <point x="242" y="329"/>
    </contour>
    <contour>
      <point x="667" y="-130" type="line" smooth="yes"/>
      <point x="479" y="-130"/>
      <point x="409" y="-98"/>
      <point x="409" y="-39" type="curve"/>
      <point x="409" y="-37" type="line"/>
      <point x="409" y="8"/>
      <point x="443" y="31"/>
      <point x="488" y="40" type="curve"/>
      <point x="384" y="27" type="line"/>
      <point x="803" y="0" type="line" smooth="yes"/>
      <point x="884" y="-5"/>
      <point x="929" y="-12"/>
      <point x="929" y="-51" type="curve" smooth="yes"/>
      <point x="929" y="-54" type="line" smooth="yes"/>
      <point x="929" y="-106"/>
      <point x="867" y="-130"/>
      <point x="683" y="-130" type="curve" smooth="yes"/>
    </contour>
    <contour>
      <point x="679" y="-395" type="line" smooth="yes"/>
      <point x="1079" y="-395"/>
      <point x="1299" y="-295"/>
      <point x="1299" y="-52" type="curve" smooth="yes"/>
      <point x="1299" y="-48" type="line" smooth="yes"/>
      <point x="1299" y="146"/>
      <point x="1151" y="225"/>
      <point x="862" y="245" type="curve" smooth="yes"/>
      <point x="558" y="266" type="line" smooth="yes"/>
      <point x="483" y="271"/>
      <point x="450" y="278"/>
      <point x="450" y="309" type="curve"/>
      <point x="450" y="311" type="line"/>
      <point x="450" y="332"/>
      <point x="467" y="345"/>
      <point x="509" y="345" type="curve"/>
      <point x="616" y="344" type="line"/>
      <point x="309" y="409" type="line"/>
      <point x="309" y="366" type="line"/>
      <point x="175" y="363"/>
      <point x="99" y="314"/>
      <point x="99" y="214" type="curve"/>
      <point x="99" y="212" type="line"/>
      <point x="99" y="114"/>
      <point x="176" y="73"/>
      <point x="289" y="56" type="curve"/>
      <point x="289" y="46" type="line"/>
      <point x="123" y="35"/>
      <point x="46" y="-32"/>
      <point x="46" y="-143" type="curve" smooth="yes"/>
      <point x="46" y="-147" type="line" smooth="yes"/>
      <point x="46" y="-336"/>
      <point x="249" y="-395"/>
      <point x="634" y="-395" type="curve" smooth="yes"/>
    </contour>
    <contour>
      <point x="664" y="566" type="curve" smooth="yes"/>
      <point x="465" y="566"/>
      <point x="429" y="602"/>
      <point x="429" y="651" type="curve" smooth="yes"/>
      <point x="429" y="657" type="line" smooth="yes"/>
      <point x="429" y="707"/>
      <point x="465" y="746"/>
      <point x="661" y="746" type="curve" smooth="yes"/>
      <point x="668" y="746" type="line" smooth="yes"/>
      <point x="863" y="746"/>
      <point x="897" y="707"/>
      <point x="897" y="657" type="curve" smooth="yes"/>
      <point x="897" y="651" type="line" smooth="yes"/>
      <point x="897" y="602"/>
      <point x="863" y="566"/>
    </contour>
  </outline>
</glyph>
<glyph name="dieresis" format="2">
  <advance width="988"/>
  <unicode hex="00A8"/>
  <anchor x="494" y="963" name="_top"/>
  <anchor x="494" y="1354" name="top"/>
  <outline>
    <contour>
      <point x="281" y="1056" type="curve" smooth="yes"/>
      <point x="406" y="1056"/>
      <point x="464" y="1120"/>
      <point x="464" y="1218" type="curve" smooth="yes"/>
      <point x="464" y="1224" type="line" smooth="yes"/>
      <point x="464" y="1323"/>
      <point x="406" y="1389"/>
      <point x="281" y="1389" type="curve" smooth="yes"/>
      <point x="158" y="1389"/>
      <point x="100" y="1323"/>
      <point x="100" y="1224" type="curve" smooth="yes"/>
      <point x="100" y="1218" type="line" smooth="yes"/>
      <point x="100" y="1120"/>
      <point x="158" y="1056"/>
    </contour>
    <contour>
      <point x="707" y="1056" type="curve" smooth="yes"/>
      <point x="829" y="1056"/>
      <point x="888" y="1120"/>
      <point x="888" y="1218" type="curve" smooth="yes"/>
      <point x="888" y="1224" type="line" smooth="yes"/>
      <point x="888" y="1323"/>
      <point x="829" y="1389"/>
      <point x="707" y="1389" type="curve" smooth="yes"/>
      <point x="584" y="1389"/>
      <point x="525" y="1323"/>
      <point x="525" y="1224" type="curve" smooth="yes"/>
      <point x="525" y="1218" type="line" smooth="yes"/>
      <point x="525" y="1120"/>
      <point x="582" y="1056"/>
    </contour>
  </outline>
</glyph>
<glyph name="softhyphen" format="2">
  <advance width="902"/>
  <unicode hex="00AD"/>
  <outline>
    <contour>
      <point x="808" y="367" type="line"/>
      <point x="808" y="669" type="line"/>
      <point x="94" y="669" type="line"/>
      <point x="94" y="367" type="line"/>
    </contour>
  </outline>
</glyph>
<glyph name="degree" format="2">
  <advance width="827"/>
  <unicode hex="00B0"/>
  <outline>
    <contour>
      <point x="413" y="690" type="curve" smooth="yes"/>
      <point x="641" y="690"/>
      <point x="767" y="812"/>
      <point x="767" y="1003" type="curve"/>
      <point x="767" y="1010" type="line"/>
      <point x="767" y="1201"/>
      <point x="641" y="1323"/>
      <point x="413" y="1323" type="curve" smooth="yes"/>
      <point x="186" y="1323"/>
      <point x="60" y="1201"/>
      <point x="60" y="1010" type="curve"/>
      <point x="60" y="1003" type="line"/>
      <point x="60" y="812"/>
      <point x="186" y="690"/>
    </contour>
    <contour>
      <point x="413" y="882" type="curve" smooth="yes"/>
      <point x="334" y="882"/>
      <point x="287" y="929"/>
      <point x="287" y="1003" type="curve" smooth="yes"/>
      <point x="287" y="1010" type="line" smooth="yes"/>
      <point x="287" y="1084"/>
      <point x="334" y="1131"/>
      <point x="413" y="1131" type="curve" smooth="yes"/>
      <point x="493" y="1131"/>
      <point x="540" y="1084"/>
      <point x="540" y="1010" type="curve" smooth="yes"/>
      <point x="540" y="1003" type="line" smooth="yes"/>
      <point x="540" y="929"/>
      <point x="493" y="882"/>
    </contour>
  </outline>
</glyph>
<glyph name="periodcentered" format="2">
  <advance width="584"/>
  <unicode hex="00B7"/>
  <anchor x="292" y="258" name="_top"/>
  <anchor x="292" y="656" name="top"/>
  <outline>
    <contour>
      <point x="291" y="358" type="curve" smooth="yes"/>
      <point x="430" y="358"/>
      <point x="494" y="424"/>
      <point x="494" y="525" type="curve" smooth="yes"/>
      <point x="494" y="532" type="line" smooth="yes"/>
      <point x="494" y="635"/>
      <point x="430" y="703"/>
      <point x="291" y="703" type="curve" smooth="yes"/>
      <point x="154" y="703"/>
      <point x="90" y="635"/>
      <point x="90" y="532" type="curve" smooth="yes"/>
      <point x="90" y="525" type="line" smooth="yes"/>
      <point x="90" y="424"/>
      <point x="154" y="358"/>
    </contour>
  </outline>
</glyph>
<glyph name="questiondown" format="2">
  <advance width="1270"/>
  <unicode hex="00BF"/>
  <outline>
    <contour>
      <point x="754" y="527" type="line" smooth="yes"/>
      <point x="324" y="513"/>
      <point x="68" y="400"/>
      <point x="68" y="81" type="curve"/>
      <point x="68" y="67" type="line"/>
      <point x="68" y="-216"/>
      <point x="280" y="-351"/>
      <point x="680" y="-351" type="curve" smooth="yes"/>
      <point x="899" y="-351"/>
      <point x="1089" y="-303"/>
      <point x="1192" y="-264" type="curve"/>
      <point x="1238" y="59" type="line"/>
      <point x="1066" y="7"/>
      <point x="890" y="-27"/>
      <point x="730" y="-27" type="curve" smooth="yes"/>
      <point x="530" y="-27"/>
      <point x="481" y="6"/>
      <point x="481" y="83" type="curve" smooth="yes"/>
      <point x="481" y="88" type="line" smooth="yes"/>
      <point x="481" y="165"/>
      <point x="547" y="206"/>
      <point x="777" y="218" type="curve" smooth="yes"/>
      <point x="941" y="226" type="line"/>
      <point x="941" y="533" type="line"/>
    </contour>
    <contour>
      <point x="764" y="996" type="curve" smooth="yes"/>
      <point x="615" y="996"/>
      <point x="547" y="926"/>
      <point x="547" y="813" type="curve" smooth="yes"/>
      <point x="547" y="808" type="line" smooth="yes"/>
      <point x="547" y="694"/>
      <point x="615" y="622"/>
      <point x="764" y="622" type="curve" smooth="yes"/>
      <point x="914" y="622"/>
      <point x="981" y="694"/>
      <point x="981" y="808" type="curve" smooth="yes"/>
      <point x="981" y="813" type="line" smooth="yes"/>
      <point x="981" y="926"/>
      <point x="914" y="996"/>
    </contour>
  </outline>
</glyph>
<glyph name="Aacute" format="2">
  <advance width="1686"/>
  <unicode hex="00C1"/>
  <anchor x="843" y="0" name="bottom"/>
  <anchor x="1700" y="10" name="ogonek"/>
  <anchor x="843" y="1669" name="top"/>
  <outline>
    <contour>
      <point x="432" y="0" type="line"/>
      <point x="832" y="1029" type="line"/>
      <point x="861" y="1029" type="line"/>
      <point x="1254" y="0" type="line"/>
      <point x="1674" y="0" type="line"/>
      <point x="1140" y="1278" type="line"/>
      <point x="553" y="1278" type="line"/>
      <point x="12" y="0" type="line"/>
    </contour>
    <contour>
      <point x="1234" y="274" type="line"/>
      <point x="1234" y="580" type="line"/>
      <point x="451" y="580" type="line"/>
      <point x="451" y="274" type="line"/>
    </contour>
    <contour>
      <point x="639" y="1404" type="line"/>
      <point x="639" y="1398" type="line"/>
      <point x="1011" y="1398" type="line"/>
      <point x="1359" y="1683" type="line"/>
      <point x="1359" y="1690" type="line"/>
      <point x="912" y="1690" type="line"/>
    </contour>
  </outline>
</glyph>
<glyph name="Ccedilla" format="2">
  <advance width="1460"/>
  <unicode hex="00C7"/>
  <anchor x="840" y="-449" name="bottom"/>
  <anchor x="800" y="1278" name="top"/>
  <outline>
    <contour>
      <point x="861" y="-45" type="curve" smooth="yes"/>
      <point x="1063" y="-45"/>
      <point x="1224" y="-4"/>
      <point x="1344" y="55" type="curve"/>
      <point x="1378" y="393" type="line"/>
      <point x="1251" y="342"/>
      <point x="1109" y="297"/>
      <point x="936" y="297" type="curve" smooth="yes"/>
      <point x="633" y="297"/>
      <point x="510" y="427"/>
      <point x="510" y="637" type="curve" smooth="yes"/>
      <point x="510" y="653" type="line" smooth="yes"/>
      <point x="510" y="859"/>
      <point x="636" y="988"/>
      <point x="914" y="988" type="curve" smooth="yes"/>
      <point x="1098" y="988"/>
      <point x="1239" y="943"/>
      <point x="1366" y="890" type="curve"/>
      <point x="1332" y="1221" type="line"/>
      <point x="1208" y="1283"/>
      <point x="1050" y="1322"/>
      <point x="852" y="1322" type="curve" smooth="yes"/>
      <point x="338" y="1322"/>
      <point x="82" y="1069"/>
      <point x="82" y="651" type="curve" smooth="yes"/>
      <point x="82" y="635" type="line" smooth="yes"/>
      <point x="82" y="207"/>
      <point x="342" y="-45"/>
    </contour>
    <contour>
      <point x="679" y="27" type="line"/>
      <point x="639" y="-190" type="line"/>
      <point x="640" y="-190"/>
      <point x="642" y="-190"/>
      <point x="644" y="-190" type="curve"/>
      <point x="811" y="-192"/>
      <point x="847" y="-202"/>
      <point x="847" y="-231" type="curve"/>
      <point x="847" y="-233" type="line"/>
      <point x="847" y="-259"/>
      <point x="809" y="-263"/>
      <point x="724" y="-263" type="curve" smooth="yes"/>
      <point x="674" y="-263"/>
      <point x="614" y="-258"/>
      <point x="560" y="-247" type="curve"/>
      <point x="599" y="-434" type="line"/>
      <point x="655" y="-448"/>
      <point x="731" y="-459"/>
      <point x="802" y="-459" type="curve" smooth="yes"/>
      <point x="1019" y="-459"/>
      <point x="1121" y="-396"/>
      <point x="1121" y="-258" type="curve" smooth="yes"/>
      <point x="1121" y="-254" type="line" smooth="yes"/>
      <point x="1121" y="-153"/>
      <point x="1055" y="-88"/>
      <point x="861" y="-88" type="curve" smooth="yes"/>
      <point x="825" y="-88"/>
      <point x="788" y="-88"/>
      <point x="752" y="-88" type="curve"/>
      <point x="897" y="-163" type="line"/>
      <point x="938" y="27" type="line"/>
    </contour>
  </outline>
</glyph>
<glyph name="Ntilde" format="2">
  <advance width="1718"/>
  <unicode hex="00D1"/>
  <anchor x="859" y="0" name="bottom"/>
  <anchor x="859" y="1669" name="top"/>
  <outline>
    <contour>
      <point x="134" y="1278" type="line"/>
      <point x="134" y="0" type="line"/>
      <point x="533" y="0" type="line"/>
      <point x="533" y="450" type="line"/>
      <point x="522" y="893" type="line"/>
      <point x="540" y="893" type="line"/>
      <point x="1050" y="0" type="line"/>
      <point x="1584" y="0" type="line"/>
      <point x="1584" y="1278" type="line"/>
      <point x="1185" y="1278" type="line"/>
      <point x="1185" y="863" type="line"/>
      <point x="1196" y="420" type="line"/>
      <point x="1178" y="420" type="line"/>
      <point x="693" y="1278" type="line"/>
    </contour>
    <contour>
      <point x="1016" y="1400" type="curve" smooth="yes"/>
      <point x="1210" y="1400"/>
      <point x="1273" y="1512"/>
      <point x="1273" y="1671" type="curve" smooth="yes"/>
      <point x="1273" y="1700" type="line"/>
      <point x="1049" y="1700" type="line"/>
      <point x="1049" y="1700" type="line"/>
      <point x="1048" y="1657"/>
      <point x="1034" y="1635"/>
      <point x="988" y="1635" type="curve" smooth="yes"/>
      <point x="916" y="1635"/>
      <point x="820" y="1686"/>
      <point x="700" y="1686" type="curve" smooth="yes"/>
      <point x="508" y="1686"/>
      <point x="445" y="1573"/>
      <point x="445" y="1419" type="curve" smooth="yes"/>
      <point x="445" y="1386" type="line"/>
      <point x="667" y="1386" type="line"/>
      <point x="667" y="1386" type="line"/>
      <point x="668" y="1430"/>
      <point x="682" y="1451"/>
      <point x="728" y="1451" type="curve" smooth="yes"/>
      <point x="801" y="1451"/>
      <point x="899" y="1400"/>
    </contour>
  </outline>
</glyph>
<glyph name="Otilde" format="2">
  <advance width="1734"/>
  <unicode hex="00D5"/>
  <anchor x="867" y="0" name="bottom"/>
  <anchor x="867" y="639" name="center"/>
  <anchor x="1341" y="10" name="ogonek"/>
  <anchor x="867" y="1669" name="top"/>
  <anchor x="20" y="1278" name="topleft"/>
  <anchor x="1589" y="1278" name="topright"/>
  <outline>
    <contour>
      <point x="867" y="-45" type="curve" smooth="yes"/>
      <point x="1382" y="-45"/>
      <point x="1652" y="203"/>
      <point x="1652" y="632" type="curve" smooth="yes"/>
      <point x="1652" y="646" type="line" smooth="yes"/>
      <point x="1652" y="1075"/>
      <point x="1382" y="1323"/>
      <point x="867" y="1323" type="curve" smooth="yes"/>
      <point x="352" y="1323"/>
      <point x="82" y="1075"/>
      <point x="82" y="646" type="curve" smooth="yes"/>
      <point x="82" y="632" type="line" smooth="yes"/>
      <point x="82" y="203"/>
      <point x="352" y="-45"/>
    </contour>
    <contour>
      <point x="867" y="283" type="curve" smooth="yes"/>
      <point x="628" y="283"/>
      <point x="504" y="414"/>
      <point x="504" y="631" type="curve" smooth="yes"/>
      <point x="504" y="647" type="line" smooth="yes"/>
      <point x="504" y="864"/>
      <point x="628" y="995"/>
      <point x="867" y="995" type="curve" smooth="yes"/>
      <point x="1104" y="995"/>
      <point x="1230" y="864"/>
      <point x="1230" y="647" type="curve" smooth="yes"/>
      <point x="1230" y="631" type="line" smooth="yes"/>
      <point x="1230" y="414"/>
      <point x="1104" y="283"/>
    </contour>
    <contour>
      <point x="1024" y="1400" type="curve" smooth="yes"/>
      <point x="1218" y="1400"/>
      <point x="1281" y="1512"/>
      <point x="1281" y="1671" type="curve" smooth="yes"/>
      <point x="1281" y="1700" type="line"/>
      <point x="1057" y="1700" type="line"/>
      <point x="1057" y="1700" type="line"/>
      <point x="1056" y="1657"/>
      <point x="1042" y="1635"/>
      <point x="996" y="1635" type="curve" smooth="yes"/>
      <point x="924" y="1635"/>
      <point x="828" y="1686"/>
      <point x="708" y="1686" type="curve" smooth="yes"/>
      <point x="516" y="1686"/>
      <point x="453" y="1573"/>
      <point x="453" y="1419" type="curve" smooth="yes"/>
      <point x="453" y="1386" type="line"/>
      <point x="675" y="1386" type="line"/>
      <point x="675" y="1386" type="line"/>
      <point x="676" y="1430"/>
      <point x="690" y="1451"/>
      <point x="736" y="1451" type="curve" smooth="yes"/>
      <point x="809" y="1451"/>
      <point x="907" y="1400"/>
    </contour>
  </outline>
</glyph>
<glyph name="Uacute" format="2">
  <advance width="1692"/>
  <unicode hex="00DA"/>
  <anchor x="846" y="0" name="bottom"/>
  <anchor x="1280" y="10" name="ogonek"/>
  <anchor x="846" y="1669" name="top"/>
  <anchor x="1672" y="1278" name="topright"/>
  <outline>
    <contour>
      <point x="846" y="-45" type="curve" smooth="yes"/>
      <point x="1331" y="-45"/>
      <point x="1570" y="175"/>
      <point x="1570" y="607" type="curve" smooth="yes"/>
      <point x="1570" y="1278" type="line"/>
      <point x="1164" y="1278" type="line"/>
      <point x="1164" y="608" type="line" smooth="yes"/>
      <point x="1164" y="401"/>
      <point x="1057" y="289"/>
      <point x="846" y="289" type="curve" smooth="yes"/>
      <point x="635" y="289"/>
      <point x="528" y="401"/>
      <point x="528" y="608" type="curve" smooth="yes"/>
      <point x="528" y="1278" type="line"/>
      <point x="122" y="1278" type="line"/>
      <point x="122" y="607" type="line" smooth="yes"/>
      <point x="122" y="175"/>
      <point x="363" y="-45"/>
    </contour>
    <contour>
      <point x="642" y="1404" type="line"/>
      <point x="642" y="1398" type="line"/>
      <point x="1014" y="1398" type="line"/>
      <point x="1362" y="1683" type="line"/>
      <point x="1362" y="1690" type="line"/>
      <point x="915" y="1690" type="line"/>
    </contour>
  </outline>
</glyph>
<glyph name="agrave" format="2">
  <advance width="1343"/>
  <unicode hex="00E0"/>
  <anchor x="672" y="0" name="bottom"/>
  <anchor x="1285" y="10" name="ogonek"/>
  <anchor x="533" y="1374" name="top"/>
  <outline>
    <contour>
      <point x="1244" y="0" type="line"/>
      <point x="1244" y="529" type="line" smooth="yes"/>
      <point x="1244" y="774"/>
      <point x="1141" y="1000"/>
      <point x="664" y="1000" type="curve" smooth="yes"/>
      <point x="462" y="1000"/>
      <point x="290" y="961"/>
      <point x="158" y="910" type="curve"/>
      <point x="119" y="630" type="line"/>
      <point x="269" y="678"/>
      <point x="423" y="719"/>
      <point x="596" y="719" type="curve" smooth="yes"/>
      <point x="781" y="719"/>
      <point x="858" y="673"/>
      <point x="858" y="582" type="curve"/>
      <point x="862" y="527" type="line"/>
      <point x="862" y="310" type="line"/>
      <point x="864" y="265" type="line"/>
      <point x="850" y="0" type="line"/>
    </contour>
    <contour>
      <point x="444" y="-32" type="curve" smooth="yes"/>
      <point x="708" y="-32"/>
      <point x="815" y="85"/>
      <point x="851" y="237" type="curve"/>
      <point x="935" y="237" type="line"/>
      <point x="866" y="367" type="line"/>
      <point x="821" y="299"/>
      <point x="727" y="239"/>
      <point x="570" y="239" type="curve" smooth="yes"/>
      <point x="475" y="239"/>
      <point x="442" y="267"/>
      <point x="442" y="309" type="curve" smooth="yes"/>
      <point x="442" y="312" type="line" smooth="yes"/>
      <point x="442" y="357"/>
      <point x="478" y="379"/>
      <point x="562" y="387" type="curve" smooth="yes"/>
      <point x="892" y="418" type="line"/>
      <point x="884" y="614" type="line"/>
      <point x="535" y="588" type="line" smooth="yes"/>
      <point x="229" y="565"/>
      <point x="58" y="491"/>
      <point x="58" y="266" type="curve" smooth="yes"/>
      <point x="58" y="255" type="line" smooth="yes"/>
      <point x="58" y="78"/>
      <point x="191" y="-32"/>
    </contour>
    <contour>
      <point x="208" y="1385" type="line"/>
      <point x="208" y="1378" type="line"/>
      <point x="514" y="1073" type="line"/>
      <point x="858" y="1073" type="line"/>
      <point x="858" y="1079" type="line"/>
      <point x="634" y="1385" type="line"/>
    </contour>
  </outline>
</glyph>
<glyph name="igrave" format="2">
  <advance width="632"/>
  <unicode hex="00EC"/>
  <anchor x="316" y="0" name="bottom"/>
  <anchor x="555" y="10" name="ogonek"/>
  <anchor x="177" y="1374" name="top"/>
  <outline>
    <contour>
      <point x="514" y="0" type="line"/>
      <point x="514" y="963" type="line"/>
      <point x="118" y="963" type="line"/>
      <point x="118" y="0" type="line"/>
    </contour>
    <contour>
      <point x="-31" y="1385" type="line"/>
      <point x="-31" y="1378" type="line"/>
      <point x="156" y="1073" type="line"/>
      <point x="476" y="1073" type="line"/>
      <point x="476" y="1079" type="line"/>
      <point x="359" y="1385" type="line"/>
    </contour>
  </outline>
</glyph>
<glyph name="icircumflex" format="2">
  <advance width="632"/>
  <unicode hex="00EE"/>
  <anchor x="316" y="0" name="bottom"/>
  <anchor x="555" y="10" name="ogonek"/>
  <anchor x="316" y="1370" name="top"/>
  <outline>
    <contour>
      <point x="514" y="0" type="line"/>
      <point x="514" y="963" type="line"/>
      <point x="118" y="963" type="line"/>
      <point x="118" y="0" type="line"/>
    </contour>
    <contour>
      <point x="-67" y="1082" type="line"/>
      <point x="-67" y="1073" type="line"/>
      <point x="222" y="1073" type="line"/>
      <point x="313" y="1203" type="line"/>
      <point x="319" y="1203" type="line"/>
      <point x="408" y="1073" type="line"/>
      <point x="699" y="1073" type="line"/>
      <point x="699" y="1082" type="line"/>
      <point x="509" y="1385" type="line"/>
      <point x="123" y="1385" type="line"/>
    </contour>
  </outline>
</glyph>
<glyph name="otilde" format="2">
  <advance width="1425"/>
  <unicode hex="00F5"/>
  <anchor x="713" y="0" name="bottom"/>
  <anchor x="713" y="482" name="center"/>
  <anchor x="1081" y="10" name="ogonek"/>
  <anchor x="713" y="1374" name="top"/>
  <anchor x="1372" y="963" name="topright"/>
  <outline>
    <contour>
      <point x="711" y="-39" type="curve" smooth="yes"/>
      <point x="1129" y="-39"/>
      <point x="1357" y="144"/>
      <point x="1357" y="472" type="curve" smooth="yes"/>
      <point x="1357" y="495" type="line" smooth="yes"/>
      <point x="1357" y="822"/>
      <point x="1129" y="1007"/>
      <point x="711" y="1007" type="curve" smooth="yes"/>
      <point x="296" y="1007"/>
      <point x="68" y="822"/>
      <point x="68" y="495" type="curve" smooth="yes"/>
      <point x="68" y="472" type="line" smooth="yes"/>
      <point x="68" y="144"/>
      <point x="296" y="-39"/>
    </contour>
    <contour>
      <point x="711" y="265" type="curve" smooth="yes"/>
      <point x="559" y="265"/>
      <point x="467" y="338"/>
      <point x="467" y="472" type="curve" smooth="yes"/>
      <point x="467" y="495" type="line" smooth="yes"/>
      <point x="467" y="628"/>
      <point x="559" y="703"/>
      <point x="711" y="703" type="curve" smooth="yes"/>
      <point x="866" y="703"/>
      <point x="958" y="628"/>
      <point x="958" y="495" type="curve" smooth="yes"/>
      <point x="958" y="472" type="line" smooth="yes"/>
      <point x="958" y="338"/>
      <point x="866" y="265"/>
    </contour>
    <contour>
      <point x="870" y="1075" type="curve" smooth="yes"/>
      <point x="1064" y="1075"/>
      <point x="1127" y="1188"/>
      <point x="1127" y="1349" type="curve" smooth="yes"/>
      <point x="1127" y="1385" type="line"/>
      <point x="903" y="1385" type="line"/>
      <point x="903" y="1385" type="line"/>
      <point x="902" y="1340"/>
      <point x="888" y="1317"/>
      <point x="842" y="1317" type="curve" smooth="yes"/>
      <point x="770" y="1317"/>
      <point x="678" y="1371"/>
      <point x="554" y="1371" type="curve" smooth="yes"/>
      <point x="360" y="1371"/>
      <point x="299" y="1256"/>
      <point x="299" y="1098" type="curve" smooth="yes"/>
      <point x="299" y="1061" type="line"/>
      <point x="521" y="1061" type="line"/>
      <point x="521" y="1061" type="line"/>
      <point x="522" y="1107"/>
      <point x="536" y="1129"/>
      <point x="582" y="1129" type="curve" smooth="yes"/>
      <point x="655" y="1129"/>
      <point x="753" y="1075"/>
    </contour>
  </outline>
</glyph>
<glyph name="odieresis" format="2">
  <advance width="1425"/>
  <unicode hex="00F6"/>
  <anchor x="713" y="0" name="bottom"/>
  <anchor x="713" y="482" name="center"/>
  <anchor x="1081" y="10" name="ogonek"/>
  <anchor x="713" y="1354" name="top"/>
  <anchor x="1372" y="963" name="topright"/>
  <outline>
    <contour>
      <point x="711" y="-39" type="curve" smooth="yes"/>
      <point x="1129" y="-39"/>
      <point x="1357" y="144"/>
      <point x="1357" y="472" type="curve" smooth="yes"/>
      <point x="1357" y="495" type="line" smooth="yes"/>
      <point x="1357" y="822"/>
      <point x="1129" y="1007"/>
      <point x="711" y="1007" type="curve" smooth="yes"/>
      <point x="296" y="1007"/>
      <point x="68" y="822"/>
      <point x="68" y="495" type="curve" smooth="yes"/>
      <point x="68" y="472" type="line" smooth="yes"/>
      <point x="68" y="144"/>
      <point x="296" y="-39"/>
    </contour>
    <contour>
      <point x="711" y="265" type="curve" smooth="yes"/>
      <point x="559" y="265"/>
      <point x="467" y="338"/>
      <point x="467" y="472" type="curve" smooth="yes"/>
      <point x="467" y="495" type="line" smooth="yes"/>
      <point x="467" y="628"/>
      <point x="559" y="703"/>
      <point x="711" y="703" type="curve" smooth="yes"/>
      <point x="866" y="703"/>
      <point x="958" y="628"/>
      <point x="958" y="495" type="curve" smooth="yes"/>
      <point x="958" y="472" type="line" smooth="yes"/>
      <point x="958" y="338"/>
      <point x="866" y="265"/>
    </contour>
    <contour>
      <point x="500" y="1056" type="curve" smooth="yes"/>
      <point x="625" y="1056"/>
      <point x="683" y="1120"/>
      <point x="683" y="1218" type="curve" smooth="yes"/>
      <point x="683" y="1224" type="line" smooth="yes"/>
      <point x="683" y="1323"/>
      <point x="625" y="1389"/>
      <point x="500" y="1389" type="curve" smooth="yes"/>
      <point x="377" y="1389"/>
      <point x="319" y="1323"/>
      <point x="319" y="1224" type="curve" smooth="yes"/>
      <point x="319" y="1218" type="line" smooth="yes"/>
      <point x="319" y="1120"/>
      <point x="377" y="1056"/>
    </contour>
    <contour>
      <point x="926" y="1056" type="curve" smooth="yes"/>
      <point x="1048" y="1056"/>
      <point x="1107" y="1120"/>
      <point x="1107" y="1218" type="curve" smooth="yes"/>
      <point x="1107" y="1224" type="line" smooth="yes"/>
      <point x="1107" y="1323"/>
      <point x="1048" y="1389"/>
      <point x="926" y="1389" type="curve" smooth="yes"/>
      <point x="803" y="1389"/>
      <point x="744" y="1323"/>
      <point x="744" y="1224" type="curve" smooth="yes"/>
      <point x="744" y="1218" type="line" smooth="yes"/>
      <point x="744" y="1120"/>
      <point x="801" y="1056"/>
    </contour>
  </outline>
</glyph>
<glyph name="divide" format="2">
  <advance width="1322"/>
  <unicode hex="00F7"/>
  <outline>
    <contour>
      <point x="1207" y="438" type="line"/>
      <point x="1207" y="740" type="line"/>
      <point x="115" y="740" type="line"/>
      <point x="115" y="438" type="line"/>
    </contour>
    <contour>
      <point x="663.3" y="11.4" type="curve" smooth="yes"/>
      <point x="797.4" y="11.4"/>
      <point x="858.6" y="77.1"/>
      <point x="858.6" y="183.3" type="curve" smooth="yes"/>
      <point x="858.6" y="187.8" type="line" smooth="yes"/>
      <point x="858.6" y="294.9"/>
      <point x="797.4" y="362.4"/>
      <point x="663.3" y="362.4" type="curve" smooth="yes"/>
      <point x="528.3" y="362.4"/>
      <point x="468" y="294.9"/>
      <point x="468" y="187.8" type="curve" smooth="yes"/>
      <point x="468" y="183.3" type="line" smooth="yes"/>
      <point x="468" y="77.1"/>
      <point x="528.3" y="11.4"/>
    </contour>
    <contour>
      <point x="663.3" y="815.4" type="curve" smooth="yes"/>
      <point x="797.4" y="815.4"/>
      <point x="858.6" y="881.1"/>
      <point x="858.6" y="987.3" type="curve" smooth="yes"/>
      <point x="858.6" y="991.8" type="line" smooth="yes"/>
      <point x="858.6" y="1098.9"/>
      <point x="797.4" y="1166.4"/>
      <point x="663.3" y="1166.4" type="curve" smooth="yes"/>
      <point x="528.3" y="1166.4"/>
      <point x="468" y="1098.9"/>
      <point x="468" y="991.8" type="curve" smooth="yes"/>
      <point x="468" y="987.3" type="line" smooth="yes"/>
      <point x="468" y="881.1"/>
      <point x="528.3" y="815.4"/>
    </contour>
  </outline>
</glyph>
<glyph name="ugrave" format="2">
  <advance width="1439"/>
  <unicode hex="00F9"/>
  <anchor x="720" y="0" name="bottom"/>
  <anchor x="1362" y="10" name="ogonek"/>
  <anchor x="581" y="1374" name="top"/>
  <anchor x="1419" y="963" name="topright"/>
  <outline>
    <contour>
      <point x="108" y="963" type="line"/>
      <point x="108" y="388" type="line" smooth="yes"/>
      <point x="108" y="116"/>
      <point x="249" y="-34"/>
      <point x="520" y="-34" type="curve" smooth="yes"/>
      <point x="771" y="-34"/>
      <point x="892" y="91"/>
      <point x="925" y="251" type="curve"/>
      <point x="975" y="251" type="line"/>
      <point x="934" y="422" type="line"/>
      <point x="892" y="352"/>
      <point x="828" y="292"/>
      <point x="701" y="292" type="curve" smooth="yes"/>
      <point x="537" y="292"/>
      <point x="505" y="393"/>
      <point x="505" y="495" type="curve" smooth="yes"/>
      <point x="505" y="963" type="line"/>
    </contour>
    <contour>
      <point x="924" y="963" type="line"/>
      <point x="924" y="354" type="line"/>
      <point x="940" y="319" type="line"/>
      <point x="924" y="0" type="line"/>
      <point x="1321" y="0" type="line"/>
      <point x="1321" y="963" type="line"/>
    </contour>
    <contour>
      <point x="256" y="1385" type="line"/>
      <point x="256" y="1378" type="line"/>
      <point x="562" y="1073" type="line"/>
      <point x="906" y="1073" type="line"/>
      <point x="906" y="1079" type="line"/>
      <point x="682" y="1385" type="line"/>
    </contour>
  </outline>
</glyph>
<glyph name="uacute" format="2">
  <advance width="1439"/>
  <unicode hex="00FA"/>
  <anchor x="720" y="0" name="bottom"/>
  <anchor x="1362" y="10" name="ogonek"/>
  <anchor x="720" y="1374" name="top"/>
  <anchor x="1419" y="963" name="topright"/>
  <outline>
    <contour>
      <point x="108" y="963" type="line"/>
      <point x="108" y="388" type="line" smooth="yes"/>
      <point x="108" y="116"/>
      <point x="249" y="-34"/>
      <point x="520" y="-34" type="curve" smooth="yes"/>
      <point x="771" y="-34"/>
      <point x="892" y="91"/>
      <point x="925" y="251" type="curve"/>
      <point x="975" y="251" type="line"/>
      <point x="934" y="422" type="line"/>
      <point x="892" y="352"/>
      <point x="828" y="292"/>
      <point x="701" y="292" type="curve" smooth="yes"/>
      <point x="537" y="292"/>
      <point x="505" y="393"/>
      <point x="505" y="495" type="curve" smooth="yes"/>
      <point x="505" y="963" type="line"/>
    </contour>
    <contour>
      <point x="924" y="963" type="line"/>
      <point x="924" y="354" type="line"/>
      <point x="940" y="319" type="line"/>
      <point x="924" y="0" type="line"/>
      <point x="1321" y="0" type="line"/>
      <point x="1321" y="963" type="line"/>
    </contour>
    <contour>
      <point x="534" y="1079" type="line"/>
      <point x="534" y="1073" type="line"/>
      <point x="878" y="1073" type="line"/>
      <point x="1184" y="1378" type="line"/>
      <point x="1184" y="1385" type="line"/>
      <point x="758" y="1385" type="line"/>
    </contour>
  </outline>
</glyph>
<glyph name="Visarga.dv" format="2">
  <advance width="587"/>
  <unicode hex="0903"/>
  <outline>
    <contour>
      <point x="-35" y="999" type="line"/>
      <point x="-57" y="1266" type="line"/>
      <point x="623" y="1266" type="line"/>
      <point x="644" y="999" type="line"/>
    </contour>
    <contour>
      <point x="287" y="534" type="curve" smooth="yes"/>
      <point x="451" y="534"/>
      <point x="523" y="602"/>
      <point x="523" y="714" type="curve" smooth="yes"/>
      <point x="523" y="719" type="line" smooth="yes"/>
      <point x="523" y="835"/>
      <point x="444" y="901"/>
      <point x="287" y="901" type="curve" smooth="yes"/>
      <point x="127" y="901"/>
      <point x="53" y="831"/>
      <point x="53" y="719" type="curve" smooth="yes"/>
      <point x="53" y="714" type="line" smooth="yes"/>
      <point x="53" y="602"/>
      <point x="123" y="534"/>
    </contour>
    <contour>
      <point x="287" y="62" type="curve" smooth="yes"/>
      <point x="451" y="62"/>
      <point x="523" y="132"/>
      <point x="523" y="242" type="curve" smooth="yes"/>
      <point x="523" y="249" type="line" smooth="yes"/>
      <point x="523" y="361"/>
      <point x="444" y="429"/>
      <point x="287" y="429" type="curve" smooth="yes"/>
      <point x="127" y="429"/>
      <point x="53" y="358"/>
      <point x="53" y="249" type="curve" smooth="yes"/>
      <point x="53" y="242" type="line" smooth="yes"/>
      <point x="53" y="132"/>
      <point x="123" y="62"/>
    </contour>
  </outline>
</glyph>
<glyph name="vowelU.dv" format="2">
  <advance width="1401"/>
  <unicode hex="0909"/>
  <anchor x="1249" y="37" name="bottom3"/>
  <anchor x="685" y="55" name="bottom5"/>
  <anchor x="759" y="1214" name="top"/>
  <outline>
    <contour>
      <point x="-36" y="999" type="line"/>
      <point x="-57" y="1266" type="line"/>
      <point x="1442" y="1266" type="line"/>
      <point x="1463" y="999" type="line"/>
    </contour>
    <contour>
      <point x="1184" y="1050" type="line"/>
      <point x="1241" y="1004"/>
      <point x="1262" y="952"/>
      <point x="1262" y="892" type="curve" smooth="yes"/>
      <point x="1262" y="886" type="line" smooth="yes"/>
      <point x="1262" y="764"/>
      <point x="1189" y="666"/>
      <point x="949" y="639" type="curve"/>
      <point x="949" y="630" type="line"/>
      <point x="1203" y="598"/>
      <point x="1305" y="479"/>
      <point x="1305" y="324" type="curve" smooth="yes"/>
      <point x="1305" y="319" type="line" smooth="yes"/>
      <point x="1305" y="100"/>
      <point x="1114" y="-36"/>
      <point x="676" y="-36" type="curve" smooth="yes"/>
      <point x="434" y="-36"/>
      <point x="246" y="2"/>
      <point x="116" y="62" type="curve"/>
      <point x="89" y="372" type="line"/>
      <point x="242" y="304"/>
      <point x="420" y="260"/>
      <point x="623" y="260" type="curve" smooth="yes"/>
      <point x="845" y="260"/>
      <point x="908" y="301"/>
      <point x="908" y="365" type="curve" smooth="yes"/>
      <point x="908" y="368" type="line" smooth="yes"/>
      <point x="908" y="431"/>
      <point x="858" y="468"/>
      <point x="578" y="479" type="curve" smooth="yes"/>
      <point x="287" y="489" type="line"/>
      <point x="287" y="767" type="line"/>
      <point x="561" y="774" type="line" smooth="yes"/>
      <point x="797" y="780"/>
      <point x="867" y="819"/>
      <point x="867" y="910" type="curve" smooth="yes"/>
      <point x="867" y="913" type="line" smooth="yes"/>
      <point x="867" y="963"/>
      <point x="844" y="1009"/>
      <point x="781" y="1050" type="curve"/>
    </contour>
  </outline>
</glyph>
<glyph name="vowelRu.dv" format="2">
  <advance width="2266"/>
  <unicode hex="090B"/>
  <anchor x="1736" y="37" name="bottom3"/>
  <anchor x="1168" y="55" name="bottom5"/>
  <anchor x="1168" y="1214" name="top"/>
  <outline>
    <contour>
      <point x="2323" y="999" type="line"/>
      <point x="-35" y="999" type="line"/>
      <point x="-56" y="1266" type="line"/>
      <point x="2302" y="1266" type="line"/>
    </contour>
    <contour>
      <point x="1828" y="730" type="line"/>
      <point x="1924" y="479" type="line"/>
      <point x="1307" y="320" type="line"/>
      <point x="1307" y="598" type="line"/>
    </contour>
    <contour>
      <point x="1981" y="883" type="line"/>
      <point x="2037" y="808"/>
      <point x="2072" y="717"/>
      <point x="2088" y="627" type="curve"/>
      <point x="1946" y="486" type="line"/>
      <point x="1600" y="463" type="line"/>
      <point x="1600" y="883" type="line"/>
    </contour>
    <contour>
      <point x="1567" y="-18" type="curve"/>
      <point x="1545" y="249" type="line"/>
      <point x="1599" y="235"/>
      <point x="1648" y="228"/>
      <point x="1709" y="228" type="curve" smooth="yes"/>
      <point x="1793" y="228"/>
      <point x="1848" y="263"/>
      <point x="1848" y="320" type="curve" smooth="yes"/>
      <point x="1848" y="324" type="line" smooth="yes"/>
      <point x="1848" y="379"/>
      <point x="1805" y="422"/>
      <point x="1713" y="452" type="curve"/>
      <point x="1988" y="562" type="line"/>
      <point x="2133" y="491"/>
      <point x="2213" y="395"/>
      <point x="2213" y="256" type="curve" smooth="yes"/>
      <point x="2213" y="253" type="line" smooth="yes"/>
      <point x="2213" y="52"/>
      <point x="2070" y="-48"/>
      <point x="1798" y="-48" type="curve" smooth="yes"/>
      <point x="1707" y="-48"/>
      <point x="1632" y="-37"/>
    </contour>
    <contour>
      <point x="1360" y="-2" type="line"/>
      <point x="976" y="-2" type="line"/>
      <point x="976" y="1091" type="line"/>
      <point x="1360" y="1091" type="line"/>
    </contour>
    <contour>
      <point x="1027" y="245" type="line"/>
      <point x="112" y="-3" type="line"/>
      <point x="112" y="310" type="line"/>
      <point x="577" y="424" type="line"/>
      <point x="584" y="403" type="line"/>
      <point x="665" y="437"/>
      <point x="768" y="475"/>
      <point x="842" y="494" type="curve" smooth="yes"/>
      <point x="1027" y="541" type="line"/>
    </contour>
    <contour>
      <point x="676" y="394" type="line"/>
      <point x="342" y="352" type="line"/>
      <point x="433" y="393"/>
      <point x="465" y="438"/>
      <point x="465" y="494" type="curve"/>
      <point x="465" y="496" type="line"/>
      <point x="465" y="557"/>
      <point x="425" y="600"/>
      <point x="323" y="600" type="curve" smooth="yes"/>
      <point x="250" y="600"/>
      <point x="176" y="581"/>
      <point x="110" y="554" type="curve"/>
      <point x="132" y="858" type="line"/>
      <point x="215" y="884"/>
      <point x="321" y="899"/>
      <point x="427" y="899" type="curve" smooth="yes"/>
      <point x="699" y="899"/>
      <point x="833" y="797"/>
      <point x="833" y="651" type="curve" smooth="yes"/>
      <point x="833" y="647" type="line" smooth="yes"/>
      <point x="833" y="554"/>
      <point x="774" y="497"/>
      <point x="664" y="447" type="curve"/>
    </contour>
  </outline>
  <guideline angle="90" x="1168" y="0"/>
  <guideline angle="90" x="-2" y="0"/>
</glyph>
<glyph name="vowelShortE.dv" format="2">
  <advance width="1465"/>
  <unicode hex="090E"/>
  <anchor x="1336" y="37" name="bottom3"/>
  <anchor x="1260" y="1214" name="top"/>
  <outline>
    <contour>
      <point x="507" y="1824" type="curve" smooth="yes"/>
      <point x="507.584" y="1713.98"/>
      <point x="553.052" y="1680"/>
      <point x="721.261" y="1680" type="curve" smooth="yes"/>
      <point x="859.433" y="1680" type="line" smooth="yes"/>
      <point x="1192.85" y="1680"/>
      <point x="1314" y="1543"/>
      <point x="1314" y="1290" type="curve" smooth="yes"/>
      <point x="1314" y="1214" type="line"/>
      <point x="974" y="1214" type="line"/>
      <point x="974" y="1271" type="line" smooth="yes"/>
      <point x="974" y="1360"/>
      <point x="945" y="1397"/>
      <point x="826" y="1397" type="curve" smooth="yes"/>
      <point x="668" y="1397" type="line" smooth="yes"/>
      <point x="325" y="1397"/>
      <point x="158" y="1516"/>
      <point x="158" y="1723" type="curve" smooth="yes"/>
      <point x="158" y="1767"/>
      <point x="165" y="1809"/>
      <point x="179" y="1848" type="curve"/>
      <point x="507" y="1848" type="line"/>
      <point x="506.968" y="1844.03"/>
      <point x="506.979" y="1827.86"/>
    </contour>
    <contour>
      <point x="-36" y="999" type="line"/>
      <point x="-57" y="1266" type="line"/>
      <point x="1501" y="1266" type="line"/>
      <point x="1522" y="999" type="line"/>
    </contour>
    <contour>
      <point x="515" y="659" type="line" smooth="yes"/>
      <point x="515" y="368"/>
      <point x="655" y="260"/>
      <point x="960" y="260" type="curve" smooth="yes"/>
      <point x="1069" y="260"/>
      <point x="1193" y="276"/>
      <point x="1292" y="301" type="curve"/>
      <point x="1257" y="0" type="line"/>
      <point x="1160" y="-24"/>
      <point x="1045" y="-36"/>
      <point x="934" y="-36" type="curve" smooth="yes"/>
      <point x="403" y="-36"/>
      <point x="131" y="179"/>
      <point x="131" y="659" type="curve" smooth="yes"/>
      <point x="131" y="1088" type="line"/>
      <point x="515" y="1088" type="line"/>
    </contour>
    <contour>
      <point x="1343" y="861" type="line" smooth="yes"/>
      <point x="1343" y="555.407"/>
      <point x="1201.47" y="415"/>
      <point x="881.858" y="415" type="curve" smooth="yes"/>
      <point x="840.872" y="415"/>
      <point x="788.846" y="418.71"/>
      <point x="750" y="426.705" type="curve"/>
      <point x="750" y="704" type="line"/>
      <point x="760.14" y="704"/>
      <point x="765.86" y="704"/>
      <point x="776" y="704" type="curve" smooth="yes"/>
      <point x="904.572" y="704"/>
      <point x="959" y="749"/>
      <point x="959" y="866" type="curve" smooth="yes"/>
      <point x="959" y="1077" type="line"/>
      <point x="1343" y="1077" type="line"/>
    </contour>
  </outline>
  <guideline angle="90" x="26" y="0"/>
  <guideline angle="90" x="489" y="0"/>
  <guideline angle="90" x="705" y="0"/>
  <guideline angle="0" x="0" y="662"/>
  <guideline angle="90" x="1314" y="0"/>
</glyph>
<glyph name="vowelShortO.dv" format="2">
  <advance width="2739"/>
  <unicode hex="0912"/>
  <anchor x="2522" y="1214" name="top"/>
  <outline>
    <contour>
      <point x="1672" y="1824" type="curve" smooth="yes"/>
      <point x="1671.99" y="1714"/>
      <point x="1718.05" y="1680"/>
      <point x="1886.24" y="1680" type="curve" smooth="yes"/>
      <point x="2109.49" y="1680" type="line" smooth="yes"/>
      <point x="2442.86" y="1680"/>
      <point x="2564" y="1543"/>
      <point x="2564" y="1290" type="curve" smooth="yes"/>
      <point x="2564" y="1214" type="line"/>
      <point x="2224" y="1214" type="line"/>
      <point x="2224" y="1271" type="line" smooth="yes"/>
      <point x="2224" y="1360"/>
      <point x="2195" y="1397"/>
      <point x="2076" y="1397" type="curve" smooth="yes"/>
      <point x="1833" y="1397" type="line" smooth="yes"/>
      <point x="1490" y="1397"/>
      <point x="1323" y="1516"/>
      <point x="1323" y="1723" type="curve" smooth="yes"/>
      <point x="1323" y="1767"/>
      <point x="1330" y="1809"/>
      <point x="1344" y="1848" type="curve"/>
      <point x="1672" y="1848" type="line"/>
      <point x="1671.97" y="1844.06"/>
      <point x="1672" y="1828.04"/>
    </contour>
    <contour>
      <point x="2112" y="999" type="line"/>
      <point x="1342" y="999" type="line"/>
      <point x="1321" y="1266" type="line"/>
      <point x="2091" y="1266" type="line"/>
    </contour>
    <contour>
      <point x="1520" y="0" type="line"/>
      <point x="1520" y="1088" type="line"/>
      <point x="1905" y="1088" type="line"/>
      <point x="1905" y="0" type="line"/>
    </contour>
    <contour>
      <point x="66" y="383" type="line"/>
      <point x="203" y="326"/>
      <point x="379" y="288"/>
      <point x="545" y="288" type="curve" smooth="yes"/>
      <point x="765" y="288"/>
      <point x="829" y="328"/>
      <point x="829" y="393" type="curve" smooth="yes"/>
      <point x="829" y="399" type="line" smooth="yes"/>
      <point x="829" y="465"/>
      <point x="764" y="495"/>
      <point x="525" y="502" type="curve" smooth="yes"/>
      <point x="294" y="509" type="line"/>
      <point x="294" y="776" type="line"/>
      <point x="505" y="781" type="line" smooth="yes"/>
      <point x="762" y="789"/>
      <point x="817" y="821"/>
      <point x="817" y="890" type="curve" smooth="yes"/>
      <point x="817" y="894" type="line" smooth="yes"/>
      <point x="817" y="954"/>
      <point x="756" y="993"/>
      <point x="570" y="993" type="curve" smooth="yes"/>
      <point x="408" y="993"/>
      <point x="253" y="963"/>
      <point x="110" y="908" type="curve"/>
      <point x="137" y="1207" type="line"/>
      <point x="267" y="1255"/>
      <point x="425" y="1283"/>
      <point x="614" y="1283" type="curve" smooth="yes"/>
      <point x="1029" y="1283"/>
      <point x="1198" y="1141"/>
      <point x="1198" y="954" type="curve" smooth="yes"/>
      <point x="1198" y="943" type="line" smooth="yes"/>
      <point x="1198" y="810"/>
      <point x="1109" y="696"/>
      <point x="837" y="689" type="curve"/>
      <point x="847" y="562" type="line"/>
      <point x="1143" y="493"/>
      <point x="1210" y="408"/>
      <point x="1210" y="285" type="curve" smooth="yes"/>
      <point x="1210" y="278" type="line" smooth="yes"/>
      <point x="1210" y="114"/>
      <point x="1029" y="-2"/>
      <point x="609" y="-2" type="curve" smooth="yes"/>
      <point x="397" y="-2"/>
      <point x="228" y="25"/>
      <point x="89" y="82" type="curve"/>
    </contour>
    <contour>
      <point x="824" y="712" type="line"/>
      <point x="1025" y="724" type="line"/>
      <point x="1027" y="714" type="line"/>
      <point x="1111" y="726"/>
      <point x="1194" y="732"/>
      <point x="1319" y="732" type="curve" smooth="yes"/>
      <point x="1668" y="732" type="line"/>
      <point x="1668" y="454" type="line"/>
      <point x="1355" y="454" type="line" smooth="yes"/>
      <point x="1219" y="454"/>
      <point x="1121" y="481"/>
      <point x="1034" y="511" type="curve"/>
      <point x="1025" y="493" type="line"/>
      <point x="824" y="550" type="line"/>
    </contour>
    <contour>
      <point x="2588.5" y="0" type="line"/>
      <point x="2204.5" y="0" type="line"/>
      <point x="2204.5" y="1082" type="line"/>
      <point x="2588.5" y="1082" type="line"/>
    </contour>
    <contour>
      <point x="2795.5" y="999" type="line"/>
      <point x="2018.5" y="999" type="line"/>
      <point x="1997.5" y="1266" type="line"/>
      <point x="2774.5" y="1266" type="line"/>
    </contour>
  </outline>
  <guideline angle="90" x="1714" y="0"/>
  <guideline angle="90" x="2588" y="0"/>
  <guideline angle="90" x="2588" y="0"/>
  <guideline angle="90" x="2397" y="0"/>
  <guideline angle="90" x="2396" y="0"/>
  <guideline angle="90" x="1176" y="0"/>
  <guideline angle="90" x="2588.5" y="0"/>
</glyph>
<glyph name="Kha.dv" format="2">
  <advance width="2136"/>
  <unicode hex="0916"/>
  <anchor x="1794" y="37" name="bottom"/>
  <anchor x="1790" y="37" name="bottom2"/>
  <anchor x="1986" y="37" name="bottom3"/>
  <anchor x="1794" y="55" name="bottom5"/>
  <anchor x="1794" y="1214" name="top"/>
  <outline>
    <contour>
      <point x="1986" y="1082" type="line"/>
      <point x="1986" y="0" type="line"/>
      <point x="1602" y="0" type="line"/>
      <point x="1602" y="1082" type="line"/>
    </contour>
    <contour>
      <point x="1529" y="999" type="line"/>
      <point x="1508" y="1266" type="line"/>
      <point x="2172" y="1266" type="line"/>
      <point x="2193" y="999" type="line"/>
    </contour>
    <contour>
      <point x="-36" y="999" type="line"/>
      <point x="-57" y="1266" type="line"/>
      <point x="2172" y="1266" type="line"/>
      <point x="2193" y="999" type="line"/>
    </contour>
    <contour>
      <point x="869" y="796" type="curve" smooth="yes"/>
      <point x="869" y="787" type="line" smooth="yes"/>
      <point x="869" y="570"/>
      <point x="697.997" y="433.156"/>
      <point x="308" y="426" type="curve" smooth="yes"/>
      <point x="199" y="424" type="line"/>
      <point x="75" y="678" type="line"/>
      <point x="151" y="678" type="line" smooth="yes"/>
      <point x="392" y="678"/>
      <point x="484" y="742"/>
      <point x="484" y="854" type="curve" smooth="yes"/>
      <point x="484" y="860" type="line" smooth="yes"/>
      <point x="484" y="942"/>
      <point x="438" y="1000"/>
      <point x="342" y="1050" type="curve"/>
      <point x="746" y="1050" type="line"/>
      <point x="829" y="983"/>
      <point x="869" y="901"/>
    </contour>
    <contour>
      <point x="1450" y="-5" type="line"/>
      <point x="1358.41" y="-35"/>
      <point x="1230.73" y="-50"/>
      <point x="1114" y="-50" type="curve" smooth="yes"/>
      <point x="667.421" y="-50"/>
      <point x="391.055" y="92.5758"/>
      <point x="245" y="336" type="curve" smooth="yes"/>
      <point x="224" y="371" type="line"/>
      <point x="75" y="392" type="line"/>
      <point x="75" y="678" type="line"/>
      <point x="520" y="479" type="line"/>
      <point x="554" y="443" type="line" smooth="yes"/>
      <point x="664.434" y="326.07"/>
      <point x="862.125" y="235"/>
      <point x="1191" y="235" type="curve" smooth="yes"/>
      <point x="1361.33" y="235"/>
      <point x="1521.18" y="267"/>
      <point x="1625" y="320" type="curve"/>
      <point x="1625" y="269" type="line"/>
    </contour>
    <contour>
      <point x="1323" y="322" type="curve" smooth="yes"/>
      <point x="1080" y="322"/>
      <point x="942" y="434"/>
      <point x="942" y="627" type="curve" smooth="yes"/>
      <point x="942" y="630" type="line" smooth="yes"/>
      <point x="942" y="826"/>
      <point x="1077" y="933"/>
      <point x="1328" y="933" type="curve" smooth="yes"/>
      <point x="1401" y="933"/>
      <point x="1447" y="929"/>
      <point x="1508" y="917" type="curve"/>
      <point x="1529" y="696" type="line"/>
      <point x="1495" y="700"/>
      <point x="1467" y="701"/>
      <point x="1429" y="701" type="curve" smooth="yes"/>
      <point x="1328" y="701"/>
      <point x="1290" y="680"/>
      <point x="1290" y="634" type="curve"/>
      <point x="1290" y="632" type="line"/>
      <point x="1290" y="584"/>
      <point x="1333" y="561"/>
      <point x="1435" y="561" type="curve" smooth="yes"/>
      <point x="1529" y="561"/>
      <point x="1584" y="580"/>
      <point x="1613" y="611" type="curve"/>
      <point x="1625" y="413" type="line"/>
      <point x="1595" y="413" type="line"/>
      <point x="1547" y="354"/>
      <point x="1456" y="322"/>
    </contour>
  </outline>
  <guideline angle="90" x="-206" y="0"/>
  <guideline angle="90" x="869" y="0"/>
  <guideline angle="90" x="154" y="0"/>
  <guideline angle="90" x="1794" y="0"/>
  <guideline angle="0" x="0" y="37"/>
  <guideline angle="0" x="0" y="1214"/>
  <guideline angle="90" x="1790" y="0"/>
  <guideline angle="90" x="1986" y="0"/>
</glyph>
<glyph name="Ga.dv" format="2">
  <advance width="1597"/>
  <unicode hex="0917"/>
  <anchor x="1255" y="37" name="bottom"/>
  <anchor x="1251" y="37" name="bottom2"/>
  <anchor x="1447" y="37" name="bottom3"/>
  <anchor x="1255" y="55" name="bottom5"/>
  <anchor x="1255" y="1214" name="top"/>
  <outline>
    <contour>
      <point x="1447" y="1082" type="line"/>
      <point x="1447" y="0" type="line"/>
      <point x="1063" y="0" type="line"/>
      <point x="1063" y="1082" type="line"/>
    </contour>
    <contour>
      <point x="990" y="999" type="line"/>
      <point x="969" y="1266" type="line"/>
      <point x="1633" y="1266" type="line"/>
      <point x="1654" y="999" type="line"/>
    </contour>
    <contour>
      <point x="-36" y="999" type="line"/>
      <point x="-57" y="1266" type="line"/>
      <point x="1633" y="1266" type="line"/>
      <point x="1654" y="999" type="line"/>
    </contour>
    <contour>
      <point x="666" y="1031" type="line"/>
      <point x="755" y="951.008"/>
      <point x="797" y="832.606"/>
      <point x="797" y="704" type="curve" smooth="yes"/>
      <point x="797" y="692" type="line" smooth="yes"/>
      <point x="797" y="413.385"/>
      <point x="620.895" y="247"/>
      <point x="285" y="247" type="curve" smooth="yes"/>
      <point x="201.077" y="247"/>
      <point x="140.491" y="254.313"/>
      <point x="79" y="268" type="curve"/>
      <point x="52" y="576" type="line"/>
      <point x="82.0681" y="571.209"/>
      <point x="117.176" y="568"/>
      <point x="163" y="568" type="curve" smooth="yes"/>
      <point x="337.644" y="568"/>
      <point x="406" y="635.67"/>
      <point x="406" y="765" type="curve" smooth="yes"/>
      <point x="406" y="772" type="line" smooth="yes"/>
      <point x="406" y="870.391"/>
      <point x="359" y="963.733"/>
      <point x="249" y="1031" type="curve"/>
    </contour>
  </outline>
  <guideline angle="90" x="50" y="0"/>
  <guideline angle="90" x="1255" y="0"/>
  <guideline angle="0" x="0" y="37"/>
  <guideline angle="0" x="0" y="1214"/>
  <guideline angle="90" x="1251" y="0"/>
  <guideline angle="90" x="1447" y="0"/>
</glyph>
<glyph name="Ca.dv" format="2">
  <advance width="1779"/>
  <unicode hex="091A"/>
  <anchor x="1437" y="37" name="bottom"/>
  <anchor x="1433" y="37" name="bottom2"/>
  <anchor x="1629" y="37" name="bottom3"/>
  <anchor x="1437" y="55" name="bottom5"/>
  <anchor x="1437" y="1214" name="top"/>
  <outline>
    <contour>
      <point x="1629" y="1082" type="line"/>
      <point x="1629" y="0" type="line"/>
      <point x="1245" y="0" type="line"/>
      <point x="1245" y="1082" type="line"/>
    </contour>
    <contour>
      <point x="1172" y="999" type="line"/>
      <point x="1151" y="1266" type="line"/>
      <point x="1815" y="1266" type="line"/>
      <point x="1836" y="999" type="line"/>
    </contour>
    <contour>
      <point x="-36" y="999" type="line"/>
      <point x="-57" y="1266" type="line"/>
      <point x="1815" y="1266" type="line"/>
      <point x="1836" y="999" type="line"/>
    </contour>
    <contour>
      <point x="1075" y="865" type="line"/>
      <point x="1075" y="589" type="line"/>
      <point x="441" y="589" type="line"/>
      <point x="315" y="584" type="line"/>
      <point x="68" y="584" type="line"/>
      <point x="68" y="865" type="line"/>
    </contour>
    <contour>
      <point x="767" y="62" type="curve" smooth="yes"/>
      <point x="438" y="62"/>
      <point x="242" y="184"/>
      <point x="242" y="374" type="curve" smooth="yes"/>
      <point x="242" y="381" type="line" smooth="yes"/>
      <point x="242" y="482"/>
      <point x="297" y="552"/>
      <point x="418" y="580" type="curve"/>
      <point x="418" y="650" type="line"/>
      <point x="1075" y="648" type="line"/>
      <point x="1075" y="589" type="line"/>
      <point x="849" y="582" type="line" smooth="yes"/>
      <point x="701" y="577"/>
      <point x="637" y="548"/>
      <point x="637" y="479" type="curve" smooth="yes"/>
      <point x="637" y="475" type="line" smooth="yes"/>
      <point x="637" y="404"/>
      <point x="702" y="365"/>
      <point x="910" y="365" type="curve" smooth="yes"/>
      <point x="1115" y="365"/>
      <point x="1225" y="424"/>
      <point x="1253" y="522" type="curve"/>
      <point x="1266" y="304" type="line"/>
      <point x="1232" y="304" type="line"/>
      <point x="1190" y="167"/>
      <point x="1066" y="62"/>
    </contour>
  </outline>
  <guideline angle="90" x="1437" y="0"/>
  <guideline angle="0" x="0" y="37"/>
  <guideline angle="0" x="0" y="1214"/>
  <guideline angle="90" x="1433" y="0"/>
  <guideline angle="90" x="1629" y="0"/>
</glyph>
<glyph name="Nya.dv" format="2">
  <advance width="1834"/>
  <unicode hex="091E"/>
  <anchor x="1492" y="37" name="bottom"/>
  <anchor x="1488" y="37" name="bottom2"/>
  <anchor x="1684" y="37" name="bottom3"/>
  <anchor x="1492" y="55" name="bottom5"/>
  <anchor x="1492" y="1214" name="top"/>
  <outline>
    <contour>
      <point x="-36" y="999" type="line"/>
      <point x="-57" y="1266" type="line"/>
      <point x="1870" y="1266" type="line"/>
      <point x="1891" y="999" type="line"/>
    </contour>
    <contour>
      <point x="160" y="862" type="line"/>
      <point x="269" y="885"/>
      <point x="383" y="897"/>
      <point x="511" y="897" type="curve" smooth="yes"/>
      <point x="894" y="897"/>
      <point x="1072" y="757"/>
      <point x="1072" y="484" type="curve" smooth="yes"/>
      <point x="1072" y="481" type="line" smooth="yes"/>
      <point x="1072" y="196"/>
      <point x="901" y="62"/>
      <point x="511" y="62" type="curve" smooth="yes"/>
      <point x="342" y="62"/>
      <point x="217" y="83"/>
      <point x="121" y="119" type="curve"/>
      <point x="100" y="408" type="line"/>
      <point x="191" y="380"/>
      <point x="308" y="358"/>
      <point x="422" y="358" type="curve" smooth="yes"/>
      <point x="634" y="358"/>
      <point x="694" y="399"/>
      <point x="694" y="481" type="curve"/>
      <point x="694" y="482" type="line"/>
      <point x="694" y="559"/>
      <point x="639" y="602"/>
      <point x="420" y="602" type="curve" smooth="yes"/>
      <point x="331" y="602"/>
      <point x="228" y="591"/>
      <point x="130" y="571" type="curve"/>
    </contour>
    <contour>
      <point x="1006" y="630" type="line"/>
      <point x="1362" y="630" type="line"/>
      <point x="1362" y="342" type="line"/>
      <point x="1006" y="342" type="line"/>
    </contour>
    <contour>
      <point x="1684" y="1082" type="line"/>
      <point x="1684" y="0" type="line"/>
      <point x="1300" y="0" type="line"/>
      <point x="1300" y="1082" type="line"/>
    </contour>
    <contour>
      <point x="1227" y="999" type="line"/>
      <point x="1206" y="1266" type="line"/>
      <point x="1870" y="1266" type="line"/>
      <point x="1891" y="999" type="line"/>
    </contour>
  </outline>
  <guideline angle="90" x="1492" y="0"/>
  <guideline angle="0" x="0" y="37"/>
  <guideline angle="0" x="0" y="1214"/>
  <guideline angle="90" x="1488" y="0"/>
  <guideline angle="90" x="1684" y="0"/>
</glyph>
<glyph name="Ta.dv" format="2">
  <advance width="1570"/>
  <unicode hex="0924"/>
  <anchor x="1228" y="37" name="bottom"/>
  <anchor x="1224" y="37" name="bottom2"/>
  <anchor x="1420" y="37" name="bottom3"/>
  <anchor x="1228" y="55" name="bottom5"/>
  <anchor x="1228" y="1214" name="top"/>
  <outline>
    <contour>
      <point x="1420" y="1082" type="line"/>
      <point x="1420" y="0" type="line"/>
      <point x="1036" y="0" type="line"/>
      <point x="1036" y="1082" type="line"/>
    </contour>
    <contour>
      <point x="963" y="999" type="line"/>
      <point x="942" y="1266" type="line"/>
      <point x="1606" y="1266" type="line"/>
      <point x="1627" y="999" type="line"/>
    </contour>
    <contour>
      <point x="-36" y="999" type="line"/>
      <point x="-57" y="1266" type="line"/>
      <point x="1606" y="1266" type="line"/>
      <point x="1627" y="999" type="line"/>
    </contour>
    <contour>
      <point x="285" y="0" type="line"/>
      <point x="160" y="116"/>
      <point x="91" y="254"/>
      <point x="91" y="409" type="curve" smooth="yes"/>
      <point x="91" y="655"/>
      <point x="260" y="817"/>
      <point x="634" y="817" type="curve" smooth="yes"/>
      <point x="1219" y="817" type="line"/>
      <point x="1219" y="527" type="line"/>
      <point x="693" y="527" type="line" smooth="yes"/>
      <point x="556" y="527"/>
      <point x="489" y="475"/>
      <point x="489" y="370" type="curve" smooth="yes"/>
      <point x="489" y="258"/>
      <point x="569" y="142"/>
      <point x="708" y="0" type="curve"/>
    </contour>
  </outline>
  <guideline angle="90" x="1228" y="0"/>
  <guideline angle="0" x="0" y="37"/>
  <guideline angle="0" x="0" y="1214"/>
  <guideline angle="90" x="1224" y="0"/>
  <guideline angle="90" x="1420" y="0"/>
</glyph>
<glyph name="Tha.dv" format="2">
  <advance width="1808"/>
  <unicode hex="0925"/>
  <anchor x="1466" y="37" name="bottom"/>
  <anchor x="1462" y="37" name="bottom2"/>
  <anchor x="1658" y="37" name="bottom3"/>
  <anchor x="1466" y="55" name="bottom5"/>
  <anchor x="1466" y="1214" name="top"/>
  <outline>
    <contour>
      <point x="1658" y="1082" type="line"/>
      <point x="1658" y="0" type="line"/>
      <point x="1274" y="0" type="line"/>
      <point x="1274" y="1082" type="line"/>
    </contour>
    <contour>
      <point x="1201" y="999" type="line"/>
      <point x="1180" y="1266" type="line"/>
      <point x="1844" y="1266" type="line"/>
      <point x="1865" y="999" type="line"/>
    </contour>
    <contour>
      <point x="1159" y="1266" type="line"/>
      <point x="1844" y="1266" type="line"/>
      <point x="1865" y="999" type="line"/>
      <point x="1181" y="999" type="line"/>
    </contour>
    <contour>
      <point x="152" y="869" type="line"/>
      <point x="134" y="904"/>
      <point x="123" y="943"/>
      <point x="123" y="990" type="curve" smooth="yes"/>
      <point x="123" y="1185"/>
      <point x="291" y="1301"/>
      <point x="615" y="1301" type="curve" smooth="yes"/>
      <point x="944" y="1301"/>
      <point x="1113" y="1153"/>
      <point x="1113" y="908" type="curve" smooth="yes"/>
      <point x="1113" y="899" type="line" smooth="yes"/>
      <point x="1113" y="639"/>
      <point x="916" y="500"/>
      <point x="504" y="500" type="curve" smooth="yes"/>
      <point x="262" y="500" type="line"/>
      <point x="113" y="749" type="line"/>
      <point x="341" y="749" type="line" smooth="yes"/>
      <point x="652" y="749"/>
      <point x="739" y="813"/>
      <point x="739" y="913" type="curve" smooth="yes"/>
      <point x="739" y="920" type="line" smooth="yes"/>
      <point x="739" y="981"/>
      <point x="702" y="1022"/>
      <point x="622" y="1022" type="curve" smooth="yes"/>
      <point x="533" y="1022"/>
      <point x="497" y="984"/>
      <point x="497" y="908" type="curve" smooth="yes"/>
      <point x="497" y="869" type="line"/>
    </contour>
    <contour>
      <point x="97" y="589" type="line" smooth="yes"/>
      <point x="97" y="639"/>
      <point x="100" y="689"/>
      <point x="113" y="749" type="curve"/>
      <point x="472" y="680" type="line"/>
      <point x="472" y="518" type="line" smooth="yes"/>
      <point x="472" y="417"/>
      <point x="581" y="376"/>
      <point x="855" y="376" type="curve" smooth="yes"/>
      <point x="1081" y="376"/>
      <point x="1234" y="441"/>
      <point x="1280" y="562" type="curve"/>
      <point x="1295" y="340" type="line"/>
      <point x="1261" y="340" type="line"/>
      <point x="1213" y="185"/>
      <point x="1062" y="74"/>
      <point x="741" y="74" type="curve" smooth="yes"/>
      <point x="328" y="74"/>
      <point x="97" y="253"/>
      <point x="97" y="582" type="curve" smooth="yes"/>
    </contour>
  </outline>
  <guideline angle="90" x="1181" y="0"/>
  <guideline angle="90" x="1466" y="0"/>
  <guideline angle="0" x="0" y="37"/>
  <guideline angle="0" x="0" y="1214"/>
  <guideline angle="90" x="1462" y="0"/>
  <guideline angle="90" x="1658" y="0"/>
</glyph>
<glyph name="Da.dv" format="2">
  <advance width="1504"/>
  <unicode hex="0926"/>
  <anchor x="1172" y="-78" name="bottom"/>
  <anchor x="919" y="-108" name="bottom2"/>
  <anchor x="1334" y="-108" name="bottom3"/>
  <anchor x="412" y="163" name="bottom4"/>
  <anchor x="772" y="-93" name="bottom5"/>
  <anchor x="1152" y="1214" name="top"/>
  <outline>
    <contour>
      <point x="879" y="999" type="line"/>
      <point x="858" y="1266" type="line"/>
      <point x="1530" y="1266" type="line"/>
      <point x="1551" y="999" type="line"/>
    </contour>
    <contour>
      <point x="1344" y="1082" type="line"/>
      <point x="1344" y="894" type="line"/>
      <point x="973" y="894" type="line"/>
      <point x="973" y="1082" type="line"/>
    </contour>
    <contour>
      <point x="-36" y="999" type="line"/>
      <point x="-57" y="1266" type="line"/>
      <point x="1540" y="1266" type="line"/>
      <point x="1561" y="999" type="line"/>
    </contour>
    <contour>
      <point x="960" y="712" type="line"/>
      <point x="960" y="1088" type="line"/>
      <point x="1344" y="1088" type="line"/>
      <point x="1344" y="593" type="line"/>
    </contour>
    <contour>
      <point x="1367" y="477" type="line"/>
      <point x="1367" y="230" type="line"/>
      <point x="1436" y="-148" type="line"/>
      <point x="1056" y="-148" type="line"/>
      <point x="1011" y="183" type="line"/>
      <point x="975" y="212" type="line"/>
      <point x="975" y="477" type="line"/>
    </contour>
    <contour>
      <point x="740" y="311" type="curve" smooth="yes"/>
      <point x="853" y="311"/>
      <point x="933" y="329"/>
      <point x="993" y="360" type="curve"/>
      <point x="1038" y="103" type="line"/>
      <point x="956" y="45"/>
      <point x="838" y="14"/>
      <point x="660" y="14" type="curve" smooth="yes"/>
      <point x="313" y="14"/>
      <point x="87" y="183"/>
      <point x="87" y="447" type="curve" smooth="yes"/>
      <point x="87" y="457" type="line" smooth="yes"/>
      <point x="87" y="737"/>
      <point x="301" y="883"/>
      <point x="739" y="883" type="curve" smooth="yes"/>
      <point x="918" y="883"/>
      <point x="1107" y="865"/>
      <point x="1344" y="833" type="curve"/>
      <point x="1344" y="593" type="line"/>
      <point x="1155" y="603"/>
      <point x="1007" y="609"/>
      <point x="828" y="609" type="curve" smooth="yes"/>
      <point x="575" y="609"/>
      <point x="485" y="562"/>
      <point x="485" y="457" type="curve" smooth="yes"/>
      <point x="485" y="452" type="line" smooth="yes"/>
      <point x="485" y="361"/>
      <point x="578" y="311"/>
    </contour>
  </outline>
  <guideline angle="0" x="0" y="-108"/>
  <guideline angle="90" x="1056" y="0"/>
  <guideline angle="0" x="0" y="-93"/>
  <guideline angle="90" x="1152" y="0"/>
</glyph>
<glyph name="NaNukta.dv" format="2">
  <advance width="1547"/>
  <unicode hex="0929"/>
  <anchor x="1205" y="37" name="bottom"/>
  <anchor x="1201" y="37" name="bottom2"/>
  <anchor x="1397" y="37" name="bottom3"/>
  <anchor x="1205" y="55" name="bottom5"/>
  <anchor x="1205" y="1214" name="top"/>
  <outline>
    <contour>
      <point x="1397" y="1082" type="line"/>
      <point x="1397" y="0" type="line"/>
      <point x="1013" y="0" type="line"/>
      <point x="1013" y="1082" type="line"/>
    </contour>
    <contour>
      <point x="940" y="999" type="line"/>
      <point x="919" y="1266" type="line"/>
      <point x="1583" y="1266" type="line"/>
      <point x="1604" y="999" type="line"/>
    </contour>
    <contour>
      <point x="1604" y="999" type="line"/>
      <point x="-47" y="999" type="line"/>
      <point x="-68" y="1266" type="line"/>
      <point x="1583" y="1266" type="line"/>
    </contour>
    <contour>
      <point x="1173" y="767" type="line"/>
      <point x="1173" y="475" type="line"/>
      <point x="397" y="475" type="line"/>
      <point x="397" y="767" type="line"/>
    </contour>
    <contour>
      <point x="249" y="183" type="line"/>
      <point x="151" y="303"/>
      <point x="80" y="465"/>
      <point x="66" y="655" type="curve"/>
      <point x="254" y="767" type="line"/>
      <point x="594" y="767" type="line"/>
      <point x="594" y="183" type="line"/>
    </contour>
    <contour>
      <point x="407" y="-267" type="curve" smooth="yes"/>
      <point x="272" y="-267"/>
      <point x="197" y="-196"/>
      <point x="197" y="-85" type="curve"/>
      <point x="197" y="-83.4533"/>
      <point x="197" y="-79.3398"/>
      <point x="197" y="-78" type="curve"/>
      <point x="197" y="34"/>
      <point x="272" y="105"/>
      <point x="407" y="105" type="curve" smooth="yes"/>
      <point x="542" y="105"/>
      <point x="615" y="32"/>
      <point x="615" y="-78" type="curve"/>
      <point x="615" y="-79.5467"/>
      <point x="615" y="-83.6602"/>
      <point x="615" y="-85" type="curve"/>
      <point x="615" y="-196"/>
      <point x="541" y="-267"/>
    </contour>
  </outline>
  <guideline angle="90" x="1205" y="0"/>
  <guideline angle="0" x="0" y="37"/>
  <guideline angle="0" x="0" y="1214"/>
  <guideline angle="90" x="1201" y="0"/>
  <guideline angle="90" x="1397" y="0"/>
</glyph>
<glyph name="Ba.dv" format="2">
  <advance width="1681"/>
  <unicode hex="092C"/>
  <anchor x="1339" y="37" name="bottom"/>
  <anchor x="1335" y="37" name="bottom2"/>
  <anchor x="1531" y="37" name="bottom3"/>
  <anchor x="1339" y="55" name="bottom5"/>
  <anchor x="1339" y="1214" name="top"/>
  <outline>
    <contour>
      <point x="1531" y="1082" type="line"/>
      <point x="1531" y="0" type="line"/>
      <point x="1147" y="0" type="line"/>
      <point x="1147" y="1082" type="line"/>
    </contour>
    <contour>
      <point x="1074" y="999" type="line"/>
      <point x="1053" y="1266" type="line"/>
      <point x="1717" y="1266" type="line"/>
      <point x="1738" y="999" type="line"/>
    </contour>
    <contour>
      <point x="-36" y="999" type="line"/>
      <point x="-57" y="1266" type="line"/>
      <point x="1617" y="1266" type="line"/>
      <point x="1638" y="999" type="line"/>
    </contour>
    <contour>
      <point x="417" y="641" type="line"/>
      <point x="557" y="758" type="line"/>
      <point x="1105" y="361" type="line"/>
      <point x="1006" y="217" type="line"/>
    </contour>
    <contour>
      <point x="84" y="479" type="curve" smooth="yes"/>
      <point x="84" y="489" type="line" smooth="yes"/>
      <point x="84" y="753"/>
      <point x="283" y="899"/>
      <point x="657" y="899" type="curve" smooth="yes"/>
      <point x="792" y="899"/>
      <point x="881" y="890"/>
      <point x="993" y="867" type="curve"/>
      <point x="1022" y="614" type="line"/>
      <point x="938" y="630"/>
      <point x="849" y="639"/>
      <point x="753" y="639" type="curve" smooth="yes"/>
      <point x="550" y="639"/>
      <point x="449" y="586"/>
      <point x="449" y="484" type="curve" smooth="yes"/>
      <point x="449" y="477" type="line" smooth="yes"/>
      <point x="449" y="376"/>
      <point x="552" y="328"/>
      <point x="762" y="328" type="curve" smooth="yes"/>
      <point x="983" y="328"/>
      <point x="1116" y="402"/>
      <point x="1155" y="518" type="curve"/>
      <point x="1168" y="276" type="line"/>
      <point x="1136" y="276" type="line"/>
      <point x="1084" y="153"/>
      <point x="961" y="57"/>
      <point x="669" y="57" type="curve" smooth="yes"/>
      <point x="303" y="57"/>
      <point x="84" y="210"/>
    </contour>
  </outline>
  <guideline angle="90" x="1339" y="0"/>
  <guideline angle="0" x="0" y="37"/>
  <guideline angle="0" x="0" y="1214"/>
  <guideline angle="90" x="1335" y="0"/>
  <guideline angle="90" x="1531" y="0"/>
</glyph>
<glyph name="Bha.dv" format="2">
  <advance width="1602"/>
  <unicode hex="092D"/>
  <anchor x="1260" y="37" name="bottom"/>
  <anchor x="1256" y="37" name="bottom2"/>
  <anchor x="1452" y="37" name="bottom3"/>
  <anchor x="1260" y="55" name="bottom5"/>
  <anchor x="1260" y="1214" name="top"/>
  <outline>
    <contour>
      <point x="1452" y="1082" type="line"/>
      <point x="1452" y="0" type="line"/>
      <point x="1068" y="0" type="line"/>
      <point x="1068" y="1082" type="line"/>
    </contour>
    <contour>
      <point x="995" y="999" type="line"/>
      <point x="974" y="1266" type="line"/>
      <point x="1638" y="1266" type="line"/>
      <point x="1659" y="999" type="line"/>
    </contour>
    <contour>
      <point x="924" y="999" type="line"/>
      <point x="902" y="1266" type="line"/>
      <point x="1538" y="1266" type="line"/>
      <point x="1559" y="999" type="line"/>
    </contour>
    <contour>
      <point x="383" y="388" type="line"/>
      <point x="383" y="673" type="line"/>
      <point x="1203" y="673" type="line"/>
      <point x="1203" y="388" type="line"/>
    </contour>
    <contour>
      <point x="244" y="158" type="line"/>
      <point x="153" y="262"/>
      <point x="84" y="400"/>
      <point x="68" y="566" type="curve"/>
      <point x="247" y="662" type="line"/>
      <point x="628" y="662" type="line"/>
      <point x="628" y="158" type="line"/>
    </contour>
    <contour>
      <point x="247" y="525" type="line"/>
      <point x="247" y="856" type="line" smooth="yes"/>
      <point x="247" y="963"/>
      <point x="217" y="999"/>
      <point x="114" y="999" type="curve" smooth="yes"/>
      <point x="-36" y="999" type="line"/>
      <point x="-57" y="1266" type="line"/>
      <point x="187" y="1266" type="line" smooth="yes"/>
      <point x="514" y="1266"/>
      <point x="628" y="1148"/>
      <point x="628" y="863" type="curve" smooth="yes"/>
      <point x="628" y="525" type="line"/>
    </contour>
  </outline>
  <guideline angle="90" x="924" y="0"/>
  <guideline angle="90" x="1260" y="0"/>
  <guideline angle="0" x="0" y="37"/>
  <guideline angle="0" x="0" y="1214"/>
  <guideline angle="90" x="1256" y="0"/>
  <guideline angle="90" x="1452" y="0"/>
</glyph>
<glyph name="Ma.dv" format="2">
  <advance width="1629"/>
  <unicode hex="092E"/>
  <anchor x="1287" y="37" name="bottom"/>
  <anchor x="1283" y="37" name="bottom2"/>
  <anchor x="1479" y="37" name="bottom3"/>
  <anchor x="1287" y="55" name="bottom5"/>
  <anchor x="1287" y="1214" name="top"/>
  <outline>
    <contour>
      <point x="1479" y="1082" type="line"/>
      <point x="1479" y="0" type="line"/>
      <point x="1095" y="0" type="line"/>
      <point x="1095" y="1082" type="line"/>
    </contour>
    <contour>
      <point x="1022" y="999" type="line"/>
      <point x="1001" y="1266" type="line"/>
      <point x="1665" y="1266" type="line"/>
      <point x="1686" y="999" type="line"/>
    </contour>
    <contour>
      <point x="1686" y="999" type="line"/>
      <point x="-36" y="999" type="line"/>
      <point x="-57" y="1266" type="line"/>
      <point x="1665" y="1266" type="line"/>
    </contour>
    <contour>
      <point x="1234" y="673" type="line"/>
      <point x="1234" y="388" type="line"/>
      <point x="388" y="388" type="line"/>
      <point x="388" y="673" type="line"/>
    </contour>
    <contour>
      <point x="628" y="1088" type="line"/>
      <point x="628" y="516" type="line"/>
      <point x="247" y="516" type="line"/>
      <point x="247" y="1088" type="line"/>
    </contour>
    <contour>
      <point x="247" y="146" type="line"/>
      <point x="158" y="251"/>
      <point x="89" y="393"/>
      <point x="73" y="562" type="curve"/>
      <point x="249" y="659" type="line"/>
      <point x="628" y="659" type="line"/>
      <point x="628" y="146" type="line"/>
    </contour>
  </outline>
  <guideline angle="90" x="1287" y="0"/>
  <guideline angle="0" x="0" y="37"/>
  <guideline angle="0" x="0" y="1214"/>
  <guideline angle="90" x="1283" y="0"/>
  <guideline angle="90" x="1479" y="0"/>
</glyph>
<glyph name="Ya.dv" format="2">
  <advance width="1667"/>
  <unicode hex="092F"/>
  <anchor x="1325" y="37" name="bottom"/>
  <anchor x="1321" y="37" name="bottom2"/>
  <anchor x="1517" y="37" name="bottom3"/>
  <anchor x="1325" y="55" name="bottom5"/>
  <anchor x="1325" y="1214" name="top"/>
  <outline>
    <contour>
      <point x="1517" y="1082" type="line"/>
      <point x="1517" y="0" type="line"/>
      <point x="1133" y="0" type="line"/>
      <point x="1133" y="1082" type="line"/>
    </contour>
    <contour>
      <point x="1060" y="999" type="line"/>
      <point x="1039" y="1266" type="line"/>
      <point x="1703" y="1266" type="line"/>
      <point x="1724" y="999" type="line"/>
    </contour>
    <contour>
      <point x="-57" y="1266" type="line"/>
      <point x="1702" y="1266" type="line"/>
      <point x="1723" y="999" type="line"/>
      <point x="-36" y="999" type="line"/>
    </contour>
    <contour>
      <point x="749" y="1059" type="line"/>
      <point x="829" y="991"/>
      <point x="865" y="913"/>
      <point x="865" y="819" type="curve" smooth="yes"/>
      <point x="865" y="812" type="line" smooth="yes"/>
      <point x="865" y="637"/>
      <point x="726" y="534"/>
      <point x="397" y="522" type="curve" smooth="yes"/>
      <point x="214" y="514" type="line"/>
      <point x="100" y="742" type="line"/>
      <point x="167" y="742" type="line" smooth="yes"/>
      <point x="406" y="742"/>
      <point x="470" y="796"/>
      <point x="470" y="890" type="curve" smooth="yes"/>
      <point x="470" y="894" type="line" smooth="yes"/>
      <point x="470" y="952"/>
      <point x="445" y="1009"/>
      <point x="349" y="1059" type="curve"/>
    </contour>
    <contour>
      <point x="87" y="587" type="line" smooth="yes"/>
      <point x="87" y="637"/>
      <point x="91" y="680"/>
      <point x="100" y="742" type="curve"/>
      <point x="454" y="667" type="line"/>
      <point x="454" y="545" type="line" smooth="yes"/>
      <point x="454" y="456"/>
      <point x="543" y="400"/>
      <point x="776" y="400" type="curve" smooth="yes"/>
      <point x="1002" y="400"/>
      <point x="1111" y="459"/>
      <point x="1139" y="545" type="curve"/>
      <point x="1153" y="333" type="line"/>
      <point x="1121" y="333" type="line"/>
      <point x="1079" y="203"/>
      <point x="949" y="98"/>
      <point x="673" y="98" type="curve" smooth="yes"/>
      <point x="301" y="98"/>
      <point x="87" y="269"/>
      <point x="87" y="578" type="curve" smooth="yes"/>
    </contour>
  </outline>
  <guideline angle="90" x="95" y="0"/>
  <guideline angle="90" x="1325" y="0"/>
  <guideline angle="0" x="0" y="37"/>
  <guideline angle="0" x="0" y="1214"/>
  <guideline angle="90" x="1321" y="0"/>
  <guideline angle="90" x="1517" y="0"/>
</glyph>
<glyph name="Ra.dv" format="2">
  <advance width="1129"/>
  <unicode hex="0930"/>
  <anchor x="540" y="37" name="bottom2"/>
  <anchor x="1185" y="37" name="bottom3"/>
  <anchor x="557" y="55" name="bottom5"/>
  <anchor x="673" y="1214" name="top"/>
  <outline>
    <contour>
      <point x="1196" y="999" type="line"/>
      <point x="-36" y="999" type="line"/>
      <point x="-57" y="1266" type="line"/>
      <point x="1175" y="1266" type="line"/>
    </contour>
    <contour>
      <point x="1043" y="0" type="line"/>
      <point x="538" y="0" type="line"/>
      <point x="216" y="370" type="line"/>
      <point x="75" y="388" type="line"/>
      <point x="75" y="687" type="line"/>
      <point x="525" y="530" type="line"/>
      <point x="525" y="411" type="line"/>
      <point x="657" y="355"/>
      <point x="734" y="309"/>
      <point x="850" y="200" type="curve" smooth="yes"/>
      <point x="1043" y="20" type="line"/>
    </contour>
    <contour>
      <point x="883" y="1068" type="line"/>
      <point x="983" y="988"/>
      <point x="1027" y="895"/>
      <point x="1027" y="785" type="curve" smooth="yes"/>
      <point x="1027" y="775" type="line" smooth="yes"/>
      <point x="1027" y="567"/>
      <point x="850" y="419"/>
      <point x="425" y="409" type="curve" smooth="yes"/>
      <point x="294" y="406" type="line"/>
      <point x="75" y="687" type="line"/>
      <point x="235" y="687" type="line" smooth="yes"/>
      <point x="536" y="687"/>
      <point x="635" y="740"/>
      <point x="635" y="847" type="curve" smooth="yes"/>
      <point x="635" y="853" type="line" smooth="yes"/>
      <point x="635" y="931"/>
      <point x="596" y="997"/>
      <point x="488" y="1068" type="curve"/>
    </contour>
  </outline>
  <guideline angle="0" x="0" y="1214"/>
  <guideline angle="0" x="0" y="55"/>
</glyph>
<glyph name="La.dv" format="2">
  <advance width="1918"/>
  <unicode hex="0932"/>
  <anchor x="1576" y="37" name="bottom"/>
  <anchor x="1572" y="37" name="bottom2"/>
  <anchor x="1768" y="37" name="bottom3"/>
  <anchor x="1576" y="55" name="bottom5"/>
  <anchor x="1576" y="1214" name="top"/>
  <outline>
    <contour>
      <point x="1768" y="1082" type="line"/>
      <point x="1768" y="0" type="line"/>
      <point x="1384" y="0" type="line"/>
      <point x="1384" y="1082" type="line"/>
    </contour>
    <contour>
      <point x="1311" y="999" type="line"/>
      <point x="1290" y="1266" type="line"/>
      <point x="1954" y="1266" type="line"/>
      <point x="1975" y="999" type="line"/>
    </contour>
    <contour>
      <point x="-36" y="999" type="line"/>
      <point x="-57" y="1266" type="line"/>
      <point x="1954" y="1266" type="line"/>
      <point x="1975" y="999" type="line"/>
    </contour>
    <contour>
      <point x="578" y="858" type="curve" smooth="yes"/>
      <point x="787" y="858"/>
      <point x="902" y="785"/>
      <point x="943" y="657" type="curve"/>
      <point x="952" y="657" type="line"/>
      <point x="990" y="783"/>
      <point x="1100" y="854"/>
      <point x="1248" y="854" type="curve" smooth="yes"/>
      <point x="1314" y="854"/>
      <point x="1362" y="842"/>
      <point x="1399" y="821" type="curve"/>
      <point x="1397" y="473" type="line"/>
      <point x="1381" y="530"/>
      <point x="1340" y="559"/>
      <point x="1280" y="559" type="curve" smooth="yes"/>
      <point x="1196" y="559"/>
      <point x="1159" y="516"/>
      <point x="1152" y="417" type="curve" smooth="yes"/>
      <point x="1139" y="221" type="line"/>
      <point x="778" y="221" type="line"/>
      <point x="765" y="415" type="line" smooth="yes"/>
      <point x="758" y="514"/>
      <point x="723" y="561"/>
      <point x="632" y="561" type="curve" smooth="yes"/>
      <point x="538" y="561"/>
      <point x="489" y="504"/>
      <point x="489" y="404" type="curve" smooth="yes"/>
      <point x="489" y="263"/>
      <point x="583" y="151"/>
      <point x="740" y="7" type="curve"/>
      <point x="740" y="0" type="line"/>
      <point x="304" y="0" type="line"/>
      <point x="171" y="116"/>
      <point x="91" y="256"/>
      <point x="91" y="429" type="curve" smooth="yes"/>
      <point x="91" y="691"/>
      <point x="271" y="858"/>
    </contour>
  </outline>
  <guideline angle="0" x="0" y="482"/>
  <guideline angle="90" x="70" y="0"/>
  <guideline angle="90" x="1576" y="0"/>
  <guideline angle="0" x="0" y="37"/>
  <guideline angle="0" x="0" y="1214"/>
  <guideline angle="90" x="1572" y="0"/>
  <guideline angle="90" x="1768" y="0"/>
</glyph>
<glyph name="Va.dv" format="2">
  <advance width="1622"/>
  <unicode hex="0935"/>
  <anchor x="1280" y="37" name="bottom"/>
  <anchor x="1276" y="37" name="bottom2"/>
  <anchor x="1472" y="37" name="bottom3"/>
  <anchor x="1280" y="55" name="bottom5"/>
  <anchor x="1280" y="1214" name="top"/>
  <outline>
    <contour>
      <point x="1472" y="1082" type="line"/>
      <point x="1472" y="0" type="line"/>
      <point x="1088" y="0" type="line"/>
      <point x="1088" y="1082" type="line"/>
    </contour>
    <contour>
      <point x="1015" y="999" type="line"/>
      <point x="994" y="1266" type="line"/>
      <point x="1658" y="1266" type="line"/>
      <point x="1679" y="999" type="line"/>
    </contour>
    <contour>
      <point x="-35" y="999" type="line"/>
      <point x="-56" y="1266" type="line"/>
      <point x="1658" y="1266" type="line"/>
      <point x="1679" y="999" type="line"/>
    </contour>
    <contour>
      <point x="84" y="477" type="curve" smooth="yes"/>
      <point x="84" y="486" type="line" smooth="yes"/>
      <point x="84" y="756"/>
      <point x="283" y="894"/>
      <point x="637" y="894" type="curve" smooth="yes"/>
      <point x="756" y="894"/>
      <point x="845" y="885"/>
      <point x="936" y="863" type="curve"/>
      <point x="961" y="586" type="line"/>
      <point x="899" y="595"/>
      <point x="828" y="600"/>
      <point x="751" y="600" type="curve" smooth="yes"/>
      <point x="559" y="600"/>
      <point x="482" y="564"/>
      <point x="482" y="488" type="curve" smooth="yes"/>
      <point x="482" y="482" type="line" smooth="yes"/>
      <point x="482" y="408"/>
      <point x="554" y="370"/>
      <point x="746" y="370" type="curve" smooth="yes"/>
      <point x="951" y="370"/>
      <point x="1068" y="422"/>
      <point x="1096" y="506" type="curve"/>
      <point x="1109" y="292" type="line"/>
      <point x="1075" y="292" type="line"/>
      <point x="1031" y="153"/>
      <point x="895" y="68"/>
      <point x="632" y="68" type="curve" smooth="yes"/>
      <point x="288" y="68"/>
      <point x="84" y="221"/>
    </contour>
  </outline>
  <guideline angle="90" x="1280" y="0"/>
  <guideline angle="0" x="0" y="37"/>
  <guideline angle="0" x="0" y="1214"/>
  <guideline angle="90" x="1276" y="0"/>
  <guideline angle="90" x="1472" y="0"/>
</glyph>
<glyph name="Sha.dv" format="2">
  <advance width="1987"/>
  <unicode hex="0936"/>
  <anchor x="1645" y="37" name="bottom"/>
  <anchor x="1641" y="37" name="bottom2"/>
  <anchor x="1837" y="37" name="bottom3"/>
  <anchor x="1645" y="55" name="bottom5"/>
  <anchor x="1645" y="1214" name="top"/>
  <outline>
    <contour>
      <point x="1837" y="1082" type="line"/>
      <point x="1837" y="0" type="line"/>
      <point x="1453" y="0" type="line"/>
      <point x="1453" y="1082" type="line"/>
    </contour>
    <contour>
      <point x="1380" y="999" type="line"/>
      <point x="1359" y="1266" type="line"/>
      <point x="2023" y="1266" type="line"/>
      <point x="2044" y="999" type="line"/>
    </contour>
    <contour>
      <point x="1303" y="1266" type="line"/>
      <point x="2023" y="1266" type="line"/>
      <point x="2044" y="999" type="line"/>
      <point x="1324" y="999" type="line"/>
    </contour>
    <contour>
      <point x="1198" y="0" type="line"/>
      <point x="648" y="0" type="line"/>
      <point x="295" y="328" type="line"/>
      <point x="98" y="347" type="line"/>
      <point x="98" y="639" type="line"/>
      <point x="647" y="502" type="line"/>
      <point x="647" y="360" type="line"/>
      <point x="801" y="318"/>
      <point x="901.378" y="263.244"/>
      <point x="1010" y="176" type="curve" smooth="yes"/>
      <point x="1198" y="25" type="line"/>
    </contour>
    <contour>
      <point x="1242" y="833" type="curve" smooth="yes"/>
      <point x="1242" y="824" type="line" smooth="yes"/>
      <point x="1242" y="527"/>
      <point x="1004" y="363"/>
      <point x="568" y="361" type="curve" smooth="yes"/>
      <point x="476" y="361"/>
      <point x="347" y="361"/>
      <point x="283" y="361" type="curve"/>
      <point x="98" y="639" type="line"/>
      <point x="214" y="630"/>
      <point x="290" y="626"/>
      <point x="403" y="626" type="curve" smooth="yes"/>
      <point x="733" y="626"/>
      <point x="844" y="708"/>
      <point x="844" y="849" type="curve" smooth="yes"/>
      <point x="844" y="854" type="line" smooth="yes"/>
      <point x="844" y="952"/>
      <point x="789" y="1006"/>
      <point x="684" y="1006" type="curve" smooth="yes"/>
      <point x="582" y="1006"/>
      <point x="527" y="954"/>
      <point x="527" y="870" type="curve" smooth="yes"/>
      <point x="527" y="867" type="line" smooth="yes"/>
      <point x="527" y="824"/>
      <point x="540" y="787"/>
      <point x="563" y="748" type="curve"/>
      <point x="196" y="748" type="line"/>
      <point x="161" y="803"/>
      <point x="143" y="862"/>
      <point x="143" y="929" type="curve" smooth="yes"/>
      <point x="143" y="933" type="line" smooth="yes"/>
      <point x="143" y="1159"/>
      <point x="333" y="1301"/>
      <point x="670" y="1301" type="curve" smooth="yes"/>
      <point x="1040" y="1301"/>
      <point x="1242" y="1116"/>
    </contour>
  </outline>
  <guideline angle="90" x="1324" y="0"/>
  <guideline angle="90" x="1645" y="0"/>
  <guideline angle="0" x="0" y="37"/>
  <guideline angle="0" x="0" y="1214"/>
  <guideline angle="90" x="1641" y="0"/>
  <guideline angle="90" x="1837" y="0"/>
</glyph>
<glyph name="uni093A" format="2">
  <unicode hex="093A"/>
  <anchor x="-342" y="1214" name="_top"/>
  <outline>
    <contour>
      <point x="-514" y="1711" type="line"/>
      <point x="-174" y="1711" type="line"/>
      <point x="-174" y="1230" type="line"/>
      <point x="-514" y="1230" type="line"/>
    </contour>
  </outline>
  <guideline angle="90" x="-300" y="0"/>
  <guideline angle="90" x="-84" y="0"/>
</glyph>
<glyph name="uni093B" format="2">
  <advance width="684"/>
  <unicode hex="093B"/>
  <outline>
    <contour>
      <point x="534" y="0" type="line"/>
      <point x="150" y="0" type="line"/>
      <point x="150" y="1082" type="line"/>
      <point x="534" y="1082" type="line"/>
    </contour>
    <contour>
      <point x="741" y="999" type="line"/>
      <point x="-36" y="999" type="line"/>
      <point x="-57" y="1266" type="line"/>
      <point x="720" y="1266" type="line"/>
    </contour>
    <contour>
      <point x="169" y="1711" type="line"/>
      <point x="509" y="1711" type="line"/>
      <point x="509" y="1230" type="line"/>
      <point x="169" y="1230" type="line"/>
    </contour>
  </outline>
  <guideline angle="90" x="84" y="0"/>
</glyph>
<glyph name="Chandra.dv" format="2">
  <unicode hex="0945"/>
  <anchor x="-342" y="1214" name="_top"/>
  <outline>
    <contour>
      <point x="148" y="1794" type="line"/>
      <point x="151" y="1770"/>
      <point x="151" y="1751"/>
      <point x="151" y="1741" type="curve" smooth="yes"/>
      <point x="151" y="1497"/>
      <point x="-12" y="1371"/>
      <point x="-342" y="1371" type="curve" smooth="yes"/>
      <point x="-671" y="1371"/>
      <point x="-836" y="1497"/>
      <point x="-836" y="1741" type="curve" smooth="yes"/>
      <point x="-836" y="1751"/>
      <point x="-836" y="1769"/>
      <point x="-833" y="1794" type="curve"/>
      <point x="-520" y="1794" type="line"/>
      <point x="-520" y="1787.99"/>
      <point x="-520" y="1771.5"/>
      <point x="-520" y="1768" type="curve" smooth="yes"/>
      <point x="-520" y="1666"/>
      <point x="-464" y="1616"/>
      <point x="-342" y="1616" type="curve" smooth="yes"/>
      <point x="-219" y="1616"/>
      <point x="-164" y="1668"/>
      <point x="-164" y="1768" type="curve" smooth="yes"/>
      <point x="-164" y="1771.83"/>
      <point x="-164" y="1789.33"/>
      <point x="-164" y="1794" type="curve"/>
    </contour>
  </outline>
  <guideline angle="0" x="0" y="-18"/>
  <guideline angle="90" x="-342" y="0"/>
  <guideline angle="0" x="0" y="1214"/>
</glyph>
<glyph name="matraE.dv" format="2">
  <unicode hex="0947"/>
  <anchor x="-342" y="1214" name="_top"/>
  <outline>
    <contour>
      <point x="-1339" y="1798" type="line"/>
      <point x="-833" y="1798" type="line"/>
      <point x="-704.693" y="1690.21"/>
      <point x="-310.477" y="1359.05"/>
      <point x="-189" y="1257" type="curve"/>
      <point x="-189" y="1214" type="line"/>
      <point x="-555" y="1214" type="line"/>
      <point x="-555" y="1278" type="line"/>
      <point x="-813" y="1344"/>
      <point x="-913" y="1417"/>
      <point x="-1125" y="1586" type="curve" smooth="yes"/>
      <point x="-1339" y="1757" type="line"/>
    </contour>
  </outline>
  <guideline angle="0" x="0" y="-208"/>
  <guideline angle="0" x="0" y="644"/>
  <guideline angle="90" x="-342" y="0"/>
  <guideline angle="0" x="0" y="1214"/>
</glyph>
<glyph name="matraO.dv" format="2">
  <advance width="684"/>
  <unicode hex="094B"/>
  <outline>
    <contour>
      <point x="534" y="0" type="line"/>
      <point x="150" y="0" type="line"/>
      <point x="150" y="1082" type="line"/>
      <point x="534" y="1082" type="line"/>
    </contour>
    <contour>
      <point x="741" y="999" type="line"/>
      <point x="-36" y="999" type="line"/>
      <point x="-57" y="1266" type="line"/>
      <point x="720" y="1266" type="line"/>
    </contour>
    <contour>
      <point x="-653" y="1798" type="line"/>
      <point x="-147" y="1798" type="line"/>
      <point x="-18.6927" y="1690.21"/>
      <point x="375.523" y="1359.05"/>
      <point x="497" y="1257" type="curve"/>
      <point x="497" y="1214" type="line"/>
      <point x="131" y="1214" type="line"/>
      <point x="131" y="1278" type="line"/>
      <point x="-127" y="1344"/>
      <point x="-227" y="1417"/>
      <point x="-439" y="1586" type="curve" smooth="yes"/>
      <point x="-653" y="1757" type="line"/>
    </contour>
  </outline>
  <guideline angle="90" x="129" y="0"/>
</glyph>
<glyph name="Halant.dv" format="2">
  <unicode hex="094D"/>
  <anchor x="-342" y="37" name="_bottom2"/>
  <outline>
    <contour>
      <point x="-577" y="-146" type="line"/>
      <point x="-150" y="-146" type="line"/>
      <point x="266" y="-607" type="line"/>
      <point x="266" y="-621" type="line"/>
      <point x="-107" y="-621" type="line"/>
      <point x="-577" y="-182" type="line"/>
    </contour>
  </outline>
  <guideline angle="90" x="-342" y="0"/>
  <guideline angle="90" x="-150" y="0"/>
  <guideline angle="0" x="0" y="37"/>
  <guideline angle="90" x="-346" y="0"/>
</glyph>
<glyph name="uni0953" format="2">
  <unicode hex="0953"/>
  <anchor x="-342" y="1214" name="_top"/>
  <outline>
    <contour>
      <point x="-566" y="1370" type="line"/>
      <point x="-959" y="1775" type="line"/>
      <point x="-959" y="1796" type="line"/>
      <point x="-509" y="1796" type="line"/>
      <point x="-198" y="1384" type="line"/>
      <point x="-198" y="1370" type="line"/>
    </contour>
  </outline>
  <guideline angle="90" x="-342" y="0"/>
  <guideline angle="0" x="0" y="1214"/>
</glyph>
<glyph name="uni0954" format="2">
  <unicode hex="0954"/>
  <anchor x="-342" y="1214" name="_top"/>
  <outline>
    <contour>
      <point x="-142" y="1370" type="line"/>
      <point x="-511" y="1370" type="line"/>
      <point x="-511" y="1384" type="line"/>
      <point x="-199" y="1797" type="line"/>
      <point x="251" y="1797" type="line"/>
      <point x="251" y="1776" type="line"/>
    </contour>
  </outline>
  <guideline angle="0" x="0" y="1214"/>
  <guideline angle="90" x="-342" y="0"/>
  <guideline angle="90" x="-511" y="0"/>
</glyph>
<glyph name="uni0957" format="2">
  <unicode hex="0957"/>
  <anchor x="-342" y="55" name="_bottom5"/>
  <outline>
    <contour>
      <point x="-342" y="-468" type="curve" smooth="yes"/>
      <point x="-571.634" y="-468"/>
      <point x="-750.672" y="-429.286"/>
      <point x="-875" y="-369" type="curve"/>
      <point x="-887" y="-101" type="line"/>
      <point x="-735" y="-171"/>
      <point x="-549" y="-212"/>
      <point x="-342" y="-212" type="curve" smooth="yes"/>
      <point x="-135" y="-212"/>
      <point x="51" y="-171"/>
      <point x="203" y="-101" type="curve"/>
      <point x="191" y="-369" type="line"/>
      <point x="67.6716" y="-428.286"/>
      <point x="-112.366" y="-468"/>
    </contour>
    <contour>
      <point x="-342" y="-846" type="curve" smooth="yes"/>
      <point x="-571.634" y="-846"/>
      <point x="-750.672" y="-807.286"/>
      <point x="-875" y="-747" type="curve"/>
      <point x="-887" y="-479" type="line"/>
      <point x="-735" y="-549"/>
      <point x="-549" y="-590"/>
      <point x="-342" y="-590" type="curve" smooth="yes"/>
      <point x="-135" y="-590"/>
      <point x="51" y="-549"/>
      <point x="203" y="-479" type="curve"/>
      <point x="191" y="-747" type="line"/>
      <point x="67.6716" y="-806.286"/>
      <point x="-112.366" y="-846"/>
    </contour>
  </outline>
  <guideline angle="90" x="-342" y="0"/>
  <guideline angle="0" x="0" y="37"/>
</glyph>
<glyph name="PhaNukta.dv" format="2">
  <advance width="2201"/>
  <unicode hex="095E"/>
  <anchor x="1113" y="37" name="bottom"/>
  <anchor x="1109" y="37" name="bottom2"/>
  <anchor x="1687" y="37" name="bottom3"/>
  <anchor x="1113" y="55" name="bottom5"/>
  <anchor x="1113" y="1214" name="top"/>
  <outline>
    <contour>
      <point x="-36" y="999" type="line"/>
      <point x="-57" y="1266" type="line"/>
      <point x="2236" y="1266" type="line"/>
      <point x="2257" y="999" type="line"/>
    </contour>
    <contour>
      <point x="573" y="222" type="curve" smooth="yes"/>
      <point x="308" y="222"/>
      <point x="137" y="356"/>
      <point x="137" y="680" type="curve" smooth="yes"/>
      <point x="137" y="1080" type="line"/>
      <point x="521" y="1080" type="line"/>
      <point x="521" y="726" type="line" smooth="yes"/>
      <point x="521" y="573"/>
      <point x="589" y="525"/>
      <point x="728" y="525" type="curve" smooth="yes"/>
      <point x="833" y="525"/>
      <point x="902" y="568"/>
      <point x="926" y="627" type="curve"/>
      <point x="940" y="429" type="line"/>
      <point x="908" y="429" type="line"/>
      <point x="872" y="306"/>
      <point x="767" y="222"/>
    </contour>
    <contour>
      <point x="1554" y="602" type="curve" smooth="yes"/>
      <point x="1428" y="602"/>
      <point x="1333" y="550"/>
      <point x="1292" y="470" type="curve"/>
      <point x="1282" y="682" type="line"/>
      <point x="1315" y="682" type="line"/>
      <point x="1367" y="808"/>
      <point x="1485" y="894"/>
      <point x="1695" y="894" type="curve" smooth="yes"/>
      <point x="1967" y="894"/>
      <point x="2124" y="728"/>
      <point x="2124" y="484" type="curve" smooth="yes"/>
      <point x="2124" y="475" type="line" smooth="yes"/>
      <point x="2124" y="215"/>
      <point x="1963" y="75"/>
      <point x="1663" y="75" type="curve" smooth="yes"/>
      <point x="1583" y="75"/>
      <point x="1515" y="82"/>
      <point x="1461" y="96" type="curve"/>
      <point x="1438" y="376" type="line"/>
      <point x="1474" y="368"/>
      <point x="1511" y="363"/>
      <point x="1557" y="363" type="curve" smooth="yes"/>
      <point x="1682" y="363"/>
      <point x="1735" y="402"/>
      <point x="1735" y="481" type="curve" smooth="yes"/>
      <point x="1735" y="484" type="line" smooth="yes"/>
      <point x="1735" y="557"/>
      <point x="1684" y="602"/>
    </contour>
    <contour>
      <point x="1305" y="1082" type="line"/>
      <point x="1305" y="0" type="line"/>
      <point x="921" y="0" type="line"/>
      <point x="921" y="1082" type="line"/>
    </contour>
    <contour>
      <point x="372" y="-203" type="curve" smooth="yes"/>
      <point x="237" y="-203"/>
      <point x="162" y="-132"/>
      <point x="162" y="-21" type="curve"/>
      <point x="162" y="-19.4533"/>
      <point x="162" y="-15.3398"/>
      <point x="162" y="-14" type="curve"/>
      <point x="162" y="98"/>
      <point x="237" y="169"/>
      <point x="372" y="169" type="curve" smooth="yes"/>
      <point x="507" y="169"/>
      <point x="580" y="96"/>
      <point x="580" y="-14" type="curve"/>
      <point x="580" y="-15.5467"/>
      <point x="580" y="-19.6602"/>
      <point x="580" y="-21" type="curve"/>
      <point x="580" y="-132"/>
      <point x="506" y="-203"/>
    </contour>
  </outline>
  <guideline angle="90" x="178" y="0"/>
  <guideline angle="0" x="0" y="-101"/>
  <guideline angle="90" x="1113" y="0"/>
  <guideline angle="0" x="0" y="37"/>
  <guideline angle="0" x="0" y="1214"/>
  <guideline angle="90" x="1109" y="0"/>
  <guideline angle="90" x="1305" y="0"/>
  <guideline angle="0" x="0" y="55"/>
</glyph>
<glyph name="vowelLruu.dv" format="2">
  <advance width="1893"/>
  <unicode hex="0961"/>
  <anchor x="1566" y="-544" name="bottom3"/>
  <anchor x="1369" y="1214" name="top"/>
  <outline>
    <contour>
      <point x="1807" y="472" type="line"/>
      <point x="1807" y="461" type="line" smooth="yes"/>
      <point x="1807" y="324.803"/>
      <point x="1759.89" y="243.611"/>
      <point x="1649.5" y="161" type="curve" smooth="yes"/>
      <point x="1526.96" y="69.3025"/>
      <point x="1498" y="49.0541"/>
      <point x="1498" y="9" type="curve" smooth="yes"/>
      <point x="1498" y="-23"/>
      <point x="1529" y="-44"/>
      <point x="1606" y="-44" type="curve" smooth="yes"/>
      <point x="1697" y="-44"/>
      <point x="1768" y="-20"/>
      <point x="1832" y="16" type="curve"/>
      <point x="1814" y="-247" type="line"/>
      <point x="1745" y="-279"/>
      <point x="1649" y="-297"/>
      <point x="1549" y="-297" type="curve" smooth="yes"/>
      <point x="1286" y="-297"/>
      <point x="1118" y="-174"/>
      <point x="1118" y="-7" type="curve" smooth="yes"/>
      <point x="1118" y="95.5659"/>
      <point x="1155.69" y="159.249"/>
      <point x="1282.2" y="255" type="curve" smooth="yes"/>
      <point x="1374.84" y="325.111"/>
      <point x="1413" y="366.508"/>
      <point x="1413" y="434" type="curve" smooth="yes"/>
      <point x="1413" y="449" type="line"/>
    </contour>
    <contour>
      <point x="1517" y="-288" type="line"/>
      <point x="1473" y="-297"/>
      <point x="1447" y="-318"/>
      <point x="1447" y="-350" type="curve" smooth="yes"/>
      <point x="1447" y="-389"/>
      <point x="1481" y="-418"/>
      <point x="1578" y="-418" type="curve" smooth="yes"/>
      <point x="1670" y="-418"/>
      <point x="1749" y="-398"/>
      <point x="1834" y="-361" type="curve"/>
      <point x="1821" y="-613" type="line"/>
      <point x="1761" y="-644"/>
      <point x="1655" y="-666"/>
      <point x="1538" y="-666" type="curve" smooth="yes"/>
      <point x="1282" y="-666"/>
      <point x="1118" y="-576"/>
      <point x="1118" y="-418" type="curve" smooth="yes"/>
      <point x="1118" y="-331"/>
      <point x="1173" y="-271"/>
      <point x="1273" y="-246" type="curve"/>
      <point x="1273" y="-214" type="line"/>
    </contour>
    <contour>
      <point x="1096" y="999" type="line"/>
      <point x="1075" y="1266" type="line"/>
      <point x="1747" y="1266" type="line"/>
      <point x="1768" y="999" type="line"/>
    </contour>
    <contour>
      <point x="1561" y="1082" type="line"/>
      <point x="1561" y="894" type="line"/>
      <point x="1190" y="894" type="line"/>
      <point x="1190" y="1082" type="line"/>
    </contour>
    <contour>
      <point x="-36" y="999" type="line"/>
      <point x="-57" y="1266" type="line"/>
      <point x="1928" y="1266" type="line"/>
      <point x="1950" y="999" type="line"/>
    </contour>
    <contour>
      <point x="1561" y="1050" type="line"/>
      <point x="1561" y="801" type="line"/>
      <point x="1189" y="801" type="line"/>
      <point x="1189" y="1050" type="line"/>
    </contour>
    <contour>
      <point x="91" y="408" type="curve" smooth="yes"/>
      <point x="91" y="417" type="line" smooth="yes"/>
      <point x="91" y="687"/>
      <point x="269" y="858"/>
      <point x="579" y="858" type="curve" smooth="yes"/>
      <point x="806" y="858"/>
      <point x="910" y="776"/>
      <point x="954" y="659" type="curve"/>
      <point x="963" y="659" type="line"/>
      <point x="1006" y="776"/>
      <point x="1118" y="858"/>
      <point x="1340" y="858" type="curve" smooth="yes"/>
      <point x="1652" y="858"/>
      <point x="1807" y="684"/>
      <point x="1807" y="470" type="curve" smooth="yes"/>
      <point x="1807" y="459" type="line"/>
      <point x="1413" y="433" type="line"/>
      <point x="1413" y="441" type="line" smooth="yes"/>
      <point x="1413" y="506"/>
      <point x="1374" y="559"/>
      <point x="1289" y="559" type="curve" smooth="yes"/>
      <point x="1203" y="559"/>
      <point x="1161" y="518"/>
      <point x="1153" y="409" type="curve" smooth="yes"/>
      <point x="1143" y="247" type="line"/>
      <point x="778" y="247" type="line"/>
      <point x="767" y="409" type="line" smooth="yes"/>
      <point x="760" y="518"/>
      <point x="728" y="559"/>
      <point x="635" y="559" type="curve" smooth="yes"/>
      <point x="543" y="559"/>
      <point x="488" y="498"/>
      <point x="488" y="402" type="curve" smooth="yes"/>
      <point x="488" y="395" type="line" smooth="yes"/>
      <point x="488" y="256"/>
      <point x="575" y="141"/>
      <point x="742" y="7" type="curve"/>
      <point x="742" y="0" type="line"/>
      <point x="301" y="0" type="line"/>
      <point x="162" y="109"/>
      <point x="91" y="262"/>
    </contour>
  </outline>
  <guideline angle="90" x="1369" y="0"/>
</glyph>
<glyph name="matraLru.dv" format="2">
  <unicode hex="0962"/>
  <outline>
    <contour>
      <point x="5" y="-262" type="line"/>
      <point x="5" y="-267" type="line" smooth="yes"/>
      <point x="5" y="-358"/>
      <point x="-37" y="-422"/>
      <point x="-116" y="-482" type="curve" smooth="yes"/>
      <point x="-204" y="-549"/>
      <point x="-225" y="-564"/>
      <point x="-225" y="-596" type="curve" smooth="yes"/>
      <point x="-225" y="-624"/>
      <point x="-197" y="-641"/>
      <point x="-143" y="-641" type="curve" smooth="yes"/>
      <point x="-84" y="-641"/>
      <point x="-36" y="-624"/>
      <point x="5" y="-601" type="curve"/>
      <point x="-11" y="-824" type="line"/>
      <point x="-63" y="-845"/>
      <point x="-120" y="-856"/>
      <point x="-200" y="-856" type="curve" smooth="yes"/>
      <point x="-396" y="-856"/>
      <point x="-524" y="-770"/>
      <point x="-524" y="-628" type="curve" smooth="yes"/>
      <point x="-524" y="-544"/>
      <point x="-496" y="-493"/>
      <point x="-417" y="-425" type="curve" smooth="yes"/>
      <point x="-347" y="-364"/>
      <point x="-323" y="-338"/>
      <point x="-323" y="-288" type="curve"/>
      <point x="-323" y="-286" type="line"/>
    </contour>
    <contour>
      <point x="-789" y="-418" type="line"/>
      <point x="-796" y="-304" type="line" smooth="yes"/>
      <point x="-800" y="-231"/>
      <point x="-823" y="-201"/>
      <point x="-878" y="-201" type="curve" smooth="yes"/>
      <point x="-935" y="-201"/>
      <point x="-971" y="-235"/>
      <point x="-971" y="-304" type="curve" smooth="yes"/>
      <point x="-971" y="-309" type="line" smooth="yes"/>
      <point x="-971" y="-390"/>
      <point x="-912" y="-486"/>
      <point x="-785" y="-591" type="curve"/>
      <point x="-1133" y="-591" type="line"/>
      <point x="-1229" y="-507"/>
      <point x="-1284" y="-411"/>
      <point x="-1284" y="-288" type="curve" smooth="yes"/>
      <point x="-1284" y="-283" type="line" smooth="yes"/>
      <point x="-1284" y="-96"/>
      <point x="-1150" y="29"/>
      <point x="-939" y="29" type="curve" smooth="yes"/>
      <point x="-765" y="29"/>
      <point x="-681" y="-31"/>
      <point x="-648" y="-137" type="curve"/>
      <point x="-641" y="-137" type="line"/>
      <point x="-606" y="-33"/>
      <point x="-515" y="29"/>
      <point x="-341" y="29" type="curve" smooth="yes"/>
      <point x="-109" y="29"/>
      <point x="5" y="-97"/>
      <point x="5" y="-258" type="curve" smooth="yes"/>
      <point x="5" y="-271" type="line"/>
      <point x="-323" y="-293" type="line"/>
      <point x="-323" y="-283" type="line" smooth="yes"/>
      <point x="-323" y="-235"/>
      <point x="-353" y="-201"/>
      <point x="-406" y="-201" type="curve" smooth="yes"/>
      <point x="-463" y="-201"/>
      <point x="-494" y="-229"/>
      <point x="-497" y="-306" type="curve" smooth="yes"/>
      <point x="-502" y="-418" type="line"/>
    </contour>
  </outline>
</glyph>
<glyph name="matraLruu.dv" format="2">
  <unicode hex="0963"/>
  <outline>
    <contour>
      <point x="5" y="-263" type="line"/>
      <point x="5" y="-269" type="line" smooth="yes"/>
      <point x="5" y="-352"/>
      <point x="-32" y="-415"/>
      <point x="-104" y="-471" type="curve" smooth="yes"/>
      <point x="-194" y="-541"/>
      <point x="-225" y="-556"/>
      <point x="-225" y="-586" type="curve" smooth="yes"/>
      <point x="-225" y="-612"/>
      <point x="-201" y="-628"/>
      <point x="-149" y="-627" type="curve" smooth="yes"/>
      <point x="-87" y="-627"/>
      <point x="-37" y="-609"/>
      <point x="4" y="-588" type="curve"/>
      <point x="-12" y="-809" type="line"/>
      <point x="-58" y="-830"/>
      <point x="-126" y="-842"/>
      <point x="-207" y="-842" type="curve" smooth="yes"/>
      <point x="-400" y="-841"/>
      <point x="-536" y="-763"/>
      <point x="-535" y="-620" type="curve" smooth="yes"/>
      <point x="-535" y="-542"/>
      <point x="-499" y="-489"/>
      <point x="-419" y="-426" type="curve" smooth="yes"/>
      <point x="-344" y="-368"/>
      <point x="-322" y="-337"/>
      <point x="-322" y="-291" type="curve" smooth="yes"/>
      <point x="-322" y="-286" type="line"/>
    </contour>
    <contour>
      <point x="-197" y="-836" type="line"/>
      <point x="-234" y="-842"/>
      <point x="-253" y="-861"/>
      <point x="-253" y="-887" type="curve" smooth="yes"/>
      <point x="-253" y="-918"/>
      <point x="-222" y="-939"/>
      <point x="-159" y="-939" type="curve" smooth="yes"/>
      <point x="-102" y="-939"/>
      <point x="-54" y="-929"/>
      <point x="3" y="-902" type="curve"/>
      <point x="-10" y="-1115" type="line"/>
      <point x="-55" y="-1136"/>
      <point x="-122" y="-1153"/>
      <point x="-212" y="-1153" type="curve" smooth="yes"/>
      <point x="-405" y="-1153"/>
      <point x="-531" y="-1077"/>
      <point x="-532" y="-949" type="curve" smooth="yes"/>
      <point x="-532" y="-877"/>
      <point x="-495" y="-825"/>
      <point x="-417" y="-806" type="curve"/>
      <point x="-417" y="-781" type="line"/>
    </contour>
    <contour>
      <point x="-789" y="-418" type="line"/>
      <point x="-796" y="-304" type="line" smooth="yes"/>
      <point x="-800" y="-231"/>
      <point x="-823" y="-201"/>
      <point x="-878" y="-201" type="curve" smooth="yes"/>
      <point x="-935" y="-201"/>
      <point x="-971" y="-235"/>
      <point x="-971" y="-304" type="curve" smooth="yes"/>
      <point x="-971" y="-309" type="line" smooth="yes"/>
      <point x="-971" y="-390"/>
      <point x="-912" y="-486"/>
      <point x="-785" y="-591" type="curve"/>
      <point x="-1133" y="-591" type="line"/>
      <point x="-1229" y="-507"/>
      <point x="-1284" y="-411"/>
      <point x="-1284" y="-288" type="curve" smooth="yes"/>
      <point x="-1284" y="-283" type="line" smooth="yes"/>
      <point x="-1284" y="-96"/>
      <point x="-1150" y="29"/>
      <point x="-939" y="29" type="curve" smooth="yes"/>
      <point x="-765" y="29"/>
      <point x="-681" y="-31"/>
      <point x="-648" y="-137" type="curve"/>
      <point x="-641" y="-137" type="line"/>
      <point x="-606" y="-33"/>
      <point x="-515" y="29"/>
      <point x="-341" y="29" type="curve" smooth="yes"/>
      <point x="-109" y="29"/>
      <point x="5" y="-97"/>
      <point x="5" y="-258" type="curve" smooth="yes"/>
      <point x="5" y="-271" type="line"/>
      <point x="-323" y="-293" type="line"/>
      <point x="-323" y="-283" type="line" smooth="yes"/>
      <point x="-323" y="-235"/>
      <point x="-353" y="-201"/>
      <point x="-406" y="-201" type="curve" smooth="yes"/>
      <point x="-463" y="-201"/>
      <point x="-494" y="-229"/>
      <point x="-497" y="-306" type="curve" smooth="yes"/>
      <point x="-502" y="-418" type="line"/>
    </contour>
  </outline>
</glyph>
<glyph name="Danda.dv" format="2">
  <advance width="935"/>
  <unicode hex="0964"/>
  <outline>
    <contour>
      <point x="653" y="1278" type="line"/>
      <point x="653" y="0" type="line"/>
      <point x="281" y="0" type="line"/>
      <point x="281" y="1330" type="line"/>
    </contour>
  </outline>
</glyph>
<glyph name="Doubledanda.dv" format="2">
  <advance width="1581"/>
  <unicode hex="0965"/>
  <outline>
    <contour>
      <point x="1299" y="1278" type="line"/>
      <point x="1299" y="0" type="line"/>
      <point x="927" y="0" type="line"/>
      <point x="927" y="1330" type="line"/>
    </contour>
    <contour>
      <point x="653" y="1278" type="line"/>
      <point x="653" y="0" type="line"/>
      <point x="281" y="0" type="line"/>
      <point x="281" y="1330" type="line"/>
    </contour>
  </outline>
</glyph>
<glyph name="Paach.dv" format="2">
  <advance width="1427"/>
  <unicode hex="096B"/>
  <outline>
    <contour>
      <point x="204" y="1248" type="curve"/>
      <point x="607" y="1248" type="line"/>
      <point x="524" y="1148"/>
      <point x="482" y="1050"/>
      <point x="482" y="938" type="curve" smooth="yes"/>
      <point x="482" y="931" type="line" smooth="yes"/>
      <point x="482" y="806"/>
      <point x="556" y="739"/>
      <point x="714" y="739" type="curve" smooth="yes"/>
      <point x="837" y="739"/>
      <point x="916" y="789"/>
      <point x="935" y="878" type="curve"/>
      <point x="948" y="641" type="line"/>
      <point x="917" y="641" type="line"/>
      <point x="882" y="520"/>
      <point x="771" y="441"/>
      <point x="565" y="441" type="curve" smooth="yes"/>
      <point x="289" y="441"/>
      <point x="84" y="591"/>
      <point x="84" y="888" type="curve" smooth="yes"/>
      <point x="84" y="908" type="line" smooth="yes"/>
      <point x="84" y="1032"/>
      <point x="123" y="1152"/>
    </contour>
    <contour>
      <point x="930" y="540" type="curve" smooth="yes"/>
      <point x="930" y="1102" type="line"/>
      <point x="1314" y="1102" type="line"/>
      <point x="1314" y="531" type="line" smooth="yes"/>
      <point x="1314" y="158"/>
      <point x="1157" y="-30"/>
      <point x="714" y="-30" type="curve" smooth="yes"/>
      <point x="543" y="-30"/>
      <point x="398" y="-2"/>
      <point x="284" y="42" type="curve"/>
      <point x="261" y="352" type="line"/>
      <point x="394" y="298"/>
      <point x="520" y="269"/>
      <point x="660" y="269" type="curve" smooth="yes"/>
      <point x="856" y="269"/>
      <point x="930" y="351"/>
    </contour>
  </outline>
  <guideline angle="0" x="0" y="-30"/>
</glyph>
<glyph name="uni0970" format="2">
  <advance width="1265"/>
  <unicode hex="0970"/>
  <outline>
    <contour>
      <point x="634.688" y="444" type="curve" smooth="yes"/>
      <point x="752.855" y="444"/>
      <point x="808" y="486.424"/>
      <point x="808" y="563.729" type="curve" smooth="yes"/>
      <point x="808" y="573.156" type="line" smooth="yes"/>
      <point x="808" y="650.462"/>
      <point x="752.855" y="691"/>
      <point x="634.688" y="691" type="curve" smooth="yes"/>
      <point x="516.521" y="691"/>
      <point x="457" y="651.405"/>
      <point x="457" y="574.099" type="curve" smooth="yes"/>
      <point x="457" y="564.672" type="line" smooth="yes"/>
      <point x="457" y="485.481"/>
      <point x="516.521" y="444"/>
    </contour>
    <contour>
      <point x="634.89" y="161" type="curve" smooth="yes"/>
      <point x="284.929" y="161"/>
      <point x="87" y="301.409"/>
      <point x="87" y="563.572" type="curve" smooth="yes"/>
      <point x="87" y="572.409" type="line" smooth="yes"/>
      <point x="87" y="834.572"/>
      <point x="284.929" y="974"/>
      <point x="634.89" y="974" type="curve" smooth="yes"/>
      <point x="984.852" y="974"/>
      <point x="1178" y="834.572"/>
      <point x="1178" y="572.409" type="curve" smooth="yes"/>
      <point x="1178" y="563.572" type="line" smooth="yes"/>
      <point x="1178" y="301.409"/>
      <point x="984.852" y="161"/>
    </contour>
  </outline>
</glyph>
<glyph name="uni0971" format="2">
  <advance width="790"/>
  <unicode hex="0971"/>
  <outline>
    <contour>
      <point x="393" y="926" type="curve" smooth="yes"/>
      <point x="228" y="926"/>
      <point x="153" y="1001"/>
      <point x="153" y="1119" type="curve" smooth="yes"/>
      <point x="153" y="1126" type="line" smooth="yes"/>
      <point x="153" y="1241"/>
      <point x="228" y="1321"/>
      <point x="393" y="1321" type="curve" smooth="yes"/>
      <point x="558" y="1321"/>
      <point x="637" y="1246"/>
      <point x="637" y="1126" type="curve" smooth="yes"/>
      <point x="637" y="1119" type="line" smooth="yes"/>
      <point x="637" y="1001"/>
      <point x="558" y="926"/>
    </contour>
  </outline>
</glyph>
<glyph name="uni0979" format="2">
  <advance width="1837"/>
  <unicode hex="0979"/>
  <anchor x="1495" y="37" name="bottom"/>
  <anchor x="1491" y="37" name="bottom2"/>
  <anchor x="1687" y="37" name="bottom3"/>
  <anchor x="1495" y="55" name="bottom5"/>
  <anchor x="1495" y="1214" name="top"/>
  <outline>
    <contour>
      <point x="344" y="-340" type="curve" smooth="yes"/>
      <point x="226" y="-340"/>
      <point x="166" y="-278"/>
      <point x="166" y="-187" type="curve" smooth="yes"/>
      <point x="166" y="-180" type="line" smooth="yes"/>
      <point x="166" y="-89"/>
      <point x="226" y="-25"/>
      <point x="344" y="-25" type="curve" smooth="yes"/>
      <point x="462" y="-25"/>
      <point x="520" y="-89"/>
      <point x="520" y="-180" type="curve" smooth="yes"/>
      <point x="520" y="-187" type="line" smooth="yes"/>
      <point x="520" y="-278"/>
      <point x="462" y="-340"/>
    </contour>
    <contour>
      <point x="805" y="-340" type="curve" smooth="yes"/>
      <point x="687" y="-340"/>
      <point x="627" y="-278"/>
      <point x="627" y="-187" type="curve" smooth="yes"/>
      <point x="627" y="-180" type="line" smooth="yes"/>
      <point x="627" y="-89"/>
      <point x="687" y="-25"/>
      <point x="805" y="-25" type="curve" smooth="yes"/>
      <point x="923" y="-25"/>
      <point x="981" y="-89"/>
      <point x="981" y="-180" type="curve" smooth="yes"/>
      <point x="981" y="-187" type="line" smooth="yes"/>
      <point x="981" y="-278"/>
      <point x="923" y="-340"/>
    </contour>
    <contour>
      <point x="573" y="-669" type="curve" smooth="yes"/>
      <point x="455" y="-669"/>
      <point x="395" y="-607"/>
      <point x="395" y="-516" type="curve" smooth="yes"/>
      <point x="395" y="-509" type="line" smooth="yes"/>
      <point x="395" y="-418"/>
      <point x="455" y="-354"/>
      <point x="573" y="-354" type="curve" smooth="yes"/>
      <point x="691" y="-354"/>
      <point x="749" y="-418"/>
      <point x="749" y="-509" type="curve" smooth="yes"/>
      <point x="749" y="-516" type="line" smooth="yes"/>
      <point x="749" y="-607"/>
      <point x="691" y="-669"/>
    </contour>
    <contour>
      <point x="1687" y="1082" type="line"/>
      <point x="1687" y="0" type="line"/>
      <point x="1303" y="0" type="line"/>
      <point x="1303" y="1082" type="line"/>
    </contour>
    <contour>
      <point x="1230" y="999" type="line"/>
      <point x="1209" y="1266" type="line"/>
      <point x="1873" y="1266" type="line"/>
      <point x="1894" y="999" type="line"/>
    </contour>
    <contour>
      <point x="1794" y="999" type="line"/>
      <point x="-36" y="999" type="line"/>
      <point x="-57" y="1266" type="line"/>
      <point x="1773" y="1266" type="line"/>
    </contour>
    <contour>
      <point x="1376" y="835" type="line"/>
      <point x="1376" y="552" type="line"/>
      <point x="1104" y="552" type="line"/>
      <point x="708" y="562" type="line"/>
      <point x="256" y="564" type="line"/>
      <point x="256" y="835" type="line"/>
    </contour>
    <contour>
      <point x="897" y="628" type="line"/>
      <point x="897" y="548" type="line"/>
      <point x="1034" y="504"/>
      <point x="1091" y="424"/>
      <point x="1091" y="317" type="curve" smooth="yes"/>
      <point x="1091" y="311" type="line" smooth="yes"/>
      <point x="1091" y="126"/>
      <point x="917" y="12"/>
      <point x="573" y="12" type="curve" smooth="yes"/>
      <point x="367" y="12"/>
      <point x="211" y="53"/>
      <point x="91" y="126" type="curve"/>
      <point x="73" y="434" type="line"/>
      <point x="205" y="356"/>
      <point x="349" y="308"/>
      <point x="493" y="308" type="curve" smooth="yes"/>
      <point x="643" y="308"/>
      <point x="700" y="351"/>
      <point x="700" y="424" type="curve" smooth="yes"/>
      <point x="700" y="431" type="line" smooth="yes"/>
      <point x="700" y="502"/>
      <point x="657" y="548"/>
      <point x="484" y="555" type="curve" smooth="yes"/>
      <point x="256" y="564" type="line"/>
      <point x="256" y="628" type="line"/>
    </contour>
  </outline>
  <guideline angle="90" x="1495" y="0"/>
  <guideline angle="0" x="0" y="37"/>
  <guideline angle="0" x="0" y="1214"/>
  <guideline angle="90" x="1491" y="0"/>
  <guideline angle="90" x="1687" y="0"/>
</glyph>
<glyph name="ellipsis" format="2">
  <advance width="1775"/>
  <unicode hex="2026"/>
  <outline>
    <contour>
      <point x="1468" y="-34" type="curve" smooth="yes"/>
      <point x="1617" y="-34"/>
      <point x="1685" y="39"/>
      <point x="1685" y="157" type="curve" smooth="yes"/>
      <point x="1685" y="162" type="line" smooth="yes"/>
      <point x="1685" y="281"/>
      <point x="1617" y="356"/>
      <point x="1468" y="356" type="curve" smooth="yes"/>
      <point x="1318" y="356"/>
      <point x="1251" y="281"/>
      <point x="1251" y="162" type="curve" smooth="yes"/>
      <point x="1251" y="157" type="line" smooth="yes"/>
      <point x="1251" y="39"/>
      <point x="1318" y="-34"/>
    </contour>
    <contour>
      <point x="887" y="-34" type="curve" smooth="yes"/>
      <point x="1036" y="-34"/>
      <point x="1104" y="39"/>
      <point x="1104" y="157" type="curve" smooth="yes"/>
      <point x="1104" y="162" type="line" smooth="yes"/>
      <point x="1104" y="281"/>
      <point x="1036" y="356"/>
      <point x="887" y="356" type="curve" smooth="yes"/>
      <point x="737" y="356"/>
      <point x="670" y="281"/>
      <point x="670" y="162" type="curve" smooth="yes"/>
      <point x="670" y="157" type="line" smooth="yes"/>
      <point x="670" y="39"/>
      <point x="737" y="-34"/>
    </contour>
    <contour>
      <point x="307" y="-34" type="curve" smooth="yes"/>
      <point x="456" y="-34"/>
      <point x="524" y="39"/>
      <point x="524" y="157" type="curve" smooth="yes"/>
      <point x="524" y="162" type="line" smooth="yes"/>
      <point x="524" y="281"/>
      <point x="456" y="356"/>
      <point x="307" y="356" type="curve" smooth="yes"/>
      <point x="157" y="356"/>
      <point x="90" y="281"/>
      <point x="90" y="162" type="curve" smooth="yes"/>
      <point x="90" y="157" type="line" smooth="yes"/>
      <point x="90" y="39"/>
      <point x="157" y="-34"/>
    </contour>
  </outline>
</glyph>
<glyph name="fiveinferior" format="2">
  <advance width="870"/>
  <unicode hex="2085"/>
  <outline>
    <contour>
      <point x="408" y="-223" type="curve" smooth="yes"/>
      <point x="725" y="-223"/>
      <point x="833" y="-129"/>
      <point x="833" y="15" type="curve" smooth="yes"/>
      <point x="833" y="27" type="line" smooth="yes"/>
      <point x="833" y="156"/>
      <point x="760" y="230"/>
      <point x="576" y="230" type="curve" smooth="yes"/>
      <point x="438" y="230"/>
      <point x="368" y="202"/>
      <point x="307" y="149" type="curve"/>
      <point x="304" y="149" type="line"/>
      <point x="305" y="210" type="line"/>
      <point x="305" y="277" type="line"/>
      <point x="793" y="277" type="line"/>
      <point x="793" y="477" type="line"/>
      <point x="57" y="477" type="line"/>
      <point x="57" y="81" type="line"/>
      <point x="285" y="39" type="line"/>
      <point x="337" y="59"/>
      <point x="394" y="73"/>
      <point x="458" y="73" type="curve" smooth="yes"/>
      <point x="530" y="73"/>
      <point x="552" y="59"/>
      <point x="552" y="31" type="curve"/>
      <point x="552" y="29" type="line"/>
      <point x="552" y="0"/>
      <point x="526" y="-19"/>
      <point x="395" y="-19" type="curve" smooth="yes"/>
      <point x="263" y="-19"/>
      <point x="133" y="7"/>
      <point x="55" y="26" type="curve"/>
      <point x="79" y="-181" type="line"/>
      <point x="140" y="-200"/>
      <point x="277" y="-223"/>
    </contour>
  </outline>
</glyph>
<glyph name="nineinferior" format="2">
  <advance width="918"/>
  <unicode hex="2089"/>
  <outline>
    <contour>
      <point x="435" y="502" type="curve" smooth="yes"/>
      <point x="177" y="502"/>
      <point x="40" y="412"/>
      <point x="40" y="262" type="curve" smooth="yes"/>
      <point x="40" y="252" type="line" smooth="yes"/>
      <point x="40" y="110"/>
      <point x="139" y="46"/>
      <point x="338" y="46" type="curve" smooth="yes"/>
      <point x="472" y="46"/>
      <point x="565" y="83"/>
      <point x="607" y="156" type="curve"/>
      <point x="640" y="156" type="line"/>
      <point x="602" y="245" type="line"/>
      <point x="566" y="224"/>
      <point x="507" y="207"/>
      <point x="420" y="207" type="curve" smooth="yes"/>
      <point x="328" y="207"/>
      <point x="311" y="227"/>
      <point x="311" y="253" type="curve"/>
      <point x="311" y="255" type="line"/>
      <point x="311" y="285"/>
      <point x="349" y="304"/>
      <point x="439" y="304" type="curve" smooth="yes"/>
      <point x="555" y="304"/>
      <point x="613" y="267"/>
      <point x="613" y="159" type="curve" smooth="yes"/>
      <point x="613" y="152" type="line" smooth="yes"/>
      <point x="613" y="42"/>
      <point x="529" y="-17"/>
      <point x="343" y="-17" type="curve" smooth="yes"/>
      <point x="238" y="-17"/>
      <point x="159" y="0"/>
      <point x="86" y="21" type="curve"/>
      <point x="116" y="-185" type="line"/>
      <point x="191" y="-207"/>
      <point x="277" y="-221"/>
      <point x="379" y="-221" type="curve" smooth="yes"/>
      <point x="695" y="-221"/>
      <point x="876" y="-86"/>
      <point x="876" y="141" type="curve" smooth="yes"/>
      <point x="876" y="150" type="line" smooth="yes"/>
      <point x="876" y="374"/>
      <point x="719" y="502"/>
    </contour>
  </outline>
</glyph>
<glyph name="bulletoperator" format="2">
  <advance width="614"/>
  <unicode hex="2219"/>
  <outline>
    <contour>
      <point x="307" y="312" type="curve" smooth="yes"/>
      <point x="456" y="312"/>
      <point x="524" y="385"/>
      <point x="524" y="503" type="curve" smooth="yes"/>
      <point x="524" y="508" type="line" smooth="yes"/>
      <point x="524" y="627"/>
      <point x="456" y="702"/>
      <point x="307" y="702" type="curve" smooth="yes"/>
      <point x="157" y="702"/>
      <point x="90" y="627"/>
      <point x="90" y="508" type="curve" smooth="yes"/>
      <point x="90" y="503" type="line" smooth="yes"/>
      <point x="90" y="385"/>
      <point x="157" y="312"/>
    </contour>
  </outline>
</glyph>
<glyph name="fi" format="2">
  <advance width="1601"/>
  <unicode hex="FB01"/>
  <anchor x="1285" y="0" name="bottom"/>
  <anchor x="800" y="0" name="caret_1"/>
  <anchor x="1524" y="10" name="ogonek"/>
  <anchor x="485" y="1291" name="top"/>
  <outline>
    <contour>
      <point x="570" y="1349" type="curve" smooth="yes"/>
      <point x="260" y="1349"/>
      <point x="126" y="1263"/>
      <point x="126" y="1102" type="curve" smooth="yes"/>
      <point x="126" y="1097" type="line" smooth="yes"/>
      <point x="126" y="984"/>
      <point x="200" y="926"/>
      <point x="288" y="904" type="curve"/>
      <point x="288" y="868" type="line"/>
      <point x="540" y="884" type="line"/>
      <point x="524" y="900"/>
      <point x="514" y="920"/>
      <point x="514" y="946" type="curve" smooth="yes"/>
      <point x="514" y="949" type="line" smooth="yes"/>
      <point x="514" y="1005"/>
      <point x="535" y="1050"/>
      <point x="713" y="1050" type="curve" smooth="yes"/>
      <point x="809" y="1050"/>
      <point x="893" y="1036"/>
      <point x="971" y="1018" type="curve"/>
      <point x="932" y="1301" type="line"/>
      <point x="836" y="1329"/>
      <point x="703" y="1349"/>
    </contour>
    <contour>
      <point x="563" y="0" type="line"/>
      <point x="563" y="784" type="line"/>
      <point x="168" y="784" type="line"/>
      <point x="168" y="0" type="line"/>
    </contour>
    <contour>
      <point x="929" y="595" type="line"/>
      <point x="968" y="897" type="line"/>
      <point x="482" y="897" type="line"/>
      <point x="341" y="893" type="line"/>
      <point x="8" y="897" type="line"/>
      <point x="8" y="595" type="line"/>
    </contour>
    <contour>
      <point x="1483" y="0" type="line"/>
      <point x="1483" y="963" type="line"/>
      <point x="1087" y="963" type="line"/>
      <point x="1087" y="0" type="line"/>
    </contour>
    <contour>
      <point x="1285" y="1050" type="curve" smooth="yes"/>
      <point x="1429" y="1050"/>
      <point x="1493" y="1113"/>
      <point x="1493" y="1220" type="curve" smooth="yes"/>
      <point x="1493" y="1225" type="line" smooth="yes"/>
      <point x="1493" y="1329"/>
      <point x="1429" y="1395"/>
      <point x="1285" y="1395" type="curve" smooth="yes"/>
      <point x="1139" y="1395"/>
      <point x="1077" y="1328"/>
      <point x="1077" y="1225" type="curve" smooth="yes"/>
      <point x="1077" y="1220" type="line" smooth="yes"/>
      <point x="1077" y="1116"/>
      <point x="1139" y="1050"/>
    </contour>
  </outline>
</glyph>
<glyph name="fl" format="2">
  <advance width="1602"/>
  <unicode hex="FB02"/>
  <anchor x="1286" y="0" name="bottom"/>
  <anchor x="801" y="0" name="caret_1"/>
  <anchor x="1286" y="646" name="center"/>
  <anchor x="1286" y="1314" name="top"/>
  <anchor x="1582" y="1314" name="topright"/>
  <outline>
    <contour>
      <point x="570" y="1349" type="curve" smooth="yes"/>
      <point x="260" y="1349"/>
      <point x="126" y="1263"/>
      <point x="126" y="1102" type="curve" smooth="yes"/>
      <point x="126" y="1097" type="line" smooth="yes"/>
      <point x="126" y="984"/>
      <point x="200" y="926"/>
      <point x="288" y="904" type="curve"/>
      <point x="288" y="868" type="line"/>
      <point x="540" y="884" type="line"/>
      <point x="524" y="900"/>
      <point x="514" y="920"/>
      <point x="514" y="946" type="curve" smooth="yes"/>
      <point x="514" y="949" type="line" smooth="yes"/>
      <point x="514" y="1005"/>
      <point x="535" y="1050"/>
      <point x="713" y="1050" type="curve" smooth="yes"/>
      <point x="809" y="1050"/>
      <point x="893" y="1036"/>
      <point x="971" y="1018" type="curve"/>
      <point x="932" y="1301" type="line"/>
      <point x="836" y="1329"/>
      <point x="703" y="1349"/>
    </contour>
    <contour>
      <point x="563" y="0" type="line"/>
      <point x="563" y="784" type="line"/>
      <point x="168" y="784" type="line"/>
      <point x="168" y="0" type="line"/>
    </contour>
    <contour>
      <point x="929" y="595" type="line"/>
      <point x="968" y="897" type="line"/>
      <point x="482" y="897" type="line"/>
      <point x="341" y="893" type="line"/>
      <point x="8" y="897" type="line"/>
      <point x="8" y="595" type="line"/>
    </contour>
    <contour>
      <point x="1484" y="0" type="line"/>
      <point x="1484" y="1314" type="line"/>
      <point x="1087" y="1314" type="line"/>
      <point x="1087" y="0" type="line"/>
    </contour>
  </outline>
</glyph>
<glyph name="Aanth.dv" format="2">
  <advance width="1406"/>
  <outline>
    <contour>
      <point x="1301" y="1107" type="line"/>
      <point x="1301" y="817" type="line"/>
      <point x="427" y="817" type="line"/>
      <point x="237" y="810" type="line"/>
      <point x="57" y="810" type="line"/>
      <point x="57" y="1107" type="line"/>
    </contour>
    <contour>
      <point x="1299" y="105" type="line"/>
      <point x="1201" y="162"/>
      <point x="1124" y="184"/>
      <point x="973" y="183" type="curve" smooth="yes"/>
      <point x="781" y="182" type="line" smooth="yes"/>
      <point x="306" y="180"/>
      <point x="146" y="313"/>
      <point x="146" y="534" type="curve" smooth="yes"/>
      <point x="146" y="539" type="line" smooth="yes"/>
      <point x="146" y="661"/>
      <point x="203" y="755"/>
      <point x="352" y="805" type="curve"/>
      <point x="352" y="876" type="line"/>
      <point x="784" y="876" type="line"/>
      <point x="784" y="819" type="line"/>
      <point x="614" y="812"/>
      <point x="545" y="744"/>
      <point x="545" y="647" type="curve" smooth="yes"/>
      <point x="545" y="643" type="line" smooth="yes"/>
      <point x="545" y="533"/>
      <point x="623" y="479"/>
      <point x="838" y="479" type="curve" smooth="yes"/>
      <point x="991" y="479" type="line" smooth="yes"/>
      <point x="1154" y="479"/>
      <point x="1223" y="466"/>
      <point x="1299" y="423" type="curve"/>
    </contour>
  </outline>
</glyph>
<glyph name="BaBha.dv" format="2">
  <advance width="2595"/>
  <anchor x="2253" y="37" name="bottom"/>
  <anchor x="2249" y="37" name="bottom2"/>
  <anchor x="2445" y="37" name="bottom3"/>
  <anchor x="2253" y="55" name="bottom5"/>
  <anchor x="2253" y="1214" name="top"/>
  <outline>
    <contour>
      <point x="-36" y="999" type="line"/>
      <point x="-57" y="1266" type="line"/>
      <point x="1017" y="1266" type="line"/>
      <point x="1038" y="999" type="line"/>
    </contour>
    <contour>
      <point x="417" y="641" type="line"/>
      <point x="557" y="758" type="line"/>
      <point x="1105" y="361" type="line"/>
      <point x="1006" y="217" type="line"/>
    </contour>
    <contour>
      <point x="84" y="479" type="curve" smooth="yes"/>
      <point x="84" y="489" type="line" smooth="yes"/>
      <point x="84" y="753"/>
      <point x="283" y="899"/>
      <point x="657" y="899" type="curve" smooth="yes"/>
      <point x="792" y="899"/>
      <point x="881" y="890"/>
      <point x="993" y="867" type="curve"/>
      <point x="1022" y="614" type="line"/>
      <point x="938" y="630"/>
      <point x="849" y="639"/>
      <point x="753" y="639" type="curve" smooth="yes"/>
      <point x="550" y="639"/>
      <point x="449" y="586"/>
      <point x="449" y="484" type="curve" smooth="yes"/>
      <point x="449" y="477" type="line" smooth="yes"/>
      <point x="449" y="376"/>
      <point x="552" y="328"/>
      <point x="762" y="328" type="curve" smooth="yes"/>
      <point x="983" y="328"/>
      <point x="1116" y="402"/>
      <point x="1155" y="518" type="curve"/>
      <point x="1177" y="276" type="line"/>
      <point x="1146" y="276" type="line"/>
      <point x="1094" y="153"/>
      <point x="961" y="57"/>
      <point x="669" y="57" type="curve" smooth="yes"/>
      <point x="303" y="57"/>
      <point x="84" y="210"/>
    </contour>
    <contour>
      <point x="2445" y="1082" type="line"/>
      <point x="2445" y="0" type="line"/>
      <point x="2061" y="0" type="line"/>
      <point x="2061" y="1082" type="line"/>
    </contour>
    <contour>
      <point x="1988" y="999" type="line"/>
      <point x="1967" y="1266" type="line"/>
      <point x="2631" y="1266" type="line"/>
      <point x="2652" y="999" type="line"/>
    </contour>
    <contour>
      <point x="1917" y="999" type="line"/>
      <point x="1895" y="1266" type="line"/>
      <point x="2531" y="1266" type="line"/>
      <point x="2552" y="999" type="line"/>
    </contour>
    <contour>
      <point x="1376" y="388" type="line"/>
      <point x="1376" y="673" type="line"/>
      <point x="2196" y="673" type="line"/>
      <point x="2196" y="388" type="line"/>
    </contour>
    <contour>
      <point x="1237" y="158" type="line"/>
      <point x="1146" y="262"/>
      <point x="1077" y="400"/>
      <point x="1061" y="566" type="curve"/>
      <point x="1240" y="662" type="line"/>
      <point x="1621" y="662" type="line"/>
      <point x="1621" y="158" type="line"/>
    </contour>
    <contour>
      <point x="1240" y="525" type="line"/>
      <point x="1240" y="856" type="line" smooth="yes"/>
      <point x="1240" y="963"/>
      <point x="1210" y="999"/>
      <point x="1107" y="999" type="curve" smooth="yes"/>
      <point x="957" y="999" type="line"/>
      <point x="936" y="1266" type="line"/>
      <point x="1180" y="1266" type="line" smooth="yes"/>
      <point x="1507" y="1266"/>
      <point x="1621" y="1148"/>
      <point x="1621" y="863" type="curve" smooth="yes"/>
      <point x="1621" y="525" type="line"/>
    </contour>
  </outline>
  <guideline angle="90" x="1917" y="0"/>
  <guideline angle="90" x="2253" y="0"/>
  <guideline angle="0" x="0" y="37"/>
  <guideline angle="0" x="0" y="1214"/>
  <guideline angle="90" x="2249" y="0"/>
  <guideline angle="90" x="2445" y="0"/>
</glyph>
<glyph name="BaBhaRa.dv" format="2">
  <advance width="2608"/>
  <anchor x="2266" y="1" name="bottom"/>
  <anchor x="2262" y="1" name="bottom2"/>
  <anchor x="2458" y="1" name="bottom3"/>
  <anchor x="2266" y="1214" name="top"/>
  <outline>
    <contour>
      <point x="-36" y="999" type="line"/>
      <point x="-57" y="1266" type="line"/>
      <point x="1017" y="1266" type="line"/>
      <point x="1038" y="999" type="line"/>
    </contour>
    <contour>
      <point x="417" y="641" type="line"/>
      <point x="557" y="758" type="line"/>
      <point x="1105" y="361" type="line"/>
      <point x="1006" y="217" type="line"/>
    </contour>
    <contour>
      <point x="84" y="479" type="curve" smooth="yes"/>
      <point x="84" y="489" type="line" smooth="yes"/>
      <point x="84" y="753"/>
      <point x="283" y="899"/>
      <point x="657" y="899" type="curve" smooth="yes"/>
      <point x="792" y="899"/>
      <point x="881" y="890"/>
      <point x="993" y="867" type="curve"/>
      <point x="1022" y="614" type="line"/>
      <point x="938" y="630"/>
      <point x="849" y="639"/>
      <point x="753" y="639" type="curve" smooth="yes"/>
      <point x="550" y="639"/>
      <point x="449" y="586"/>
      <point x="449" y="484" type="curve" smooth="yes"/>
      <point x="449" y="477" type="line" smooth="yes"/>
      <point x="449" y="376"/>
      <point x="552" y="328"/>
      <point x="762" y="328" type="curve" smooth="yes"/>
      <point x="983" y="328"/>
      <point x="1116" y="402"/>
      <point x="1155" y="518" type="curve"/>
      <point x="1213" y="291" type="line"/>
      <point x="1185" y="291" type="line"/>
      <point x="1131" y="167"/>
      <point x="996" y="57"/>
      <point x="689" y="57" type="curve" smooth="yes"/>
      <point x="310" y="57"/>
      <point x="84" y="210"/>
    </contour>
    <contour>
      <point x="1883" y="999" type="line"/>
      <point x="1862" y="1266" type="line"/>
      <point x="2644" y="1266" type="line"/>
      <point x="2665" y="999" type="line"/>
    </contour>
    <contour>
      <point x="2213" y="716" type="line"/>
      <point x="2213" y="431" type="line"/>
      <point x="1394" y="431" type="line"/>
      <point x="1394" y="716" type="line"/>
    </contour>
    <contour>
      <point x="1264" y="-71" type="line"/>
      <point x="1264" y="-21" type="line"/>
      <point x="2151" y="441" type="line"/>
      <point x="2151" y="182" type="line"/>
      <point x="1798" y="-71" type="line"/>
    </contour>
    <contour>
      <point x="2083" y="-36" type="line"/>
      <point x="2083" y="263" type="line"/>
      <point x="2074" y="295" type="line"/>
      <point x="2074" y="1088" type="line"/>
      <point x="2458" y="1088" type="line"/>
      <point x="2458" y="-36" type="line"/>
    </contour>
    <contour>
      <point x="1253" y="212" type="line"/>
      <point x="1163" y="315"/>
      <point x="1095" y="456"/>
      <point x="1079" y="605" type="curve"/>
      <point x="1255" y="701" type="line"/>
      <point x="1634" y="701" type="line"/>
      <point x="1634" y="212" type="line"/>
    </contour>
    <contour>
      <point x="1253" y="525" type="line"/>
      <point x="1253" y="856" type="line" smooth="yes"/>
      <point x="1253" y="963"/>
      <point x="1223" y="999"/>
      <point x="1120" y="999" type="curve" smooth="yes"/>
      <point x="970" y="999" type="line"/>
      <point x="949" y="1266" type="line"/>
      <point x="1193" y="1266" type="line" smooth="yes"/>
      <point x="1520" y="1266"/>
      <point x="1634" y="1148"/>
      <point x="1634" y="863" type="curve" smooth="yes"/>
      <point x="1634" y="525" type="line"/>
    </contour>
  </outline>
  <guideline angle="90" x="2266" y="0"/>
  <guideline angle="0" x="0" y="1"/>
</glyph>
<glyph name="BaDha.dv" format="2">
  <advance width="2800"/>
  <anchor x="2458" y="37" name="bottom"/>
  <anchor x="2454" y="37" name="bottom2"/>
  <anchor x="2650" y="37" name="bottom3"/>
  <anchor x="2458" y="55" name="bottom5"/>
  <anchor x="2458" y="1214" name="top"/>
  <outline>
    <contour>
      <point x="-36" y="999" type="line"/>
      <point x="-57" y="1266" type="line"/>
      <point x="959" y="1266" type="line"/>
      <point x="980" y="999" type="line"/>
    </contour>
    <contour>
      <point x="417" y="641" type="line"/>
      <point x="557" y="758" type="line"/>
      <point x="1105" y="361" type="line"/>
      <point x="1006" y="217" type="line"/>
    </contour>
    <contour>
      <point x="84" y="479" type="curve" smooth="yes"/>
      <point x="84" y="489" type="line" smooth="yes"/>
      <point x="84" y="753"/>
      <point x="284" y="899"/>
      <point x="661" y="899" type="curve" smooth="yes"/>
      <point x="785" y="899"/>
      <point x="870" y="891"/>
      <point x="969" y="872" type="curve"/>
      <point x="998" y="619" type="line"/>
      <point x="921" y="632"/>
      <point x="840" y="639"/>
      <point x="753" y="639" type="curve" smooth="yes"/>
      <point x="550" y="639"/>
      <point x="449" y="586"/>
      <point x="449" y="484" type="curve" smooth="yes"/>
      <point x="449" y="477" type="line" smooth="yes"/>
      <point x="449" y="376"/>
      <point x="552" y="328"/>
      <point x="762" y="328" type="curve" smooth="yes"/>
      <point x="944" y="328"/>
      <point x="1062" y="369"/>
      <point x="1119" y="447" type="curve"/>
      <point x="1149" y="248" type="line"/>
      <point x="1116" y="248" type="line"/>
      <point x="1058" y="133"/>
      <point x="928" y="57"/>
      <point x="669" y="57" type="curve" smooth="yes"/>
      <point x="303" y="57"/>
      <point x="84" y="210"/>
    </contour>
    <contour>
      <point x="2650" y="1082" type="line"/>
      <point x="2650" y="0" type="line"/>
      <point x="2266" y="0" type="line"/>
      <point x="2266" y="1082" type="line"/>
    </contour>
    <contour>
      <point x="2193" y="999" type="line"/>
      <point x="2172" y="1266" type="line"/>
      <point x="2836" y="1266" type="line"/>
      <point x="2857" y="999" type="line"/>
    </contour>
    <contour>
      <point x="2149" y="999" type="line"/>
      <point x="2128" y="1266" type="line"/>
      <point x="2836" y="1266" type="line"/>
      <point x="2857" y="999" type="line"/>
    </contour>
    <contour>
      <point x="1087" y="393" type="line" smooth="yes"/>
      <point x="1087" y="538"/>
      <point x="1169" y="641"/>
      <point x="1455" y="653" type="curve"/>
      <point x="1455" y="664" type="line"/>
      <point x="1167" y="684"/>
      <point x="1044" y="781"/>
      <point x="1044" y="963" type="curve" smooth="yes"/>
      <point x="1044" y="970" type="line" smooth="yes"/>
      <point x="1044" y="1164"/>
      <point x="1199" y="1301"/>
      <point x="1566" y="1301" type="curve" smooth="yes"/>
      <point x="1916" y="1301"/>
      <point x="2060" y="1177"/>
      <point x="2060" y="991" type="curve" smooth="yes"/>
      <point x="2060" y="956"/>
      <point x="2053" y="922"/>
      <point x="2043" y="895" type="curve"/>
      <point x="1692" y="895" type="line"/>
      <point x="1692" y="918" type="line" smooth="yes"/>
      <point x="1692" y="988"/>
      <point x="1655" y="1022"/>
      <point x="1566" y="1022" type="curve" smooth="yes"/>
      <point x="1475" y="1022"/>
      <point x="1432" y="984"/>
      <point x="1432" y="924" type="curve" smooth="yes"/>
      <point x="1432" y="918" type="line" smooth="yes"/>
      <point x="1432" y="828"/>
      <point x="1502" y="799"/>
      <point x="1740" y="792" type="curve" smooth="yes"/>
      <point x="1977" y="785" type="line"/>
      <point x="1977" y="516" type="line"/>
      <point x="1713" y="511" type="line" smooth="yes"/>
      <point x="1529" y="508"/>
      <point x="1484" y="486"/>
      <point x="1484" y="441" type="curve" smooth="yes"/>
      <point x="1484" y="438" type="line" smooth="yes"/>
      <point x="1484" y="390"/>
      <point x="1533" y="361"/>
      <point x="1824" y="361" type="curve" smooth="yes"/>
      <point x="2101" y="361"/>
      <point x="2233" y="422"/>
      <point x="2272" y="522" type="curve"/>
      <point x="2287" y="299" type="line"/>
      <point x="2253" y="299" type="line"/>
      <point x="2192" y="146"/>
      <point x="2028" y="59"/>
      <point x="1697" y="59" type="curve" smooth="yes"/>
      <point x="1279" y="59"/>
      <point x="1087" y="180"/>
      <point x="1087" y="386" type="curve" smooth="yes"/>
    </contour>
  </outline>
  <guideline angle="90" x="606" y="0"/>
  <guideline angle="90" x="2149" y="0"/>
  <guideline angle="90" x="2458" y="0"/>
  <guideline angle="0" x="0" y="37"/>
  <guideline angle="0" x="0" y="1214"/>
  <guideline angle="90" x="2454" y="0"/>
  <guideline angle="90" x="2650" y="0"/>
</glyph>
<glyph name="BaLa.MAR.dv" format="2">
  <advance width="2922"/>
  <anchor x="2437" y="47" name="bottom"/>
  <anchor x="2407" y="37" name="bottom2"/>
  <anchor x="2551" y="37" name="bottom3"/>
  <anchor x="1988" y="55" name="bottom5"/>
  <anchor x="2374" y="1214" name="top"/>
  <outline>
    <contour>
      <point x="-36" y="999" type="line"/>
      <point x="-57" y="1266" type="line"/>
      <point x="1296" y="1266" type="line"/>
      <point x="1317" y="999" type="line"/>
    </contour>
    <contour>
      <point x="417" y="641" type="line"/>
      <point x="557" y="758" type="line"/>
      <point x="1085" y="361" type="line"/>
      <point x="986" y="217" type="line"/>
    </contour>
    <contour>
      <point x="84" y="479" type="curve" smooth="yes"/>
      <point x="84" y="490" type="line" smooth="yes"/>
      <point x="84" y="753"/>
      <point x="278.622" y="899"/>
      <point x="644.393" y="899" type="curve" smooth="yes"/>
      <point x="776.422" y="899"/>
      <point x="863.464" y="890"/>
      <point x="973" y="867" type="curve"/>
      <point x="1002" y="614" type="line"/>
      <point x="920.932" y="630"/>
      <point x="835.038" y="639"/>
      <point x="742.389" y="639" type="curve" smooth="yes"/>
      <point x="546.475" y="639"/>
      <point x="449" y="586"/>
      <point x="449" y="484" type="curve" smooth="yes"/>
      <point x="449" y="477" type="line" smooth="yes"/>
      <point x="449" y="376"/>
      <point x="549.082" y="328"/>
      <point x="753.133" y="328" type="curve" smooth="yes"/>
      <point x="967.873" y="328"/>
      <point x="1097.1" y="400.053"/>
      <point x="1135" y="513" type="curve"/>
      <point x="1148" y="265" type="line"/>
      <point x="1116" y="265" type="line"/>
      <point x="1060.16" y="138.269"/>
      <point x="930.128" y="57"/>
      <point x="648.828" y="57" type="curve" smooth="yes"/>
      <point x="292.936" y="57"/>
      <point x="84" y="210"/>
    </contour>
    <contour>
      <point x="2101" y="999" type="line"/>
      <point x="2080" y="1266" type="line"/>
      <point x="2752" y="1266" type="line"/>
      <point x="2773" y="999" type="line"/>
    </contour>
    <contour>
      <point x="2566" y="1082" type="line"/>
      <point x="2566" y="894" type="line"/>
      <point x="2195" y="894" type="line"/>
      <point x="2195" y="1082" type="line"/>
    </contour>
    <contour>
      <point x="976" y="999" type="line"/>
      <point x="955" y="1266" type="line"/>
      <point x="2958" y="1266" type="line"/>
      <point x="2979" y="999" type="line"/>
    </contour>
    <contour>
      <point x="2566" y="1050" type="line"/>
      <point x="2566" y="805" type="line"/>
      <point x="2194" y="806" type="line"/>
      <point x="2194" y="1050" type="line"/>
    </contour>
    <contour>
      <point x="1590" y="858" type="curve" smooth="yes"/>
      <point x="1818" y="858"/>
      <point x="1922" y="778"/>
      <point x="1966" y="664" type="curve"/>
      <point x="1975" y="664" type="line"/>
      <point x="2019" y="778"/>
      <point x="2133" y="858"/>
      <point x="2356" y="858" type="curve" smooth="yes"/>
      <point x="2675" y="858"/>
      <point x="2836" y="669"/>
      <point x="2836" y="420" type="curve" smooth="yes"/>
      <point x="2836" y="409" type="line" smooth="yes"/>
      <point x="2836" y="258"/>
      <point x="2764" y="109"/>
      <point x="2630" y="0" type="curve"/>
      <point x="2188" y="0" type="line"/>
      <point x="2188" y="7" type="line"/>
      <point x="2350" y="137"/>
      <point x="2439" y="260"/>
      <point x="2439" y="397" type="curve" smooth="yes"/>
      <point x="2439" y="404" type="line" smooth="yes"/>
      <point x="2439" y="497"/>
      <point x="2393" y="559"/>
      <point x="2301" y="559" type="curve" smooth="yes"/>
      <point x="2215" y="559"/>
      <point x="2173" y="518"/>
      <point x="2165" y="409" type="curve" smooth="yes"/>
      <point x="2155" y="226" type="line"/>
      <point x="1790" y="226" type="line"/>
      <point x="1779" y="409" type="line" smooth="yes"/>
      <point x="1772" y="518"/>
      <point x="1740" y="559"/>
      <point x="1647" y="559" type="curve" smooth="yes"/>
      <point x="1555" y="559"/>
      <point x="1501" y="498"/>
      <point x="1501" y="402" type="curve" smooth="yes"/>
      <point x="1501" y="395" type="line" smooth="yes"/>
      <point x="1501" y="256"/>
      <point x="1588" y="141"/>
      <point x="1755" y="7" type="curve"/>
      <point x="1755" y="0" type="line"/>
      <point x="1313" y="0" type="line"/>
      <point x="1174" y="109"/>
      <point x="1103" y="262"/>
      <point x="1103" y="408" type="curve" smooth="yes"/>
      <point x="1103" y="417" type="line" smooth="yes"/>
      <point x="1103" y="687"/>
      <point x="1281" y="858"/>
    </contour>
  </outline>
  <guideline angle="90" x="2407" y="0"/>
  <guideline angle="90" x="2550" y="0"/>
  <guideline angle="90" x="2374" y="0"/>
</glyph>
<glyph name="BaLa.dv" format="2">
  <advance width="2942"/>
  <anchor x="2600" y="37" name="bottom"/>
  <anchor x="2596" y="37" name="bottom2"/>
  <anchor x="2792" y="37" name="bottom3"/>
  <anchor x="2600" y="55" name="bottom5"/>
  <anchor x="2600" y="1214" name="top"/>
  <outline>
    <contour>
      <point x="-36" y="999" type="line"/>
      <point x="-57" y="1266" type="line"/>
      <point x="1417" y="1266" type="line"/>
      <point x="1438" y="999" type="line"/>
    </contour>
    <contour>
      <point x="417" y="641" type="line"/>
      <point x="557" y="758" type="line"/>
      <point x="1105" y="361" type="line"/>
      <point x="1006" y="217" type="line"/>
    </contour>
    <contour>
      <point x="84" y="479" type="curve" smooth="yes"/>
      <point x="84" y="489" type="line" smooth="yes"/>
      <point x="84" y="753"/>
      <point x="283" y="899"/>
      <point x="657" y="899" type="curve" smooth="yes"/>
      <point x="792" y="899"/>
      <point x="881" y="890"/>
      <point x="993" y="867" type="curve"/>
      <point x="1022" y="614" type="line"/>
      <point x="938" y="630"/>
      <point x="849" y="639"/>
      <point x="753" y="639" type="curve" smooth="yes"/>
      <point x="550" y="639"/>
      <point x="449" y="586"/>
      <point x="449" y="484" type="curve" smooth="yes"/>
      <point x="449" y="477" type="line" smooth="yes"/>
      <point x="449" y="376"/>
      <point x="552" y="328"/>
      <point x="762" y="328" type="curve" smooth="yes"/>
      <point x="983" y="328"/>
      <point x="1116" y="402"/>
      <point x="1155" y="518" type="curve"/>
      <point x="1163" y="266" type="line"/>
      <point x="1131" y="266" type="line"/>
      <point x="1077" y="144"/>
      <point x="951" y="57"/>
      <point x="669" y="57" type="curve" smooth="yes"/>
      <point x="303" y="57"/>
      <point x="84" y="210"/>
    </contour>
    <contour>
      <point x="2792" y="1082" type="line"/>
      <point x="2792" y="0" type="line"/>
      <point x="2408" y="0" type="line"/>
      <point x="2408" y="1082" type="line"/>
    </contour>
    <contour>
      <point x="2335" y="999" type="line"/>
      <point x="2314" y="1266" type="line"/>
      <point x="2978" y="1266" type="line"/>
      <point x="2999" y="999" type="line"/>
    </contour>
    <contour>
      <point x="988" y="999" type="line"/>
      <point x="967" y="1266" type="line"/>
      <point x="2978" y="1266" type="line"/>
      <point x="2999" y="999" type="line"/>
    </contour>
    <contour>
      <point x="1602" y="858" type="curve" smooth="yes"/>
      <point x="1811" y="858"/>
      <point x="1926" y="785"/>
      <point x="1967" y="657" type="curve"/>
      <point x="1976" y="657" type="line"/>
      <point x="2014" y="783"/>
      <point x="2124" y="854"/>
      <point x="2272" y="854" type="curve" smooth="yes"/>
      <point x="2338" y="854"/>
      <point x="2386" y="842"/>
      <point x="2423" y="821" type="curve"/>
      <point x="2421" y="473" type="line"/>
      <point x="2405" y="530"/>
      <point x="2364" y="559"/>
      <point x="2304" y="559" type="curve" smooth="yes"/>
      <point x="2220" y="559"/>
      <point x="2183" y="516"/>
      <point x="2176" y="417" type="curve" smooth="yes"/>
      <point x="2163" y="221" type="line"/>
      <point x="1802" y="221" type="line"/>
      <point x="1789" y="415" type="line" smooth="yes"/>
      <point x="1782" y="514"/>
      <point x="1747" y="561"/>
      <point x="1656" y="561" type="curve" smooth="yes"/>
      <point x="1562" y="561"/>
      <point x="1513" y="504"/>
      <point x="1513" y="404" type="curve" smooth="yes"/>
      <point x="1513" y="263"/>
      <point x="1607" y="151"/>
      <point x="1764" y="7" type="curve"/>
      <point x="1764" y="0" type="line"/>
      <point x="1328" y="0" type="line"/>
      <point x="1195" y="116"/>
      <point x="1115" y="256"/>
      <point x="1115" y="429" type="curve" smooth="yes"/>
      <point x="1115" y="691"/>
      <point x="1295" y="858"/>
    </contour>
  </outline>
  <guideline angle="90" x="626" y="0"/>
  <guideline angle="0" x="0" y="482"/>
  <guideline angle="90" x="1094" y="0"/>
  <guideline angle="90" x="2600" y="0"/>
  <guideline angle="0" x="0" y="37"/>
  <guideline angle="0" x="0" y="1214"/>
  <guideline angle="90" x="2596" y="0"/>
  <guideline angle="90" x="2792" y="0"/>
</glyph>
<glyph name="BaYa.dv" format="2">
  <advance width="2674"/>
  <anchor x="2332" y="37" name="bottom"/>
  <anchor x="2328" y="37" name="bottom2"/>
  <anchor x="2524" y="37" name="bottom3"/>
  <anchor x="2332" y="55" name="bottom5"/>
  <anchor x="2332" y="1214" name="top"/>
  <outline>
    <contour>
      <point x="2524" y="1082" type="line"/>
      <point x="2524" y="0" type="line"/>
      <point x="2140" y="0" type="line"/>
      <point x="2140" y="1082" type="line"/>
    </contour>
    <contour>
      <point x="2067" y="999" type="line"/>
      <point x="2046" y="1266" type="line"/>
      <point x="2710" y="1266" type="line"/>
      <point x="2731" y="999" type="line"/>
    </contour>
    <contour>
      <point x="950" y="1266" type="line"/>
      <point x="2709" y="1266" type="line"/>
      <point x="2730" y="999" type="line"/>
      <point x="971" y="999" type="line"/>
    </contour>
    <contour>
      <point x="1756" y="1059" type="line"/>
      <point x="1836" y="991"/>
      <point x="1872" y="913"/>
      <point x="1872" y="819" type="curve" smooth="yes"/>
      <point x="1872" y="812" type="line" smooth="yes"/>
      <point x="1872" y="637"/>
      <point x="1733" y="534"/>
      <point x="1404" y="522" type="curve" smooth="yes"/>
      <point x="1221" y="514" type="line"/>
      <point x="1107" y="742" type="line"/>
      <point x="1174" y="742" type="line" smooth="yes"/>
      <point x="1413" y="742"/>
      <point x="1477" y="796"/>
      <point x="1477" y="890" type="curve" smooth="yes"/>
      <point x="1477" y="894" type="line" smooth="yes"/>
      <point x="1477" y="952"/>
      <point x="1452" y="1009"/>
      <point x="1356" y="1059" type="curve"/>
    </contour>
    <contour>
      <point x="1094" y="587" type="line" smooth="yes"/>
      <point x="1094" y="637"/>
      <point x="1098" y="680"/>
      <point x="1107" y="742" type="curve"/>
      <point x="1461" y="667" type="line"/>
      <point x="1461" y="545" type="line" smooth="yes"/>
      <point x="1461" y="456"/>
      <point x="1550" y="400"/>
      <point x="1783" y="400" type="curve" smooth="yes"/>
      <point x="2009" y="400"/>
      <point x="2118" y="459"/>
      <point x="2146" y="545" type="curve"/>
      <point x="2160" y="333" type="line"/>
      <point x="2128" y="333" type="line"/>
      <point x="2086" y="203"/>
      <point x="1956" y="98"/>
      <point x="1680" y="98" type="curve" smooth="yes"/>
      <point x="1308" y="98"/>
      <point x="1094" y="269"/>
      <point x="1094" y="578" type="curve" smooth="yes"/>
    </contour>
    <contour>
      <point x="-36" y="999" type="line"/>
      <point x="-57" y="1266" type="line"/>
      <point x="1117" y="1266" type="line"/>
      <point x="1138" y="999" type="line"/>
    </contour>
    <contour>
      <point x="417" y="641" type="line"/>
      <point x="557" y="758" type="line"/>
      <point x="1105" y="361" type="line"/>
      <point x="1006" y="217" type="line"/>
    </contour>
    <contour>
      <point x="990" y="620" type="line"/>
      <point x="916" y="632"/>
      <point x="837" y="639"/>
      <point x="753" y="639" type="curve" smooth="yes"/>
      <point x="550" y="639"/>
      <point x="449" y="586"/>
      <point x="449" y="484" type="curve" smooth="yes"/>
      <point x="449" y="477" type="line" smooth="yes"/>
      <point x="449" y="376"/>
      <point x="552" y="328"/>
      <point x="762" y="328" type="curve" smooth="yes"/>
      <point x="989" y="328"/>
      <point x="1115" y="390"/>
      <point x="1165" y="506" type="curve"/>
      <point x="1206" y="290" type="line"/>
      <point x="1174" y="290" type="line"/>
      <point x="1115" y="150"/>
      <point x="988" y="57"/>
      <point x="689" y="57" type="curve" smooth="yes"/>
      <point x="303" y="57"/>
      <point x="84" y="210"/>
      <point x="84" y="479" type="curve" smooth="yes"/>
      <point x="84" y="489" type="line" smooth="yes"/>
      <point x="84" y="753"/>
      <point x="283" y="899"/>
      <point x="657" y="899" type="curve" smooth="yes"/>
      <point x="777" y="899"/>
      <point x="865" y="892"/>
      <point x="962" y="873" type="curve"/>
    </contour>
  </outline>
  <guideline angle="90" x="1102" y="0"/>
</glyph>
<glyph name="BhaLa.dv" format="2">
  <advance width="2804"/>
  <anchor x="2462" y="37" name="bottom"/>
  <anchor x="2458" y="37" name="bottom2"/>
  <anchor x="2654" y="37" name="bottom3"/>
  <anchor x="2462" y="55" name="bottom5"/>
  <anchor x="2462" y="1214" name="top"/>
  <outline>
    <contour>
      <point x="1464" y="858" type="curve" smooth="yes"/>
      <point x="1673" y="858"/>
      <point x="1788" y="785"/>
      <point x="1829" y="657" type="curve"/>
      <point x="1838" y="657" type="line"/>
      <point x="1876" y="783"/>
      <point x="1986" y="854"/>
      <point x="2134" y="854" type="curve" smooth="yes"/>
      <point x="2200" y="854"/>
      <point x="2248" y="842"/>
      <point x="2285" y="821" type="curve"/>
      <point x="2283" y="473" type="line"/>
      <point x="2267" y="530"/>
      <point x="2226" y="559"/>
      <point x="2166" y="559" type="curve" smooth="yes"/>
      <point x="2082" y="559"/>
      <point x="2045" y="516"/>
      <point x="2038" y="417" type="curve" smooth="yes"/>
      <point x="2025" y="221" type="line"/>
      <point x="1664" y="221" type="line"/>
      <point x="1651" y="415" type="line" smooth="yes"/>
      <point x="1644" y="514"/>
      <point x="1609" y="561"/>
      <point x="1518" y="561" type="curve" smooth="yes"/>
      <point x="1424" y="561"/>
      <point x="1375" y="504"/>
      <point x="1375" y="404" type="curve" smooth="yes"/>
      <point x="1375" y="263"/>
      <point x="1469" y="151"/>
      <point x="1626" y="7" type="curve"/>
      <point x="1626" y="0" type="line"/>
      <point x="1190" y="0" type="line"/>
      <point x="1057" y="116"/>
      <point x="977" y="256"/>
      <point x="977" y="429" type="curve" smooth="yes"/>
      <point x="977" y="691"/>
      <point x="1157" y="858"/>
    </contour>
    <contour>
      <point x="1147" y="999" type="line"/>
      <point x="1125" y="1266" type="line"/>
      <point x="2732" y="1266" type="line"/>
      <point x="2753" y="999" type="line"/>
    </contour>
    <contour>
      <point x="924" y="999" type="line"/>
      <point x="902" y="1266" type="line"/>
      <point x="1251" y="1266" type="line"/>
      <point x="1272" y="999" type="line"/>
    </contour>
    <contour>
      <point x="383" y="388" type="line"/>
      <point x="383" y="673" type="line"/>
      <point x="1185" y="673" type="line"/>
      <point x="1185" y="388" type="line"/>
    </contour>
    <contour>
      <point x="244" y="158" type="line"/>
      <point x="153" y="262"/>
      <point x="84" y="400"/>
      <point x="68" y="566" type="curve"/>
      <point x="247" y="662" type="line"/>
      <point x="628" y="662" type="line"/>
      <point x="628" y="158" type="line"/>
    </contour>
    <contour>
      <point x="247" y="525" type="line"/>
      <point x="247" y="856" type="line" smooth="yes"/>
      <point x="247" y="963"/>
      <point x="217" y="999"/>
      <point x="114" y="999" type="curve" smooth="yes"/>
      <point x="-36" y="999" type="line"/>
      <point x="-57" y="1266" type="line"/>
      <point x="187" y="1266" type="line" smooth="yes"/>
      <point x="514" y="1266"/>
      <point x="628" y="1148"/>
      <point x="628" y="863" type="curve" smooth="yes"/>
      <point x="628" y="525" type="line"/>
    </contour>
    <contour>
      <point x="2654" y="1082" type="line"/>
      <point x="2654" y="0" type="line"/>
      <point x="2270" y="0" type="line"/>
      <point x="2270" y="1082" type="line"/>
    </contour>
    <contour>
      <point x="2197" y="999" type="line"/>
      <point x="2176" y="1266" type="line"/>
      <point x="2840" y="1266" type="line"/>
      <point x="2861" y="999" type="line"/>
    </contour>
  </outline>
  <guideline angle="0" x="0" y="485"/>
  <guideline angle="0" x="0" y="519"/>
  <guideline angle="90" x="977" y="0"/>
  <guideline angle="90" x="2462" y="0"/>
  <guideline angle="0" x="0" y="37"/>
  <guideline angle="0" x="0" y="1214"/>
  <guideline angle="90" x="2458" y="0"/>
  <guideline angle="90" x="2654" y="0"/>
</glyph>
<glyph name="BhaVa.dv" format="2">
  <advance width="2501"/>
  <anchor x="2159" y="37" name="bottom"/>
  <anchor x="2155" y="37" name="bottom2"/>
  <anchor x="2351" y="37" name="bottom3"/>
  <anchor x="2159" y="55" name="bottom5"/>
  <anchor x="2159" y="1214" name="top"/>
  <outline>
    <contour>
      <point x="1142" y="999" type="line"/>
      <point x="1121" y="1266" type="line"/>
      <point x="2437" y="1266" type="line"/>
      <point x="2458" y="999" type="line"/>
    </contour>
    <contour>
      <point x="963" y="477" type="curve" smooth="yes"/>
      <point x="963" y="486" type="line" smooth="yes"/>
      <point x="963" y="756"/>
      <point x="1162" y="894"/>
      <point x="1516" y="894" type="curve" smooth="yes"/>
      <point x="1635" y="894"/>
      <point x="1724" y="885"/>
      <point x="1815" y="863" type="curve"/>
      <point x="1840" y="586" type="line"/>
      <point x="1778" y="595"/>
      <point x="1707" y="600"/>
      <point x="1630" y="600" type="curve" smooth="yes"/>
      <point x="1438" y="600"/>
      <point x="1361" y="564"/>
      <point x="1361" y="488" type="curve" smooth="yes"/>
      <point x="1361" y="482" type="line" smooth="yes"/>
      <point x="1361" y="408"/>
      <point x="1433" y="370"/>
      <point x="1625" y="370" type="curve" smooth="yes"/>
      <point x="1830" y="370"/>
      <point x="1947" y="422"/>
      <point x="1975" y="506" type="curve"/>
      <point x="1988" y="292" type="line"/>
      <point x="1954" y="292" type="line"/>
      <point x="1910" y="153"/>
      <point x="1774" y="68"/>
      <point x="1511" y="68" type="curve" smooth="yes"/>
      <point x="1167" y="68"/>
      <point x="963" y="221"/>
    </contour>
    <contour>
      <point x="924" y="999" type="line"/>
      <point x="902" y="1266" type="line"/>
      <point x="1251" y="1266" type="line"/>
      <point x="1272" y="999" type="line"/>
    </contour>
    <contour>
      <point x="383" y="388" type="line"/>
      <point x="383" y="673" type="line"/>
      <point x="1185" y="673" type="line"/>
      <point x="1185" y="388" type="line"/>
    </contour>
    <contour>
      <point x="244" y="158" type="line"/>
      <point x="153" y="262"/>
      <point x="84" y="400"/>
      <point x="68" y="566" type="curve"/>
      <point x="247" y="662" type="line"/>
      <point x="628" y="662" type="line"/>
      <point x="628" y="158" type="line"/>
    </contour>
    <contour>
      <point x="247" y="525" type="line"/>
      <point x="247" y="856" type="line" smooth="yes"/>
      <point x="247" y="963"/>
      <point x="217" y="999"/>
      <point x="114" y="999" type="curve" smooth="yes"/>
      <point x="-36" y="999" type="line"/>
      <point x="-57" y="1266" type="line"/>
      <point x="187" y="1266" type="line" smooth="yes"/>
      <point x="514" y="1266"/>
      <point x="628" y="1148"/>
      <point x="628" y="863" type="curve" smooth="yes"/>
      <point x="628" y="525" type="line"/>
    </contour>
    <contour>
      <point x="2351" y="1082" type="line"/>
      <point x="2351" y="0" type="line"/>
      <point x="1967" y="0" type="line"/>
      <point x="1967" y="1082" type="line"/>
    </contour>
    <contour>
      <point x="1894" y="999" type="line"/>
      <point x="1873" y="1266" type="line"/>
      <point x="2537" y="1266" type="line"/>
      <point x="2558" y="999" type="line"/>
    </contour>
  </outline>
  <guideline angle="90" x="2159" y="0"/>
  <guideline angle="0" x="0" y="37"/>
  <guideline angle="0" x="0" y="1214"/>
  <guideline angle="90" x="2155" y="0"/>
  <guideline angle="90" x="2351" y="0"/>
</glyph>
<glyph name="CaCa.dv" format="2">
  <advance width="2642"/>
  <anchor x="2300" y="37" name="bottom"/>
  <anchor x="2296" y="37" name="bottom2"/>
  <anchor x="2492" y="37" name="bottom3"/>
  <anchor x="2300" y="55" name="bottom5"/>
  <anchor x="2300" y="1214" name="top"/>
  <outline>
    <contour>
      <point x="-36" y="999" type="line"/>
      <point x="-57" y="1266" type="line"/>
      <point x="1247" y="1266" type="line"/>
      <point x="1268" y="999" type="line"/>
    </contour>
    <contour>
      <point x="1075" y="865" type="line"/>
      <point x="1075" y="589" type="line"/>
      <point x="441" y="589" type="line"/>
      <point x="315" y="584" type="line"/>
      <point x="68" y="584" type="line"/>
      <point x="68" y="865" type="line"/>
    </contour>
    <contour>
      <point x="703" y="62" type="curve" smooth="yes"/>
      <point x="405" y="62"/>
      <point x="242" y="177"/>
      <point x="242" y="360" type="curve" smooth="yes"/>
      <point x="242" y="367" type="line" smooth="yes"/>
      <point x="242" y="472"/>
      <point x="297" y="548"/>
      <point x="418" y="580" type="curve"/>
      <point x="418" y="650" type="line"/>
      <point x="1075" y="648" type="line"/>
      <point x="1075" y="589" type="line"/>
      <point x="849" y="581" type="line" smooth="yes"/>
      <point x="701" y="576"/>
      <point x="637" y="543"/>
      <point x="637" y="474" type="curve" smooth="yes"/>
      <point x="637" y="470" type="line" smooth="yes"/>
      <point x="637" y="401"/>
      <point x="705" y="365"/>
      <point x="856" y="365" type="curve" smooth="yes"/>
      <point x="1001" y="365"/>
      <point x="1078" y="387"/>
      <point x="1128" y="462" type="curve"/>
      <point x="1153" y="264" type="line"/>
      <point x="1119" y="264" type="line"/>
      <point x="1077" y="137"/>
      <point x="947" y="62"/>
    </contour>
    <contour>
      <point x="2492" y="1082" type="line"/>
      <point x="2492" y="0" type="line"/>
      <point x="2108" y="0" type="line"/>
      <point x="2108" y="1082" type="line"/>
    </contour>
    <contour>
      <point x="2035" y="999" type="line"/>
      <point x="2014" y="1266" type="line"/>
      <point x="2678" y="1266" type="line"/>
      <point x="2699" y="999" type="line"/>
    </contour>
    <contour>
      <point x="827" y="999" type="line"/>
      <point x="806" y="1266" type="line"/>
      <point x="2678" y="1266" type="line"/>
      <point x="2699" y="999" type="line"/>
    </contour>
    <contour>
      <point x="1938" y="865" type="line"/>
      <point x="1938" y="589" type="line"/>
      <point x="1304" y="589" type="line"/>
      <point x="1178" y="584" type="line"/>
      <point x="931" y="584" type="line"/>
      <point x="931" y="865" type="line"/>
    </contour>
    <contour>
      <point x="1630" y="62" type="curve" smooth="yes"/>
      <point x="1301" y="62"/>
      <point x="1105" y="184"/>
      <point x="1105" y="374" type="curve" smooth="yes"/>
      <point x="1105" y="381" type="line" smooth="yes"/>
      <point x="1105" y="482"/>
      <point x="1160" y="552"/>
      <point x="1281" y="580" type="curve"/>
      <point x="1281" y="650" type="line"/>
      <point x="1938" y="648" type="line"/>
      <point x="1938" y="589" type="line"/>
      <point x="1712" y="582" type="line" smooth="yes"/>
      <point x="1564" y="577"/>
      <point x="1500" y="548"/>
      <point x="1500" y="479" type="curve" smooth="yes"/>
      <point x="1500" y="475" type="line" smooth="yes"/>
      <point x="1500" y="404"/>
      <point x="1565" y="365"/>
      <point x="1773" y="365" type="curve" smooth="yes"/>
      <point x="1978" y="365"/>
      <point x="2088" y="424"/>
      <point x="2116" y="522" type="curve"/>
      <point x="2129" y="304" type="line"/>
      <point x="2095" y="304" type="line"/>
      <point x="2053" y="167"/>
      <point x="1929" y="62"/>
    </contour>
  </outline>
  <guideline angle="90" x="2300" y="0"/>
  <guideline angle="0" x="0" y="37"/>
  <guideline angle="0" x="0" y="1214"/>
  <guideline angle="90" x="2296" y="0"/>
  <guideline angle="90" x="2492" y="0"/>
</glyph>
<glyph name="CaMa.dv" format="2">
  <advance width="2747"/>
  <anchor x="2405" y="37" name="bottom"/>
  <anchor x="2401" y="37" name="bottom2"/>
  <anchor x="2597" y="37" name="bottom3"/>
  <anchor x="2405" y="55" name="bottom5"/>
  <anchor x="2405" y="1214" name="top"/>
  <outline>
    <contour>
      <point x="-36" y="999" type="line"/>
      <point x="-57" y="1266" type="line"/>
      <point x="1215" y="1266" type="line"/>
      <point x="1236" y="999" type="line"/>
    </contour>
    <contour>
      <point x="1075" y="865" type="line"/>
      <point x="1075" y="589" type="line"/>
      <point x="441" y="589" type="line"/>
      <point x="315" y="584" type="line"/>
      <point x="68" y="584" type="line"/>
      <point x="68" y="865" type="line"/>
    </contour>
    <contour>
      <point x="778" y="62" type="curve" smooth="yes"/>
      <point x="442" y="62"/>
      <point x="242" y="183"/>
      <point x="242" y="374" type="curve" smooth="yes"/>
      <point x="242" y="381" type="line" smooth="yes"/>
      <point x="242" y="482"/>
      <point x="297" y="552"/>
      <point x="418" y="580" type="curve"/>
      <point x="418" y="650" type="line"/>
      <point x="1075" y="648" type="line"/>
      <point x="1075" y="589" type="line"/>
      <point x="849" y="582" type="line" smooth="yes"/>
      <point x="701" y="577"/>
      <point x="637" y="548"/>
      <point x="637" y="479" type="curve" smooth="yes"/>
      <point x="637" y="475" type="line" smooth="yes"/>
      <point x="637" y="404"/>
      <point x="699" y="365"/>
      <point x="901" y="365" type="curve" smooth="yes"/>
      <point x="1098" y="365"/>
      <point x="1205" y="424"/>
      <point x="1233" y="522" type="curve"/>
      <point x="1286" y="304" type="line"/>
      <point x="1252" y="304" type="line"/>
      <point x="1206" y="166"/>
      <point x="1084" y="62"/>
    </contour>
    <contour>
      <point x="2597" y="1082" type="line"/>
      <point x="2597" y="0" type="line"/>
      <point x="2213" y="0" type="line"/>
      <point x="2213" y="1082" type="line"/>
    </contour>
    <contour>
      <point x="2140" y="999" type="line"/>
      <point x="2119" y="1266" type="line"/>
      <point x="2783" y="1266" type="line"/>
      <point x="2804" y="999" type="line"/>
    </contour>
    <contour>
      <point x="2804" y="999" type="line"/>
      <point x="1082" y="999" type="line"/>
      <point x="1061" y="1266" type="line"/>
      <point x="2783" y="1266" type="line"/>
    </contour>
    <contour>
      <point x="2352" y="673" type="line"/>
      <point x="2352" y="388" type="line"/>
      <point x="1506" y="388" type="line"/>
      <point x="1506" y="673" type="line"/>
    </contour>
    <contour>
      <point x="1746" y="1088" type="line"/>
      <point x="1746" y="516" type="line"/>
      <point x="1365" y="516" type="line"/>
      <point x="1365" y="1088" type="line"/>
    </contour>
    <contour>
      <point x="1365" y="146" type="line"/>
      <point x="1276" y="251"/>
      <point x="1207" y="393"/>
      <point x="1191" y="562" type="curve"/>
      <point x="1367" y="659" type="line"/>
      <point x="1746" y="659" type="line"/>
      <point x="1746" y="146" type="line"/>
    </contour>
  </outline>
  <guideline angle="90" x="2405" y="0"/>
  <guideline angle="0" x="0" y="37"/>
  <guideline angle="0" x="0" y="1214"/>
  <guideline angle="90" x="2401" y="0"/>
  <guideline angle="90" x="2597" y="0"/>
</glyph>
<glyph name="ChaVa.dv" format="2">
  <advance width="1893"/>
  <anchor x="1273" y="-558" name="bottom"/>
  <anchor x="1269" y="-558" name="bottom2"/>
  <anchor x="1542" y="-558" name="bottom3"/>
  <anchor x="1396" y="1214" name="top"/>
  <outline>
    <contour>
      <point x="1123" y="999" type="line"/>
      <point x="1102" y="1266" type="line"/>
      <point x="1774" y="1266" type="line"/>
      <point x="1795" y="999" type="line"/>
    </contour>
    <contour>
      <point x="1588" y="1082" type="line"/>
      <point x="1588" y="894" type="line"/>
      <point x="1217" y="894" type="line"/>
      <point x="1217" y="1082" type="line"/>
    </contour>
    <contour>
      <point x="1921" y="1266" type="line"/>
      <point x="1942" y="999" type="line"/>
      <point x="-54" y="999" type="line"/>
      <point x="-75" y="1266" type="line"/>
    </contour>
    <contour>
      <point x="1213" y="842" type="line"/>
      <point x="1213" y="1088" type="line"/>
      <point x="1588" y="1088" type="line"/>
      <point x="1588" y="842" type="line"/>
    </contour>
    <contour>
      <point x="1465" y="103" type="line"/>
      <point x="1465" y="-595" type="line"/>
      <point x="1134" y="-595" type="line"/>
      <point x="1134" y="103" type="line"/>
    </contour>
    <contour>
      <point x="327" y="-180" type="curve" smooth="yes"/>
      <point x="327" y="-171" type="line" smooth="yes"/>
      <point x="327" y="-59"/>
      <point x="381" y="43"/>
      <point x="493" y="77" type="curve"/>
      <point x="810" y="7" type="line"/>
      <point x="727" y="-14"/>
      <point x="691" y="-61"/>
      <point x="691" y="-121" type="curve" smooth="yes"/>
      <point x="691" y="-128" type="line" smooth="yes"/>
      <point x="691" y="-206"/>
      <point x="755" y="-246"/>
      <point x="886" y="-246" type="curve" smooth="yes"/>
      <point x="1043" y="-246"/>
      <point x="1125" y="-198"/>
      <point x="1141" y="-121" type="curve"/>
      <point x="1150" y="-328" type="line"/>
      <point x="1120" y="-328" type="line"/>
      <point x="1087" y="-438"/>
      <point x="982" y="-520"/>
      <point x="765" y="-520" type="curve" smooth="yes"/>
      <point x="504" y="-520"/>
      <point x="327" y="-392"/>
    </contour>
    <contour>
      <point x="911" y="-30" type="curve" smooth="yes"/>
      <point x="377" y="-30"/>
      <point x="105" y="110"/>
      <point x="105" y="351" type="curve" smooth="yes"/>
      <point x="105" y="358" type="line" smooth="yes"/>
      <point x="105" y="504"/>
      <point x="201" y="603"/>
      <point x="445" y="628" type="curve"/>
      <point x="445" y="639" type="line"/>
      <point x="196" y="667"/>
      <point x="108" y="764"/>
      <point x="108" y="890" type="curve" smooth="yes"/>
      <point x="108" y="895" type="line" smooth="yes"/>
      <point x="108" y="952"/>
      <point x="132" y="1000"/>
      <point x="173" y="1032" type="curve"/>
      <point x="578" y="1032" type="line"/>
      <point x="527" y="1004"/>
      <point x="504" y="967"/>
      <point x="504" y="920" type="curve" smooth="yes"/>
      <point x="504" y="915" type="line" smooth="yes"/>
      <point x="504" y="835"/>
      <point x="578" y="792"/>
      <point x="740" y="780" type="curve" smooth="yes"/>
      <point x="810" y="774" type="line"/>
      <point x="810" y="495" type="line"/>
      <point x="735" y="489" type="line" smooth="yes"/>
      <point x="571" y="477"/>
      <point x="503" y="454"/>
      <point x="503" y="386" type="curve" smooth="yes"/>
      <point x="503" y="383" type="line" smooth="yes"/>
      <point x="503" y="303"/>
      <point x="635" y="255"/>
      <point x="934" y="255" type="curve" smooth="yes"/>
      <point x="1306" y="255"/>
      <point x="1483" y="360"/>
      <point x="1483" y="518" type="curve" smooth="yes"/>
      <point x="1483" y="532" type="line"/>
      <point x="1479" y="562" type="line"/>
      <point x="1479" y="586" type="line" smooth="yes"/>
      <point x="1479" y="655"/>
      <point x="1442" y="691"/>
      <point x="1354" y="691" type="curve" smooth="yes"/>
      <point x="1276" y="691"/>
      <point x="1242" y="666"/>
      <point x="1242" y="628" type="curve" smooth="yes"/>
      <point x="1242" y="623" type="line" smooth="yes"/>
      <point x="1242" y="582"/>
      <point x="1276" y="562"/>
      <point x="1354" y="562" type="curve" smooth="yes"/>
      <point x="1420" y="562"/>
      <point x="1463" y="580"/>
      <point x="1492" y="602" type="curve"/>
      <point x="1492" y="477" type="line"/>
      <point x="1467" y="477" type="line"/>
      <point x="1436" y="408"/>
      <point x="1362" y="356"/>
      <point x="1228" y="356" type="curve" smooth="yes"/>
      <point x="1041" y="356"/>
      <point x="920" y="450"/>
      <point x="920" y="621" type="curve" smooth="yes"/>
      <point x="920" y="627" type="line" smooth="yes"/>
      <point x="920" y="817"/>
      <point x="1068" y="918"/>
      <point x="1349" y="918" type="curve" smooth="yes"/>
      <point x="1675" y="918"/>
      <point x="1810" y="760"/>
      <point x="1810" y="538" type="curve" smooth="yes"/>
      <point x="1810" y="527" type="line" smooth="yes"/>
      <point x="1810" y="205"/>
      <point x="1531" y="-30"/>
    </contour>
  </outline>
  <guideline angle="90" x="1273" y="0"/>
  <guideline angle="0" x="0" y="-558"/>
  <guideline angle="90" x="1396" y="0"/>
</glyph>
<glyph name="Component_Bindu_I_kar.dv" format="2">
  <outline>
    <contour>
      <point x="-143.055" y="1437.48" type="curve" smooth="yes"/>
      <point x="-287.379" y="1437.48"/>
      <point x="-338" y="1512.87"/>
      <point x="-338" y="1605.5" type="curve" smooth="yes"/>
      <point x="-338" y="1610.88" type="line" smooth="yes"/>
      <point x="-338" y="1703.51"/>
      <point x="-287.379" y="1781.06"/>
      <point x="-143.055" y="1781.06" type="curve" smooth="yes"/>
      <point x="2.34555" y="1781.06"/>
      <point x="56.1977" y="1703.51"/>
      <point x="56.1977" y="1610.88" type="curve" smooth="yes"/>
      <point x="56.1977" y="1605.5" type="line" smooth="yes"/>
      <point x="56.1977" y="1512.87"/>
      <point x="2.34555" y="1437.48"/>
    </contour>
  </outline>
  <guideline angle="90" x="-342" y="0"/>
  <guideline angle="90" x="-523" y="0"/>
  <guideline angle="90" x="-416.607" y="0"/>
  <guideline angle="90" x="-597.607" y="0"/>
</glyph>
<glyph name="Component_matraA_Up.dv" format="2">
  <advance width="684"/>
  <anchor x="342" y="1214" name="top"/>
  <outline>
    <contour>
      <point x="69" y="999" type="line"/>
      <point x="48" y="1266" type="line"/>
      <point x="720" y="1266" type="line"/>
      <point x="741" y="999" type="line"/>
    </contour>
    <contour>
      <point x="534" y="1082" type="line"/>
      <point x="534" y="894" type="line"/>
      <point x="163" y="894" type="line"/>
      <point x="163" y="1082" type="line"/>
    </contour>
  </outline>
  <guideline angle="90" x="342" y="0"/>
</glyph>
<glyph name="DaDa.dv" format="2">
  <advance width="1445"/>
  <anchor x="1216" y="-280" name="bottom"/>
  <anchor x="960" y="-310" name="bottom2"/>
  <anchor x="1317" y="-310" name="bottom3"/>
  <anchor x="1125" y="1214" name="top"/>
  <note>Confirm Halant position</note>
  <outline>
    <contour>
      <point x="-36" y="999" type="line"/>
      <point x="-57" y="1266" type="line"/>
      <point x="1481" y="1266" type="line"/>
      <point x="1502" y="999" type="line"/>
    </contour>
    <contour>
      <point x="952" y="739" type="line"/>
      <point x="952" y="1088" type="line"/>
      <point x="1317" y="1088" type="line"/>
      <point x="1317" y="644" type="line"/>
    </contour>
    <contour>
      <point x="1353" y="190" type="line"/>
      <point x="1353" y="-27" type="line"/>
      <point x="1413" y="-347" type="line"/>
      <point x="1034" y="-347" type="line"/>
      <point x="988" y="-21" type="line"/>
      <point x="968" y="23" type="line"/>
      <point x="968" y="190" type="line"/>
    </contour>
    <contour>
      <point x="646" y="-192" type="curve" smooth="yes"/>
      <point x="299" y="-192"/>
      <point x="94" y="-73"/>
      <point x="94" y="130" type="curve" smooth="yes"/>
      <point x="94" y="139" type="line" smooth="yes"/>
      <point x="94" y="281"/>
      <point x="171" y="381"/>
      <point x="417" y="402" type="curve"/>
      <point x="417" y="411" type="line"/>
      <point x="170" y="434"/>
      <point x="98" y="523"/>
      <point x="98" y="639" type="curve" smooth="yes"/>
      <point x="98" y="646" type="line" smooth="yes"/>
      <point x="98" y="822"/>
      <point x="262" y="906"/>
      <point x="691" y="906" type="curve" smooth="yes"/>
      <point x="874" y="906"/>
      <point x="1080" y="897"/>
      <point x="1317" y="870" type="curve"/>
      <point x="1317" y="644" type="line"/>
      <point x="1119" y="656"/>
      <point x="989" y="660"/>
      <point x="790" y="660" type="curve" smooth="yes"/>
      <point x="525" y="660"/>
      <point x="490" y="641"/>
      <point x="490" y="600" type="curve" smooth="yes"/>
      <point x="490" y="596" type="line" smooth="yes"/>
      <point x="490" y="553"/>
      <point x="520" y="540"/>
      <point x="764" y="536" type="curve" smooth="yes"/>
      <point x="1182" y="530" type="line"/>
      <point x="1182" y="288" type="line"/>
      <point x="776" y="281" type="line" smooth="yes"/>
      <point x="541" y="277"/>
      <point x="486" y="249"/>
      <point x="486" y="187" type="curve" smooth="yes"/>
      <point x="486" y="180" type="line" smooth="yes"/>
      <point x="486" y="125"/>
      <point x="538" y="87"/>
      <point x="746" y="87" type="curve" smooth="yes"/>
      <point x="865" y="87"/>
      <point x="954" y="98"/>
      <point x="1015" y="114" type="curve"/>
      <point x="1043" y="-101" type="line"/>
      <point x="975" y="-156"/>
      <point x="836" y="-192"/>
    </contour>
  </outline>
  <guideline angle="90" x="1125" y="0"/>
  <guideline angle="0" x="0" y="-310"/>
  <guideline angle="90" x="1033" y="0"/>
</glyph>
